<?xml version="1.0" encoding="utf-8" standalone="no"?>
<!DOCTYPE svg PUBLIC "-//W3C//DTD SVG 1.1//EN"
  "http://www.w3.org/Graphics/SVG/1.1/DTD/svg11.dtd">
<svg xmlns:xlink="http://www.w3.org/1999/xlink" width="518.4pt" height="208.8pt" viewBox="0 0 518.4 208.8" xmlns="http://www.w3.org/2000/svg" version="1.1">
 <metadata>
  <rdf:RDF xmlns:dc="http://purl.org/dc/elements/1.1/" xmlns:cc="http://creativecommons.org/ns#" xmlns:rdf="http://www.w3.org/1999/02/22-rdf-syntax-ns#">
   <cc:Work>
    <dc:type rdf:resource="http://purl.org/dc/dcmitype/StillImage"/>
    <dc:date>2026-01-12T09:51:41.096909</dc:date>
    <dc:format>image/svg+xml</dc:format>
    <dc:creator>
     <cc:Agent>
      <dc:title>Matplotlib v3.7.5, https://matplotlib.org/</dc:title>
     </cc:Agent>
    </dc:creator>
   </cc:Work>
  </rdf:RDF>
 </metadata>
 <defs>
  <style type="text/css">*{stroke-linejoin: round; stroke-linecap: butt}</style>
 </defs>
 <g id="figure_1">
  <g id="patch_1">
   <path d="M 0 208.8 
L 518.4 208.8 
L 518.4 0 
L 0 0 
L 0 208.8 
z
" style="fill: none"/>
  </g>
  <g id="axes_1">
   <g id="line2d_1">
    <path d="M 27.080597 171.371123 
L 34.048534 171.260546 
L 37.822833 170.965954 
L 41.016471 170.486506 
L 43.919778 169.810436 
L 46.532755 168.965342 
L 48.8554 167.996576 
L 51.178046 166.79744 
L 53.500692 165.343363 
L 55.823337 163.609771 
L 58.145983 161.572092 
L 60.468629 159.205753 
L 62.791274 156.486182 
L 65.11392 153.388805 
L 67.436566 149.892941 
L 70.049542 145.505958 
L 72.952849 140.131233 
L 76.146487 133.697216 
L 79.630456 126.168426 
L 83.985416 116.201232 
L 90.663023 100.262979 
L 98.792282 80.964932 
L 103.147243 71.205128 
L 106.631212 63.910121 
L 109.824849 57.743408 
L 112.437826 53.139988 
L 115.050802 48.993034 
L 117.373448 45.734165 
L 119.405763 43.243997 
L 121.438078 41.117974 
L 123.180062 39.604958 
L 124.922046 38.394502 
L 126.3737 37.628574 
L 127.825354 37.093335 
L 129.277007 36.794192 
L 130.728661 36.725171 
L 132.180314 36.87826 
L 133.631968 37.245444 
L 135.083621 37.818709 
L 136.825606 38.767369 
L 138.56759 39.987398 
L 140.309574 41.464947 
L 142.341889 43.495756 
L 144.374204 45.836239 
L 146.69685 48.862059 
L 149.309826 52.674375 
L 151.922802 56.873967 
L 155.11644 62.46456 
L 158.600409 69.043295 
L 162.665039 77.207495 
L 168.181322 88.828326 
L 180.084881 114.081674 
L 184.439842 122.707905 
L 187.923811 129.137106 
L 191.117448 134.561484 
L 194.020756 139.072646 
L 196.924063 143.199303 
L 199.82737 146.958584 
L 202.730677 150.367615 
L 205.633984 153.443524 
L 208.537291 156.203438 
L 211.440598 158.664483 
L 214.343905 160.843788 
L 217.247212 162.758478 
L 220.150519 164.425682 
L 223.344157 165.994199 
L 226.537795 167.306778 
L 229.731433 168.386214 
L 233.215401 169.324669 
L 236.989701 170.093163 
L 241.054331 170.674219 
L 245.409291 171.065199 
L 250.635244 171.297841 
L 257.893512 171.370863 
L 491.319403 171.371123 
L 491.319403 171.371123 
" clip-path="url(#p005b797a3d)" style="fill: none; stroke: #e63946; stroke-width: 3; stroke-linecap: square"/>
   </g>
   <g id="line2d_2">
    <path d="M 27.080597 171.371123 
L 74.985164 171.261918 
L 79.920786 170.975813 
L 83.985416 170.528069 
L 87.759715 169.888051 
L 91.243684 169.065673 
L 94.437322 168.085439 
L 97.63096 166.860588 
L 100.534267 165.511887 
L 103.437574 163.91803 
L 106.340881 162.058545 
L 109.244188 159.912961 
L 112.147495 157.460805 
L 114.760472 154.974825 
L 117.373448 152.209014 
L 119.986424 149.14845 
L 122.889731 145.38397 
L 125.793039 141.2167 
L 128.696346 136.626738 
L 131.599653 131.623747 
L 135.083621 125.149768 
L 139.148251 117.071293 
L 144.083873 106.713723 
L 152.793795 87.77728 
L 159.471401 73.491544 
L 164.116692 64.076877 
L 167.890992 56.927699 
L 171.084629 51.327871 
L 173.987936 46.661714 
L 176.600913 42.856094 
L 178.923559 39.821101 
L 181.246204 37.143486 
L 183.278519 35.116415 
L 185.310834 33.404378 
L 187.052818 32.20231 
L 188.794803 31.258069 
L 190.536787 30.583198 
L 192.278771 30.178101 
L 194.020756 30.033621 
L 195.76274 30.140285 
L 197.504724 30.488625 
L 199.246708 31.069168 
L 200.988693 31.872446 
L 203.021008 33.078481 
L 205.053323 34.559752 
L 207.085637 36.301222 
L 209.408283 38.590792 
L 211.730929 41.178123 
L 214.343905 44.416836 
L 217.247212 48.385197 
L 220.44085 53.149343 
L 223.924819 58.756703 
L 227.989449 65.741077 
L 232.925071 74.697095 
L 240.473669 88.936533 
L 249.473921 105.815457 
L 254.409543 114.584734 
L 258.474173 121.350898 
L 261.958142 126.732453 
L 265.44211 131.713592 
L 268.926079 136.309666 
L 272.410047 140.536167 
L 275.894016 144.408584 
L 279.377984 147.942408 
L 282.861953 151.15313 
L 286.345921 154.05624 
L 289.82989 156.667227 
L 293.313858 159.001583 
L 296.797827 161.074797 
L 300.281796 162.902361 
L 304.056095 164.622977 
L 307.830394 166.093169 
L 311.604693 167.332631 
L 315.669323 168.431991 
L 320.024284 169.366225 
L 324.669575 170.118268 
L 329.605197 170.681036 
L 335.121481 171.075069 
L 341.508756 171.29966 
L 350.509008 171.370901 
L 491.319403 171.371123 
L 491.319403 171.371123 
" clip-path="url(#p005b797a3d)" style="fill: none; stroke: #457b9d; stroke-width: 3; stroke-linecap: square"/>
   </g>
   <g id="line2d_3">
    <path d="M 27.080597 171.371123 
L 137.406267 171.266578 
L 142.63222 170.991884 
L 146.98718 170.555158 
L 151.05181 169.924271 
L 154.82611 169.104607 
L 158.310078 168.115739 
L 161.503716 166.988195 
L 164.697354 165.626402 
L 167.890992 164.008253 
L 170.794299 162.296147 
L 173.697606 160.337293 
L 176.600913 158.115083 
L 179.50422 155.612905 
L 182.407527 152.814149 
L 185.310834 149.702205 
L 188.214141 146.260463 
L 191.117448 142.473644 
L 194.311086 137.923455 
L 197.795055 132.552882 
L 201.569354 126.325252 
L 205.924315 118.710005 
L 211.440598 108.583558 
L 220.731181 90.953852 
L 228.860441 75.723902 
L 234.086394 66.413091 
L 238.441354 59.120143 
L 242.215653 53.24167 
L 245.409291 48.649305 
L 248.312598 44.820445 
L 251.215905 41.357918 
L 253.828882 38.584284 
L 256.151528 36.413132 
L 258.474173 34.537958 
L 260.506488 33.153457 
L 262.538803 32.009261 
L 264.571118 31.098555 
L 266.603433 30.414378 
L 268.635748 29.949767 
L 270.668063 29.697761 
L 272.700378 29.651399 
L 274.732693 29.803718 
L 277.055339 30.212151 
L 279.377984 30.860603 
L 281.70063 31.738682 
L 284.313606 32.988057 
L 286.926583 34.500107 
L 289.539559 36.260035 
L 292.442866 38.488235 
L 295.636504 41.24739 
L 298.830142 44.303157 
L 302.31411 47.943262 
L 306.08841 52.208095 
L 310.44337 57.487558 
L 315.378992 63.852485 
L 321.185607 71.729469 
L 329.605197 83.580515 
L 341.799087 100.727312 
L 347.605701 108.50377 
L 352.541323 114.748527 
L 356.896284 119.913578 
L 361.251245 124.754573 
L 365.606205 129.28201 
L 369.961166 133.506387 
L 374.316127 137.438204 
L 378.671087 141.087958 
L 383.026048 144.466149 
L 387.671339 147.782058 
L 392.316631 150.813674 
L 396.961922 153.573739 
L 401.607213 156.074995 
L 406.252505 158.330182 
L 411.188127 160.470952 
L 416.123749 162.3636 
L 421.059371 164.02341 
L 426.285324 165.544055 
L 431.511277 166.838937 
L 437.02756 167.98088 
L 442.834174 168.956466 
L 448.931119 169.757639 
L 455.608726 170.406359 
L 462.866993 170.883163 
L 471.286584 171.200808 
L 481.73849 171.352492 
L 491.319403 171.371123 
L 491.319403 171.371123 
" clip-path="url(#p005b797a3d)" style="fill: none; stroke: #2a9d8f; stroke-width: 3; stroke-linecap: square"/>
   </g>
   <g id="line2d_4">
    <path d="M 27.370928 171.371116 
L 34.048534 171.271604 
L 37.822833 171.006471 
L 41.016471 170.574968 
L 43.919778 169.966505 
L 46.532755 169.20592 
L 49.145731 168.21092 
L 51.468377 167.104226 
L 53.791022 165.765321 
L 56.113668 164.172088 
L 58.436314 162.302412 
L 60.758959 160.134178 
L 63.081605 157.645269 
L 65.404251 154.813572 
L 67.726896 151.623214 
L 70.339873 147.636399 
L 73.24318 142.779939 
L 76.436818 137.009897 
L 80.501448 129.178328 
L 86.308062 117.443431 
L 94.727653 100.45787 
L 98.792282 92.7676 
L 101.98592 87.152636 
L 104.889227 82.470798 
L 107.502204 78.668538 
L 109.824849 75.664056 
L 111.857164 73.357909 
L 113.889479 71.381269 
L 115.631464 69.969706 
L 117.373448 68.837021 
L 119.115432 68.000195 
L 120.567086 67.541095 
L 122.018739 67.309073 
L 123.470393 67.313954 
L 124.922046 67.565566 
L 126.3737 68.073737 
L 127.825354 68.848288 
L 129.277007 69.893938 
L 130.728661 71.200685 
L 132.470645 73.095626 
L 134.212629 75.32649 
L 136.244944 78.324584 
L 138.277259 81.715474 
L 140.599905 86.027242 
L 143.212881 91.372572 
L 146.116188 97.83954 
L 149.600157 106.195173 
L 153.955117 117.30029 
L 161.503716 137.335385 
L 167.31033 152.479438 
L 171.37496 162.460361 
L 174.568598 169.735746 
L 177.471905 175.793018 
L 180.084881 180.704753 
L 182.407527 184.579513 
L 184.439842 187.548188 
L 186.181826 189.75186 
L 187.923811 191.617786 
L 189.665795 193.124119 
L 191.117448 194.093214 
L 192.569102 194.807161 
L 194.020756 195.27424 
L 195.472409 195.502729 
L 196.924063 195.500909 
L 198.375716 195.277057 
L 199.82737 194.839454 
L 201.279023 194.196377 
L 203.021008 193.165118 
L 204.762992 191.864205 
L 206.504976 190.307946 
L 208.537291 188.188665 
L 210.569606 185.76402 
L 212.892252 182.648222 
L 215.505228 178.743896 
L 218.408535 173.966828 
L 221.602173 168.254908 
L 225.376472 161.004113 
L 230.021764 151.540835 
L 237.860693 134.940031 
L 244.538299 121.010905 
L 248.89326 112.440905 
L 252.377228 106.056021 
L 255.570866 100.677215 
L 258.183843 96.677194 
L 260.796819 93.087375 
L 263.119465 90.250937 
L 265.44211 87.737927 
L 267.764756 85.538025 
L 270.087402 83.640915 
L 272.410047 82.036279 
L 274.732693 80.713797 
L 277.055339 79.663152 
L 279.377984 78.874026 
L 281.70063 78.336102 
L 284.023276 78.039059 
L 286.345921 77.972582 
L 288.668567 78.126352 
L 290.991213 78.49005 
L 293.604189 79.137293 
L 296.217166 80.022477 
L 298.830142 81.130911 
L 301.733449 82.606472 
L 304.927087 84.502927 
L 308.120725 86.659724 
L 311.604693 89.277996 
L 315.378992 92.387681 
L 319.733953 96.272439 
L 324.669575 100.97719 
L 331.056851 107.386429 
L 348.767024 125.349619 
L 353.702646 129.961395 
L 358.638268 134.258987 
L 363.57389 138.24845 
L 368.509512 141.941246 
L 373.445135 145.348837 
L 378.380757 148.482685 
L 383.316379 151.354253 
L 388.252001 153.975003 
L 393.477954 156.489269 
L 398.703906 158.748797 
L 403.929859 160.767194 
L 409.446143 162.65116 
L 414.962426 164.297619 
L 420.76904 165.79174 
L 426.575655 167.059092 
L 432.672599 168.166172 
L 439.059875 169.103427 
L 446.027812 169.894937 
L 453.576411 170.516849 
L 461.705671 170.958487 
L 470.996253 171.237752 
L 482.899812 171.36164 
L 490.738742 171.37112 
L 490.738742 171.37112 
" clip-path="url(#p005b797a3d)" style="fill: none; stroke-dasharray: 7.4,3.2; stroke-dashoffset: 0; stroke: #000000; stroke-width: 2"/>
   </g>
   <g id="PathCollection_1">
    <defs>
     <path id="m398055e940" d="M 0 4.1833 
C 1.109424 4.1833 2.173559 3.742521 2.95804 2.95804 
C 3.742521 2.173559 4.1833 1.109424 4.1833 0 
C 4.1833 -1.109424 3.742521 -2.173559 2.95804 -2.95804 
C 2.173559 -3.742521 1.109424 -4.1833 0 -4.1833 
C -1.109424 -4.1833 -2.173559 -3.742521 -2.95804 -2.95804 
C -3.742521 -2.173559 -4.1833 -1.109424 -4.1833 0 
C -4.1833 1.109424 -3.742521 2.173559 -2.95804 2.95804 
C -2.173559 3.742521 -1.109424 4.1833 0 4.1833 
z
" style="stroke: #e63946"/>
    </defs>
    <g clip-path="url(#p005b797a3d)">
     <use xlink:href="#m398055e940" x="27.080597" y="171.371123" style="fill: #e63946; stroke: #e63946"/>
     <use xlink:href="#m398055e940" x="65.767164" y="171.371123" style="fill: #e63946; stroke: #e63946"/>
     <use xlink:href="#m398055e940" x="127.665672" y="171.371123" style="fill: #e63946; stroke: #e63946"/>
     <use xlink:href="#m398055e940" x="189.564179" y="171.371123" style="fill: #e63946; stroke: #e63946"/>
     <use xlink:href="#m398055e940" x="259.2" y="171.371123" style="fill: #e63946; stroke: #e63946"/>
    </g>
   </g>
   <g id="PathCollection_2">
    <defs>
     <path id="m4541872ed5" d="M 0 4.1833 
C 1.109424 4.1833 2.173559 3.742521 2.95804 2.95804 
C 3.742521 2.173559 4.1833 1.109424 4.1833 0 
C 4.1833 -1.109424 3.742521 -2.173559 2.95804 -2.95804 
C 2.173559 -3.742521 1.109424 -4.1833 0 -4.1833 
C -1.109424 -4.1833 -2.173559 -3.742521 -2.95804 -2.95804 
C -3.742521 -2.173559 -4.1833 -1.109424 -4.1833 0 
C -4.1833 1.109424 -3.742521 2.173559 -2.95804 2.95804 
C -2.173559 3.742521 -1.109424 4.1833 0 4.1833 
z
" style="stroke: #457b9d"/>
    </defs>
    <g clip-path="url(#p005b797a3d)">
     <use xlink:href="#m4541872ed5" x="65.767164" y="171.371123" style="fill: #457b9d; stroke: #457b9d"/>
     <use xlink:href="#m4541872ed5" x="127.665672" y="171.371123" style="fill: #457b9d; stroke: #457b9d"/>
     <use xlink:href="#m4541872ed5" x="189.564179" y="171.371123" style="fill: #457b9d; stroke: #457b9d"/>
     <use xlink:href="#m4541872ed5" x="259.2" y="171.371123" style="fill: #457b9d; stroke: #457b9d"/>
     <use xlink:href="#m4541872ed5" x="352.047761" y="171.371123" style="fill: #457b9d; stroke: #457b9d"/>
    </g>
   </g>
   <g id="PathCollection_3">
    <defs>
     <path id="me66da79ae8" d="M 0 4.1833 
C 1.109424 4.1833 2.173559 3.742521 2.95804 2.95804 
C 3.742521 2.173559 4.1833 1.109424 4.1833 0 
C 4.1833 -1.109424 3.742521 -2.173559 2.95804 -2.95804 
C 2.173559 -3.742521 1.109424 -4.1833 0 -4.1833 
C -1.109424 -4.1833 -2.173559 -3.742521 -2.95804 -2.95804 
C -3.742521 -2.173559 -4.1833 -1.109424 -4.1833 0 
C -4.1833 1.109424 -3.742521 2.173559 -2.95804 2.95804 
C -2.173559 3.742521 -1.109424 4.1833 0 4.1833 
z
" style="stroke: #2a9d8f"/>
    </defs>
    <g clip-path="url(#p005b797a3d)">
     <use xlink:href="#me66da79ae8" x="127.665672" y="171.371123" style="fill: #2a9d8f; stroke: #2a9d8f"/>
     <use xlink:href="#me66da79ae8" x="189.564179" y="171.371123" style="fill: #2a9d8f; stroke: #2a9d8f"/>
     <use xlink:href="#me66da79ae8" x="259.2" y="171.371123" style="fill: #2a9d8f; stroke: #2a9d8f"/>
     <use xlink:href="#me66da79ae8" x="352.047761" y="171.371123" style="fill: #2a9d8f; stroke: #2a9d8f"/>
     <use xlink:href="#me66da79ae8" x="491.319403" y="171.371123" style="fill: #2a9d8f; stroke: #2a9d8f"/>
    </g>
   </g>
  </g>
 </g>
 <defs>
  <clipPath id="p005b797a3d">
   <rect x="0" y="-0" width="518.4" height="208.8"/>
  </clipPath>
 </defs>
</svg>
