<?xml version="1.0" encoding="UTF-8" standalone="no"?>
<svg
   width="475.105518pt"
   height="169.851675pt"
   viewBox="21.647325 27.4014 475.1055 169.851675"
   version="1.1"
   id="svg19"
   sodipodi:docname="cubic_bspline_basis_3_nonuniform.svg"
   xmlns:inkscape="http://www.inkscape.org/namespaces/inkscape"
   xmlns:sodipodi="http://sodipodi.sourceforge.net/DTD/sodipodi-0.dtd"
   xmlns:xlink="http://www.w3.org/1999/xlink"
   xmlns="http://www.w3.org/2000/svg"
   xmlns:svg="http://www.w3.org/2000/svg"
   xmlns:rdf="http://www.w3.org/1999/02/22-rdf-syntax-ns#"
   xmlns:cc="http://creativecommons.org/ns#"
   xmlns:dc="http://purl.org/dc/elements/1.1/">
  <sodipodi:namedview
     id="namedview19"
     pagecolor="#ffffff"
     bordercolor="#000000"
     borderopacity="0.25"
     inkscape:showpageshadow="2"
     inkscape:pageopacity="0.0"
     inkscape:pagecheckerboard="0"
     inkscape:deskcolor="#d1d1d1"
     inkscape:document-units="pt" />
  <metadata
     id="metadata1">
    <rdf:RDF>
      <cc:Work>
        <dc:type
           rdf:resource="http://purl.org/dc/dcmitype/StillImage" />
        <dc:date>2026-01-12T09:51:41.096909</dc:date>
        <dc:format>image/svg+xml</dc:format>
        <dc:creator>
          <cc:Agent>
            <dc:title>Matplotlib v3.7.5, https://matplotlib.org/</dc:title>
          </cc:Agent>
        </dc:creator>
      </cc:Work>
    </rdf:RDF>
  </metadata>
  <defs
     id="defs1">
    <style
       type="text/css"
       id="style1">*{stroke-linejoin: round; stroke-linecap: butt}</style>
  </defs>
  <g
     id="figure_1">
    <g
       id="patch_1">
      <path
         d="M 0,208.8 H 518.4 V 0 H 0 Z"
         style="fill:none"
         id="path1" />
    </g>
    <g
       id="axes_1">
      <g
         id="line2d_1">
        <path
           d="m 27.080597,171.37112 6.967937,-0.11057 3.774299,-0.2946 3.193638,-0.47944 2.903307,-0.67607 2.612977,-0.8451 2.322645,-0.96876 2.322646,-1.19914 2.322646,-1.45408 2.322645,-1.73359 2.322646,-2.03768 2.322646,-2.36634 2.322645,-2.71957 2.322646,-3.09738 2.322646,-3.49586 2.612976,-4.38698 2.903307,-5.37473 3.193638,-6.43401 3.483969,-7.52879 4.35496,-9.9672 6.677607,-15.93825 8.129259,-19.298048 4.354958,-9.759804 3.48397,-7.295007 3.19364,-6.166713 2.61298,-4.60342 2.61297,-4.146954 2.32265,-3.258869 2.03231,-2.490168 2.03232,-2.126023 1.74198,-1.513016 1.74199,-1.210456 1.45165,-0.765928 1.45165,-0.535239 1.45166,-0.299143 1.45165,-0.06902 1.45165,0.153089 1.45166,0.367184 1.45165,0.573265 1.74199,0.94866 1.74198,1.220029 1.74198,1.477549 2.03232,2.030809 2.03231,2.340483 2.32265,3.02582 2.61298,3.812316 2.61297,4.199592 3.19364,5.590593 3.48397,6.578735 4.06463,8.1642 5.51628,11.620831 11.90356,25.253343 4.35496,8.62623 3.48397,6.42921 3.19364,5.42437 2.90331,4.51117 2.9033,4.12665 2.90331,3.75928 2.90331,3.40903 2.9033,3.07591 2.90331,2.75992 2.90331,2.46104 2.9033,2.17931 2.90331,1.91469 2.90331,1.6672 3.19364,1.56852 3.19363,1.31258 3.19364,1.07943 3.48397,0.93846 3.7743,0.76849 4.06463,0.58106 4.35496,0.39098 5.22595,0.23264 7.25827,0.073 233.42589,2.6e-4 v 0"
           clip-path="url(#p005b797a3d)"
           style="fill:none;stroke:#e63946;stroke-width:3;stroke-linecap:square"
           id="path2" />
      </g>
      <g
         id="line2d_2">
        <path
           d="m 27.080597,171.37112 47.904567,-0.1092 4.935622,-0.28611 4.06463,-0.44774 3.774299,-0.64002 3.483969,-0.82238 3.193638,-0.98023 3.193638,-1.22485 2.90331,-1.3487 2.9033,-1.59386 2.90331,-1.85949 2.90331,-2.14558 2.90331,-2.45216 2.61297,-2.48598 2.61298,-2.76581 2.61297,-3.06056 2.90331,-3.76448 2.90331,-4.16727 2.90331,-4.58996 2.9033,-5.00299 3.48397,-6.47398 4.06463,-8.07848 4.93562,-10.35757 8.70992,-18.93644 6.67761,-14.285736 4.64529,-9.414667 3.7743,-7.149178 3.19364,-5.599828 2.90331,-4.666157 2.61297,-3.80562 2.32265,-3.034993 2.32264,-2.677615 2.03232,-2.027071 2.03231,-1.712037 1.74199,-1.202068 1.74198,-0.944241 1.74199,-0.674871 1.74198,-0.405097 1.74199,-0.14448 1.74198,0.106664 1.74198,0.34834 1.74199,0.580543 1.74198,0.803278 2.03232,1.206035 2.03231,1.481271 2.03232,1.74147 2.32264,2.28957 2.32265,2.587331 2.61297,3.238713 2.90331,3.968361 3.19364,4.764146 3.48397,5.60736 4.06463,6.984374 4.93562,8.956018 7.5486,14.239438 9.00025,16.878927 4.93562,8.76927 4.06463,6.76617 3.48397,5.38155 3.48397,4.98114 3.48397,4.59608 3.48397,4.2265 3.48397,3.87241 3.48396,3.53383 3.48397,3.21072 3.48397,2.90311 3.48397,2.61099 3.48397,2.33435 3.48397,2.07322 3.48397,1.82756 3.7743,1.72062 3.77429,1.47019 3.7743,1.23946 4.06463,1.09936 4.35496,0.93423 4.64529,0.75205 4.93563,0.56277 5.51628,0.39403 6.38728,0.22459 9.00025,0.0712 140.81039,2.2e-4 v 0"
           clip-path="url(#p005b797a3d)"
           style="fill:none;stroke:#457b9d;stroke-width:3;stroke-linecap:square"
           id="path3" />
      </g>
      <g
         id="line2d_3">
        <path
           d="m 27.080597,171.37112 110.325673,-0.10454 5.22595,-0.2747 4.35496,-0.43672 4.06463,-0.63089 3.7743,-0.81966 3.48397,-0.98887 3.19364,-1.12755 3.19363,-1.36179 3.19364,-1.61815 2.90331,-1.7121 2.90331,-1.95886 2.9033,-2.22221 2.90331,-2.50218 2.90331,-2.79875 2.9033,-3.11195 2.90331,-3.44174 2.90331,-3.78682 3.19364,-4.55019 3.48396,-5.37057 3.7743,-6.22763 4.35496,-7.61525 5.51629,-10.12644 9.29058,-17.629708 8.12926,-15.22995 5.22595,-9.310811 4.35496,-7.292948 3.7743,-5.878473 3.19364,-4.592365 2.90331,-3.82886 2.9033,-3.462527 2.61298,-2.773634 2.32265,-2.171152 2.32264,-1.875174 2.03232,-1.384501 2.03231,-1.144196 2.03232,-0.910706 2.03231,-0.684177 2.03232,-0.464611 2.03231,-0.252006 2.03232,-0.04636 2.03231,0.152319 2.32265,0.408433 2.32264,0.648452 2.32265,0.878079 2.61298,1.249375 2.61297,1.51205 2.61298,1.759928 2.90331,2.2282 3.19363,2.759155 3.19364,3.055767 3.48397,3.640105 3.7743,4.264833 4.35496,5.279463 4.93562,6.364927 5.80662,7.876984 8.41959,11.851046 12.19389,17.146793 5.80661,7.77646 4.93562,6.24476 4.35496,5.16505 4.35496,4.84099 4.35496,4.52744 4.35497,4.22438 4.35496,3.93181 4.35496,3.64976 4.35496,3.37819 4.64529,3.31591 4.64529,3.03161 4.64529,2.76007 4.64529,2.50125 4.64529,2.25519 4.93563,2.14077 4.93562,1.89265 4.93562,1.65981 5.22595,1.52064 5.22596,1.29489 5.51628,1.14194 5.80661,0.97559 6.09695,0.80117 6.67761,0.64872 7.25826,0.4768 8.41959,0.31765 10.45191,0.15168 9.58091,0.0186 v 0"
           clip-path="url(#p005b797a3d)"
           style="fill:none;stroke:#2a9d8f;stroke-width:3;stroke-linecap:square"
           id="path4" />
      </g>
      <g
         id="line2d_4">
        <path
           d="m 27.370928,171.37112 6.677606,-0.0995 3.774299,-0.26513 3.193638,-0.4315 2.903307,-0.60847 2.612977,-0.76058 2.612976,-0.995 2.322646,-1.10669 2.322645,-1.33891 2.322646,-1.59323 2.322646,-1.86968 2.322645,-2.16823 2.322646,-2.48891 2.322646,-2.8317 2.322645,-3.19036 2.612977,-3.98681 2.903307,-4.85646 3.193638,-5.77004 4.06463,-7.83157 5.806614,-11.7349 8.419591,-16.98556 4.064629,-7.69027 3.193638,-5.614964 2.90331,-4.681838 2.61297,-3.80226 2.32265,-3.004482 2.03231,-2.306147 2.03232,-1.97664 1.74198,-1.411563 1.74199,-1.132685 1.74198,-0.836826 1.45166,-0.4591 1.45165,-0.232022 1.45165,0.0049 1.45166,0.251612 1.45165,0.508171 1.45165,0.774551 1.45166,1.04565 1.45165,1.306747 1.74198,1.894941 1.74199,2.230864 2.03231,2.998094 2.03232,3.39089 2.32264,4.311768 2.61298,5.34533 2.90331,6.466968 3.48397,8.355631 4.35496,11.10512 7.5486,20.03509 5.80661,15.14406 4.06463,9.98092 3.19364,7.27539 2.9033,6.05727 2.61298,4.91173 2.32265,3.87476 2.03231,2.96868 1.74199,2.20367 1.74198,1.86593 1.74198,1.50633 1.45166,0.96909 1.45165,0.71395 1.45166,0.46708 1.45165,0.22849 1.45165,-0.002 1.45166,-0.22385 1.45165,-0.43761 1.45165,-0.64307 1.74199,-1.03126 1.74198,-1.30092 1.74199,-1.55625 2.03231,-2.11929 2.03232,-2.42464 2.32264,-3.1158 2.61298,-3.90432 2.9033,-4.77707 3.19364,-5.71192 3.7743,-7.2508 4.64529,-9.46328 7.83893,-16.6008 6.67761,-13.92913 4.35496,-8.56999 3.48397,-6.38489 3.19364,-5.3788 2.61297,-4.000027 2.61298,-3.589819 2.32264,-2.836438 2.32265,-2.51301 2.32265,-2.199902 2.32264,-1.89711 2.32265,-1.604636 2.32264,-1.322482 2.32265,-1.050645 2.32264,-0.789126 2.32265,-0.537924 2.32265,-0.297043 2.32264,-0.06648 2.32265,0.15377 2.32264,0.363698 2.61298,0.647243 2.61298,0.885184 2.61297,1.108434 2.90331,1.475561 3.19364,1.896455 3.19363,2.156797 3.48397,2.618272 3.7743,3.109685 4.35496,3.884758 4.93562,4.704755 6.38728,6.40924 17.71017,17.96319 4.93563,4.61177 4.93562,4.2976 4.93562,3.98946 4.93562,3.6928 4.93562,3.40759 4.93563,3.13384 4.93562,2.87157 4.93562,2.62075 5.22595,2.51427 5.22596,2.25953 5.22595,2.01839 5.51628,1.88397 5.51629,1.64646 5.80661,1.49412 5.80661,1.26735 6.09695,1.10708 6.38727,0.93726 6.96794,0.79151 7.5486,0.62191 8.12926,0.44164 9.29058,0.27926 11.90356,0.12389 7.83893,0.009 v 0"
           clip-path="url(#p005b797a3d)"
           style="fill:none;stroke:#000000;stroke-width:2;stroke-dasharray:7.4, 3.2;stroke-dashoffset:0"
           id="path5" />
      </g>
      <g
         id="PathCollection_1">
        <defs
           id="defs5">
          <path
             id="m398055e940"
             d="m 0,4.1833 c 1.109424,0 2.173559,-0.440779 2.95804,-1.22526 C 3.742521,2.173559 4.1833,1.109424 4.1833,0 4.1833,-1.109424 3.742521,-2.173559 2.95804,-2.95804 2.173559,-3.742521 1.109424,-4.1833 0,-4.1833 c -1.109424,0 -2.173559,0.440779 -2.95804,1.22526 C -3.742521,-2.173559 -4.1833,-1.109424 -4.1833,0 c 0,1.109424 0.440779,2.173559 1.22526,2.95804 C -2.173559,3.742521 -1.109424,4.1833 0,4.1833 Z"
             style="stroke:#e63946" />
        </defs>
        <g
           clip-path="url(#p005b797a3d)"
           id="g9">
          <use
             xlink:href="#m398055e940"
             x="27.080597"
             y="171.37112"
             style="fill:#e63946;stroke:#e63946"
             id="use5" />
          <use
             xlink:href="#m398055e940"
             x="65.767166"
             y="171.37112"
             style="fill:#e63946;stroke:#e63946"
             id="use6" />
          <use
             xlink:href="#m398055e940"
             x="127.66567"
             y="171.37112"
             style="fill:#e63946;stroke:#e63946"
             id="use7" />
          <use
             xlink:href="#m398055e940"
             x="189.56418"
             y="171.37112"
             style="fill:#e63946;stroke:#e63946"
             id="use8" />
          <use
             xlink:href="#m398055e940"
             x="259.20001"
             y="171.37112"
             style="fill:#e63946;stroke:#e63946"
             id="use9" />
        </g>
      </g>
      <g
         id="PathCollection_2">
        <defs
           id="defs9">
          <path
             id="m4541872ed5"
             d="m 0,4.1833 c 1.109424,0 2.173559,-0.440779 2.95804,-1.22526 C 3.742521,2.173559 4.1833,1.109424 4.1833,0 4.1833,-1.109424 3.742521,-2.173559 2.95804,-2.95804 2.173559,-3.742521 1.109424,-4.1833 0,-4.1833 c -1.109424,0 -2.173559,0.440779 -2.95804,1.22526 C -3.742521,-2.173559 -4.1833,-1.109424 -4.1833,0 c 0,1.109424 0.440779,2.173559 1.22526,2.95804 C -2.173559,3.742521 -1.109424,4.1833 0,4.1833 Z"
             style="stroke:#457b9d" />
        </defs>
        <g
           clip-path="url(#p005b797a3d)"
           id="g14">
          <use
             xlink:href="#m4541872ed5"
             x="65.767166"
             y="171.37112"
             style="fill:#457b9d;stroke:#457b9d"
             id="use10" />
          <use
             xlink:href="#m4541872ed5"
             x="127.66567"
             y="171.37112"
             style="fill:#457b9d;stroke:#457b9d"
             id="use11" />
          <use
             xlink:href="#m4541872ed5"
             x="189.56418"
             y="171.37112"
             style="fill:#457b9d;stroke:#457b9d"
             id="use12" />
          <use
             xlink:href="#m4541872ed5"
             x="259.20001"
             y="171.37112"
             style="fill:#457b9d;stroke:#457b9d"
             id="use13" />
          <use
             xlink:href="#m4541872ed5"
             x="352.04776"
             y="171.37112"
             style="fill:#457b9d;stroke:#457b9d"
             id="use14" />
        </g>
      </g>
      <g
         id="PathCollection_3">
        <defs
           id="defs14">
          <path
             id="me66da79ae8"
             d="m 0,4.1833 c 1.109424,0 2.173559,-0.440779 2.95804,-1.22526 C 3.742521,2.173559 4.1833,1.109424 4.1833,0 4.1833,-1.109424 3.742521,-2.173559 2.95804,-2.95804 2.173559,-3.742521 1.109424,-4.1833 0,-4.1833 c -1.109424,0 -2.173559,0.440779 -2.95804,1.22526 C -3.742521,-2.173559 -4.1833,-1.109424 -4.1833,0 c 0,1.109424 0.440779,2.173559 1.22526,2.95804 C -2.173559,3.742521 -1.109424,4.1833 0,4.1833 Z"
             style="stroke:#2a9d8f" />
        </defs>
        <g
           clip-path="url(#p005b797a3d)"
           id="g19">
          <use
             xlink:href="#me66da79ae8"
             x="127.66567"
             y="171.37112"
             style="fill:#2a9d8f;stroke:#2a9d8f"
             id="use15" />
          <use
             xlink:href="#me66da79ae8"
             x="189.56418"
             y="171.37112"
             style="fill:#2a9d8f;stroke:#2a9d8f"
             id="use16" />
          <use
             xlink:href="#me66da79ae8"
             x="259.20001"
             y="171.37112"
             style="fill:#2a9d8f;stroke:#2a9d8f"
             id="use17" />
          <use
             xlink:href="#me66da79ae8"
             x="352.04776"
             y="171.37112"
             style="fill:#2a9d8f;stroke:#2a9d8f"
             id="use18" />
          <use
             xlink:href="#me66da79ae8"
             x="491.3194"
             y="171.37112"
             style="fill:#2a9d8f;stroke:#2a9d8f"
             id="use19" />
        </g>
      </g>
    </g>
  </g>
  <defs
     id="defs19">
    <clipPath
       id="p005b797a3d">
      <rect
         x="0"
         y="0"
         width="518.40002"
         height="208.8"
         id="rect19" />
    </clipPath>
  </defs>
</svg>
