<?xml version="1.0" encoding="utf-8" standalone="no"?>
<!DOCTYPE svg PUBLIC "-//W3C//DTD SVG 1.1//EN"
  "http://www.w3.org/Graphics/SVG/1.1/DTD/svg11.dtd">
<svg xmlns:xlink="http://www.w3.org/1999/xlink" width="720pt" height="288pt" viewBox="0 0 720 288" xmlns="http://www.w3.org/2000/svg" version="1.1">
 <metadata>
  <rdf:RDF xmlns:dc="http://purl.org/dc/elements/1.1/" xmlns:cc="http://creativecommons.org/ns#" xmlns:rdf="http://www.w3.org/1999/02/22-rdf-syntax-ns#">
   <cc:Work>
    <dc:type rdf:resource="http://purl.org/dc/dcmitype/StillImage"/>
    <dc:date>2026-01-12T22:51:43.696902</dc:date>
    <dc:format>image/svg+xml</dc:format>
    <dc:creator>
     <cc:Agent>
      <dc:title>Matplotlib v3.10.1, https://matplotlib.org/</dc:title>
     </cc:Agent>
    </dc:creator>
   </cc:Work>
  </rdf:RDF>
 </metadata>
 <defs>
  <style type="text/css">*{stroke-linejoin: round; stroke-linecap: butt}</style>
 </defs>
 <g id="figure_1">
  <g id="patch_1">
   <path d="M 0 288 
L 720 288 
L 720 0 
L 0 0 
z
" style="fill: #ffffff"/>
  </g>
  <g id="axes_1">
   <g id="patch_2">
    <path d="M 10.8 277.2 
L 354.6 277.2 
L 354.6 24.72 
L 10.8 24.72 
z
" style="fill: #ffffff"/>
   </g>
   <g id="matplotlib.axis_1"/>
   <g id="matplotlib.axis_2"/>
   <g id="line2d_1">
    <path d="M 10.8 128.007273 
L 14.24489 123.856693 
L 17.68978 120.08383 
L 21.134669 116.697198 
L 23.890581 114.268049 
L 26.646493 112.086854 
L 29.402405 110.150282 
L 32.158317 108.452898 
L 34.914228 106.987287 
L 37.67014 105.744189 
L 40.426052 104.712653 
L 43.181964 103.880212 
L 46.626854 103.098495 
L 50.071743 102.57681 
L 53.516633 102.283606 
L 57.650501 102.186781 
L 61.784369 102.31285 
L 67.296192 102.726734 
L 76.252906 103.683628 
L 85.209619 104.568479 
L 91.410421 104.946385 
L 96.922244 105.054432 
L 102.434068 104.932148 
L 107.945892 104.595721 
L 114.835671 103.946638 
L 129.993186 102.417212 
L 134.816032 102.1997 
L 138.9499 102.235288 
L 142.39479 102.466338 
L 145.839679 102.916086 
L 149.284569 103.616596 
L 152.040481 104.377871 
L 154.796393 105.333209 
L 157.552305 106.495603 
L 160.308216 107.876592 
L 163.064128 109.486089 
L 165.82004 111.33222 
L 168.575952 113.421175 
L 171.331864 115.757089 
L 174.087776 118.341928 
L 177.532665 121.92238 
L 180.977555 125.885526 
L 184.422445 130.219967 
L 187.867335 134.90853 
L 192.001202 140.969632 
L 196.13507 147.457375 
L 200.957916 155.483819 
L 206.469739 165.119351 
L 215.426453 181.333754 
L 223.694188 196.195597 
L 229.206012 205.642756 
L 233.33988 212.318117 
L 236.78477 217.534637 
L 240.229659 222.379732 
L 243.674549 226.803618 
L 246.430461 230.00845 
L 249.186373 232.892758 
L 251.942285 235.437101 
L 254.698196 237.624239 
L 256.76513 239.021129 
L 258.832064 240.203302 
L 260.898998 241.166205 
L 262.965932 241.906123 
L 265.032866 242.420197 
L 267.0998 242.706441 
L 269.166733 242.763745 
L 271.233667 242.591888 
L 273.300601 242.191535 
L 275.367535 241.564236 
L 277.434469 240.712414 
L 279.501403 239.639359 
L 281.568337 238.349207 
L 283.635271 236.84692 
L 286.391182 234.523956 
L 289.147094 231.849984 
L 291.903006 228.843088 
L 294.658918 225.523493 
L 298.103808 220.968234 
L 301.548697 216.006326 
L 305.682565 209.587017 
L 309.816433 202.748745 
L 315.328257 193.148422 
L 323.595992 178.19622 
L 333.241683 160.854135 
L 338.753507 151.415122 
L 343.576353 143.624266 
L 347.71022 137.378675 
L 351.15511 132.521281 
L 354.6 128.007273 
L 354.6 128.007273 
" clip-path="url(#p4217a4da9b)" style="fill: none; stroke: #1f77b4; stroke-width: 2; stroke-linecap: square"/>
   </g>
   <g id="line2d_2">
    <path d="M 10.8 128.007273 
L 38.359118 105.483313 
L 65.918236 102.602882 
L 96.922244 105.040635 
L 131.371142 102.407336 
L 165.131062 111.017732 
L 165.82004 111.535591 
L 210.603607 172.446272 
L 251.253307 234.698303 
L 251.942285 234.931595 
L 292.591984 227.915362 
L 293.96994 225.849288 
L 332.552705 163.138993 
L 354.6 128.007273 
L 354.6 128.007273 
" clip-path="url(#p4217a4da9b)" style="fill: none; stroke-dasharray: 5.55,2.4; stroke-dashoffset: 0; stroke: #ff7f0e; stroke-width: 1.5"/>
   </g>
   <g id="PathCollection_1">
    <defs>
     <path id="m4025127893" d="M 0 2.12132 
C 0.562581 2.12132 1.102195 1.897805 1.5 1.5 
C 1.897805 1.102195 2.12132 0.562581 2.12132 0 
C 2.12132 -0.562581 1.897805 -1.102195 1.5 -1.5 
C 1.102195 -1.897805 0.562581 -2.12132 0 -2.12132 
C -0.562581 -2.12132 -1.102195 -1.897805 -1.5 -1.5 
C -1.897805 -1.102195 -2.12132 -0.562581 -2.12132 0 
C -2.12132 0.562581 -1.897805 1.102195 -1.5 1.5 
C -1.102195 1.897805 -0.562581 2.12132 0 2.12132 
z
" style="stroke: #ff7f0e"/>
    </defs>
    <g clip-path="url(#p4217a4da9b)">
     <use xlink:href="#m4025127893" x="10.8" y="128.007273" style="fill: #ff7f0e; stroke: #ff7f0e"/>
     <use xlink:href="#m4025127893" x="38.304" y="105.489114" style="fill: #ff7f0e; stroke: #ff7f0e"/>
     <use xlink:href="#m4025127893" x="65.808" y="102.594117" style="fill: #ff7f0e; stroke: #ff7f0e"/>
     <use xlink:href="#m4025127893" x="96.75" y="105.054204" style="fill: #ff7f0e; stroke: #ff7f0e"/>
     <use xlink:href="#m4025127893" x="131.13" y="102.345833" style="fill: #ff7f0e; stroke: #ff7f0e"/>
     <use xlink:href="#m4025127893" x="165.51" y="111.11438" style="fill: #ff7f0e; stroke: #ff7f0e"/>
     <use xlink:href="#m4025127893" x="210.204" y="171.834302" style="fill: #ff7f0e; stroke: #ff7f0e"/>
     <use xlink:href="#m4025127893" x="251.46" y="235.014839" style="fill: #ff7f0e; stroke: #ff7f0e"/>
     <use xlink:href="#m4025127893" x="292.716" y="227.893956" style="fill: #ff7f0e; stroke: #ff7f0e"/>
     <use xlink:href="#m4025127893" x="327.096" y="171.834094" style="fill: #ff7f0e; stroke: #ff7f0e"/>
     <use xlink:href="#m4025127893" x="354.6" y="128.007273" style="fill: #ff7f0e; stroke: #ff7f0e"/>
    </g>
   </g>
   <g id="text_1">
    <!-- Grid update (relocate knots) -->
    <g transform="translate(111.914063 18.72) scale(0.1 -0.1)">
     <defs>
      <path id="DejaVuSans-47" d="M 3809 666 
L 3809 1919 
L 2778 1919 
L 2778 2438 
L 4434 2438 
L 4434 434 
Q 4069 175 3628 42 
Q 3188 -91 2688 -91 
Q 1594 -91 976 548 
Q 359 1188 359 2328 
Q 359 3472 976 4111 
Q 1594 4750 2688 4750 
Q 3144 4750 3555 4637 
Q 3966 4525 4313 4306 
L 4313 3634 
Q 3963 3931 3569 4081 
Q 3175 4231 2741 4231 
Q 1884 4231 1454 3753 
Q 1025 3275 1025 2328 
Q 1025 1384 1454 906 
Q 1884 428 2741 428 
Q 3075 428 3337 486 
Q 3600 544 3809 666 
z
" transform="scale(0.015625)"/>
      <path id="DejaVuSans-72" d="M 2631 2963 
Q 2534 3019 2420 3045 
Q 2306 3072 2169 3072 
Q 1681 3072 1420 2755 
Q 1159 2438 1159 1844 
L 1159 0 
L 581 0 
L 581 3500 
L 1159 3500 
L 1159 2956 
Q 1341 3275 1631 3429 
Q 1922 3584 2338 3584 
Q 2397 3584 2469 3576 
Q 2541 3569 2628 3553 
L 2631 2963 
z
" transform="scale(0.015625)"/>
      <path id="DejaVuSans-69" d="M 603 3500 
L 1178 3500 
L 1178 0 
L 603 0 
L 603 3500 
z
M 603 4863 
L 1178 4863 
L 1178 4134 
L 603 4134 
L 603 4863 
z
" transform="scale(0.015625)"/>
      <path id="DejaVuSans-64" d="M 2906 2969 
L 2906 4863 
L 3481 4863 
L 3481 0 
L 2906 0 
L 2906 525 
Q 2725 213 2448 61 
Q 2172 -91 1784 -91 
Q 1150 -91 751 415 
Q 353 922 353 1747 
Q 353 2572 751 3078 
Q 1150 3584 1784 3584 
Q 2172 3584 2448 3432 
Q 2725 3281 2906 2969 
z
M 947 1747 
Q 947 1113 1208 752 
Q 1469 391 1925 391 
Q 2381 391 2643 752 
Q 2906 1113 2906 1747 
Q 2906 2381 2643 2742 
Q 2381 3103 1925 3103 
Q 1469 3103 1208 2742 
Q 947 2381 947 1747 
z
" transform="scale(0.015625)"/>
      <path id="DejaVuSans-20" transform="scale(0.015625)"/>
      <path id="DejaVuSans-75" d="M 544 1381 
L 544 3500 
L 1119 3500 
L 1119 1403 
Q 1119 906 1312 657 
Q 1506 409 1894 409 
Q 2359 409 2629 706 
Q 2900 1003 2900 1516 
L 2900 3500 
L 3475 3500 
L 3475 0 
L 2900 0 
L 2900 538 
Q 2691 219 2414 64 
Q 2138 -91 1772 -91 
Q 1169 -91 856 284 
Q 544 659 544 1381 
z
M 1991 3584 
L 1991 3584 
z
" transform="scale(0.015625)"/>
      <path id="DejaVuSans-70" d="M 1159 525 
L 1159 -1331 
L 581 -1331 
L 581 3500 
L 1159 3500 
L 1159 2969 
Q 1341 3281 1617 3432 
Q 1894 3584 2278 3584 
Q 2916 3584 3314 3078 
Q 3713 2572 3713 1747 
Q 3713 922 3314 415 
Q 2916 -91 2278 -91 
Q 1894 -91 1617 61 
Q 1341 213 1159 525 
z
M 3116 1747 
Q 3116 2381 2855 2742 
Q 2594 3103 2138 3103 
Q 1681 3103 1420 2742 
Q 1159 2381 1159 1747 
Q 1159 1113 1420 752 
Q 1681 391 2138 391 
Q 2594 391 2855 752 
Q 3116 1113 3116 1747 
z
" transform="scale(0.015625)"/>
      <path id="DejaVuSans-61" d="M 2194 1759 
Q 1497 1759 1228 1600 
Q 959 1441 959 1056 
Q 959 750 1161 570 
Q 1363 391 1709 391 
Q 2188 391 2477 730 
Q 2766 1069 2766 1631 
L 2766 1759 
L 2194 1759 
z
M 3341 1997 
L 3341 0 
L 2766 0 
L 2766 531 
Q 2569 213 2275 61 
Q 1981 -91 1556 -91 
Q 1019 -91 701 211 
Q 384 513 384 1019 
Q 384 1609 779 1909 
Q 1175 2209 1959 2209 
L 2766 2209 
L 2766 2266 
Q 2766 2663 2505 2880 
Q 2244 3097 1772 3097 
Q 1472 3097 1187 3025 
Q 903 2953 641 2809 
L 641 3341 
Q 956 3463 1253 3523 
Q 1550 3584 1831 3584 
Q 2591 3584 2966 3190 
Q 3341 2797 3341 1997 
z
" transform="scale(0.015625)"/>
      <path id="DejaVuSans-74" d="M 1172 4494 
L 1172 3500 
L 2356 3500 
L 2356 3053 
L 1172 3053 
L 1172 1153 
Q 1172 725 1289 603 
Q 1406 481 1766 481 
L 2356 481 
L 2356 0 
L 1766 0 
Q 1100 0 847 248 
Q 594 497 594 1153 
L 594 3053 
L 172 3053 
L 172 3500 
L 594 3500 
L 594 4494 
L 1172 4494 
z
" transform="scale(0.015625)"/>
      <path id="DejaVuSans-65" d="M 3597 1894 
L 3597 1613 
L 953 1613 
Q 991 1019 1311 708 
Q 1631 397 2203 397 
Q 2534 397 2845 478 
Q 3156 559 3463 722 
L 3463 178 
Q 3153 47 2828 -22 
Q 2503 -91 2169 -91 
Q 1331 -91 842 396 
Q 353 884 353 1716 
Q 353 2575 817 3079 
Q 1281 3584 2069 3584 
Q 2775 3584 3186 3129 
Q 3597 2675 3597 1894 
z
M 3022 2063 
Q 3016 2534 2758 2815 
Q 2500 3097 2075 3097 
Q 1594 3097 1305 2825 
Q 1016 2553 972 2059 
L 3022 2063 
z
" transform="scale(0.015625)"/>
      <path id="DejaVuSans-28" d="M 1984 4856 
Q 1566 4138 1362 3434 
Q 1159 2731 1159 2009 
Q 1159 1288 1364 580 
Q 1569 -128 1984 -844 
L 1484 -844 
Q 1016 -109 783 600 
Q 550 1309 550 2009 
Q 550 2706 781 3412 
Q 1013 4119 1484 4856 
L 1984 4856 
z
" transform="scale(0.015625)"/>
      <path id="DejaVuSans-6c" d="M 603 4863 
L 1178 4863 
L 1178 0 
L 603 0 
L 603 4863 
z
" transform="scale(0.015625)"/>
      <path id="DejaVuSans-6f" d="M 1959 3097 
Q 1497 3097 1228 2736 
Q 959 2375 959 1747 
Q 959 1119 1226 758 
Q 1494 397 1959 397 
Q 2419 397 2687 759 
Q 2956 1122 2956 1747 
Q 2956 2369 2687 2733 
Q 2419 3097 1959 3097 
z
M 1959 3584 
Q 2709 3584 3137 3096 
Q 3566 2609 3566 1747 
Q 3566 888 3137 398 
Q 2709 -91 1959 -91 
Q 1206 -91 779 398 
Q 353 888 353 1747 
Q 353 2609 779 3096 
Q 1206 3584 1959 3584 
z
" transform="scale(0.015625)"/>
      <path id="DejaVuSans-63" d="M 3122 3366 
L 3122 2828 
Q 2878 2963 2633 3030 
Q 2388 3097 2138 3097 
Q 1578 3097 1268 2742 
Q 959 2388 959 1747 
Q 959 1106 1268 751 
Q 1578 397 2138 397 
Q 2388 397 2633 464 
Q 2878 531 3122 666 
L 3122 134 
Q 2881 22 2623 -34 
Q 2366 -91 2075 -91 
Q 1284 -91 818 406 
Q 353 903 353 1747 
Q 353 2603 823 3093 
Q 1294 3584 2113 3584 
Q 2378 3584 2631 3529 
Q 2884 3475 3122 3366 
z
" transform="scale(0.015625)"/>
      <path id="DejaVuSans-6b" d="M 581 4863 
L 1159 4863 
L 1159 1991 
L 2875 3500 
L 3609 3500 
L 1753 1863 
L 3688 0 
L 2938 0 
L 1159 1709 
L 1159 0 
L 581 0 
L 581 4863 
z
" transform="scale(0.015625)"/>
      <path id="DejaVuSans-6e" d="M 3513 2113 
L 3513 0 
L 2938 0 
L 2938 2094 
Q 2938 2591 2744 2837 
Q 2550 3084 2163 3084 
Q 1697 3084 1428 2787 
Q 1159 2491 1159 1978 
L 1159 0 
L 581 0 
L 581 3500 
L 1159 3500 
L 1159 2956 
Q 1366 3272 1645 3428 
Q 1925 3584 2291 3584 
Q 2894 3584 3203 3211 
Q 3513 2838 3513 2113 
z
" transform="scale(0.015625)"/>
      <path id="DejaVuSans-73" d="M 2834 3397 
L 2834 2853 
Q 2591 2978 2328 3040 
Q 2066 3103 1784 3103 
Q 1356 3103 1142 2972 
Q 928 2841 928 2578 
Q 928 2378 1081 2264 
Q 1234 2150 1697 2047 
L 1894 2003 
Q 2506 1872 2764 1633 
Q 3022 1394 3022 966 
Q 3022 478 2636 193 
Q 2250 -91 1575 -91 
Q 1294 -91 989 -36 
Q 684 19 347 128 
L 347 722 
Q 666 556 975 473 
Q 1284 391 1588 391 
Q 1994 391 2212 530 
Q 2431 669 2431 922 
Q 2431 1156 2273 1281 
Q 2116 1406 1581 1522 
L 1381 1569 
Q 847 1681 609 1914 
Q 372 2147 372 2553 
Q 372 3047 722 3315 
Q 1072 3584 1716 3584 
Q 2034 3584 2315 3537 
Q 2597 3491 2834 3397 
z
" transform="scale(0.015625)"/>
      <path id="DejaVuSans-29" d="M 513 4856 
L 1013 4856 
Q 1481 4119 1714 3412 
Q 1947 2706 1947 2009 
Q 1947 1309 1714 600 
Q 1481 -109 1013 -844 
L 513 -844 
Q 928 -128 1133 580 
Q 1338 1288 1338 2009 
Q 1338 2731 1133 3434 
Q 928 4138 513 4856 
z
" transform="scale(0.015625)"/>
     </defs>
     <use xlink:href="#DejaVuSans-47"/>
     <use xlink:href="#DejaVuSans-72" transform="translate(77.490234 0)"/>
     <use xlink:href="#DejaVuSans-69" transform="translate(118.603516 0)"/>
     <use xlink:href="#DejaVuSans-64" transform="translate(146.386719 0)"/>
     <use xlink:href="#DejaVuSans-20" transform="translate(209.863281 0)"/>
     <use xlink:href="#DejaVuSans-75" transform="translate(241.650391 0)"/>
     <use xlink:href="#DejaVuSans-70" transform="translate(305.029297 0)"/>
     <use xlink:href="#DejaVuSans-64" transform="translate(368.505859 0)"/>
     <use xlink:href="#DejaVuSans-61" transform="translate(431.982422 0)"/>
     <use xlink:href="#DejaVuSans-74" transform="translate(493.261719 0)"/>
     <use xlink:href="#DejaVuSans-65" transform="translate(532.470703 0)"/>
     <use xlink:href="#DejaVuSans-20" transform="translate(593.994141 0)"/>
     <use xlink:href="#DejaVuSans-28" transform="translate(625.78125 0)"/>
     <use xlink:href="#DejaVuSans-72" transform="translate(664.794922 0)"/>
     <use xlink:href="#DejaVuSans-65" transform="translate(703.658203 0)"/>
     <use xlink:href="#DejaVuSans-6c" transform="translate(765.181641 0)"/>
     <use xlink:href="#DejaVuSans-6f" transform="translate(792.964844 0)"/>
     <use xlink:href="#DejaVuSans-63" transform="translate(854.146484 0)"/>
     <use xlink:href="#DejaVuSans-61" transform="translate(909.126953 0)"/>
     <use xlink:href="#DejaVuSans-74" transform="translate(970.40625 0)"/>
     <use xlink:href="#DejaVuSans-65" transform="translate(1009.615234 0)"/>
     <use xlink:href="#DejaVuSans-20" transform="translate(1071.138672 0)"/>
     <use xlink:href="#DejaVuSans-6b" transform="translate(1102.925781 0)"/>
     <use xlink:href="#DejaVuSans-6e" transform="translate(1160.835938 0)"/>
     <use xlink:href="#DejaVuSans-6f" transform="translate(1224.214844 0)"/>
     <use xlink:href="#DejaVuSans-74" transform="translate(1285.396484 0)"/>
     <use xlink:href="#DejaVuSans-73" transform="translate(1324.605469 0)"/>
     <use xlink:href="#DejaVuSans-29" transform="translate(1376.705078 0)"/>
    </g>
   </g>
   <g id="legend_1">
    <g id="line2d_3">
     <path d="M 17.1 246.444844 
L 24.1 246.444844 
L 31.1 246.444844 
" style="fill: none; stroke: #1f77b4; stroke-width: 2; stroke-linecap: square"/>
    </g>
    <g id="text_2">
     <!-- target -->
     <g transform="translate(36.7 248.894844) scale(0.07 -0.07)">
      <defs>
       <path id="DejaVuSans-67" d="M 2906 1791 
Q 2906 2416 2648 2759 
Q 2391 3103 1925 3103 
Q 1463 3103 1205 2759 
Q 947 2416 947 1791 
Q 947 1169 1205 825 
Q 1463 481 1925 481 
Q 2391 481 2648 825 
Q 2906 1169 2906 1791 
z
M 3481 434 
Q 3481 -459 3084 -895 
Q 2688 -1331 1869 -1331 
Q 1566 -1331 1297 -1286 
Q 1028 -1241 775 -1147 
L 775 -588 
Q 1028 -725 1275 -790 
Q 1522 -856 1778 -856 
Q 2344 -856 2625 -561 
Q 2906 -266 2906 331 
L 2906 616 
Q 2728 306 2450 153 
Q 2172 0 1784 0 
Q 1141 0 747 490 
Q 353 981 353 1791 
Q 353 2603 747 3093 
Q 1141 3584 1784 3584 
Q 2172 3584 2450 3431 
Q 2728 3278 2906 2969 
L 2906 3500 
L 3481 3500 
L 3481 434 
z
" transform="scale(0.015625)"/>
      </defs>
      <use xlink:href="#DejaVuSans-74"/>
      <use xlink:href="#DejaVuSans-61" transform="translate(39.208984 0)"/>
      <use xlink:href="#DejaVuSans-72" transform="translate(100.488281 0)"/>
      <use xlink:href="#DejaVuSans-67" transform="translate(139.851562 0)"/>
      <use xlink:href="#DejaVuSans-65" transform="translate(203.328125 0)"/>
      <use xlink:href="#DejaVuSans-74" transform="translate(264.851562 0)"/>
     </g>
    </g>
    <g id="PathCollection_2">
     <g>
      <use xlink:href="#m4025127893" x="24.1" y="257.332031" style="fill: #ff7f0e; stroke: #ff7f0e"/>
     </g>
    </g>
    <g id="text_3">
     <!-- relocated knots -->
     <g transform="translate(36.7 259.169531) scale(0.07 -0.07)">
      <use xlink:href="#DejaVuSans-72"/>
      <use xlink:href="#DejaVuSans-65" transform="translate(38.863281 0)"/>
      <use xlink:href="#DejaVuSans-6c" transform="translate(100.386719 0)"/>
      <use xlink:href="#DejaVuSans-6f" transform="translate(128.169922 0)"/>
      <use xlink:href="#DejaVuSans-63" transform="translate(189.351562 0)"/>
      <use xlink:href="#DejaVuSans-61" transform="translate(244.332031 0)"/>
      <use xlink:href="#DejaVuSans-74" transform="translate(305.611328 0)"/>
      <use xlink:href="#DejaVuSans-65" transform="translate(344.820312 0)"/>
      <use xlink:href="#DejaVuSans-64" transform="translate(406.34375 0)"/>
      <use xlink:href="#DejaVuSans-20" transform="translate(469.820312 0)"/>
      <use xlink:href="#DejaVuSans-6b" transform="translate(501.607422 0)"/>
      <use xlink:href="#DejaVuSans-6e" transform="translate(559.517578 0)"/>
      <use xlink:href="#DejaVuSans-6f" transform="translate(622.896484 0)"/>
      <use xlink:href="#DejaVuSans-74" transform="translate(684.078125 0)"/>
      <use xlink:href="#DejaVuSans-73" transform="translate(723.287109 0)"/>
     </g>
    </g>
    <g id="line2d_4">
     <path d="M 17.1 266.994219 
L 24.1 266.994219 
L 31.1 266.994219 
" style="fill: none; stroke-dasharray: 5.55,2.4; stroke-dashoffset: 0; stroke: #ff7f0e; stroke-width: 1.5"/>
    </g>
    <g id="text_4">
     <!-- approx -->
     <g transform="translate(36.7 269.444219) scale(0.07 -0.07)">
      <defs>
       <path id="DejaVuSans-78" d="M 3513 3500 
L 2247 1797 
L 3578 0 
L 2900 0 
L 1881 1375 
L 863 0 
L 184 0 
L 1544 1831 
L 300 3500 
L 978 3500 
L 1906 2253 
L 2834 3500 
L 3513 3500 
z
" transform="scale(0.015625)"/>
      </defs>
      <use xlink:href="#DejaVuSans-61"/>
      <use xlink:href="#DejaVuSans-70" transform="translate(61.279297 0)"/>
      <use xlink:href="#DejaVuSans-70" transform="translate(124.755859 0)"/>
      <use xlink:href="#DejaVuSans-72" transform="translate(188.232422 0)"/>
      <use xlink:href="#DejaVuSans-6f" transform="translate(227.095703 0)"/>
      <use xlink:href="#DejaVuSans-78" transform="translate(285.152344 0)"/>
     </g>
    </g>
   </g>
  </g>
  <g id="axes_2">
   <g id="patch_3">
    <path d="M 365.4 277.2 
L 709.2 277.2 
L 709.2 24.72 
L 365.4 24.72 
z
" style="fill: #ffffff"/>
   </g>
   <g id="matplotlib.axis_3"/>
   <g id="matplotlib.axis_4"/>
   <g id="line2d_5">
    <path d="M 365.4 128.007273 
L 368.84489 123.856693 
L 372.28978 120.08383 
L 375.734669 116.697198 
L 378.490581 114.268049 
L 381.246493 112.086854 
L 384.002405 110.150282 
L 386.758317 108.452898 
L 389.514228 106.987287 
L 392.27014 105.744189 
L 395.026052 104.712653 
L 397.781964 103.880212 
L 401.226854 103.098495 
L 404.671743 102.57681 
L 408.116633 102.283606 
L 412.250501 102.186781 
L 416.384369 102.31285 
L 421.896192 102.726734 
L 430.852906 103.683628 
L 439.809619 104.568479 
L 446.010421 104.946385 
L 451.522244 105.054432 
L 457.034068 104.932148 
L 462.545892 104.595721 
L 469.435671 103.946638 
L 484.593186 102.417212 
L 489.416032 102.1997 
L 493.5499 102.235288 
L 496.99479 102.466338 
L 500.439679 102.916086 
L 503.884569 103.616596 
L 506.640481 104.377871 
L 509.396393 105.333209 
L 512.152305 106.495603 
L 514.908216 107.876592 
L 517.664128 109.486089 
L 520.42004 111.33222 
L 523.175952 113.421175 
L 525.931864 115.757089 
L 528.687776 118.341928 
L 532.132665 121.92238 
L 535.577555 125.885526 
L 539.022445 130.219967 
L 542.467335 134.90853 
L 546.601202 140.969632 
L 550.73507 147.457375 
L 555.557916 155.483819 
L 561.069739 165.119351 
L 570.026453 181.333754 
L 578.294188 196.195597 
L 583.806012 205.642756 
L 587.93988 212.318117 
L 591.38477 217.534637 
L 594.829659 222.379732 
L 598.274549 226.803618 
L 601.030461 230.00845 
L 603.786373 232.892758 
L 606.542285 235.437101 
L 609.298196 237.624239 
L 611.36513 239.021129 
L 613.432064 240.203302 
L 615.498998 241.166205 
L 617.565932 241.906123 
L 619.632866 242.420197 
L 621.6998 242.706441 
L 623.766733 242.763745 
L 625.833667 242.591888 
L 627.900601 242.191535 
L 629.967535 241.564236 
L 632.034469 240.712414 
L 634.101403 239.639359 
L 636.168337 238.349207 
L 638.235271 236.84692 
L 640.991182 234.523956 
L 643.747094 231.849984 
L 646.503006 228.843088 
L 649.258918 225.523493 
L 652.703808 220.968234 
L 656.148697 216.006326 
L 660.282565 209.587017 
L 664.416433 202.748745 
L 669.928257 193.148422 
L 678.195992 178.19622 
L 687.841683 160.854135 
L 693.353507 151.415122 
L 698.176353 143.624266 
L 702.31022 137.378675 
L 705.75511 132.521281 
L 709.2 128.007273 
L 709.2 128.007273 
" clip-path="url(#p06da80af74)" style="fill: none; stroke: #1f77b4; stroke-width: 2; stroke-linecap: square"/>
   </g>
   <g id="line2d_6">
    <path d="M 365.4 128.007273 
L 434.297796 104.03972 
L 502.506613 103.398587 
L 503.195591 103.719135 
L 571.404409 184.016374 
L 572.782365 185.153225 
L 640.302204 234.913848 
L 640.991182 234.15762 
L 709.2 128.007273 
L 709.2 128.007273 
" clip-path="url(#p06da80af74)" style="fill: none; stroke-dasharray: 4.81,2.08; stroke-dashoffset: 0; stroke: #ff7f0e; stroke-width: 1.3"/>
   </g>
   <g id="line2d_7">
    <path d="M 365.4 128.007273 
L 393.648096 105.378055 
L 394.337074 105.033524 
L 423.274148 102.848679 
L 451.522244 105.040674 
L 480.459319 102.839768 
L 508.707415 105.10103 
L 536.955511 127.733091 
L 537.644489 128.561041 
L 567.959519 177.290373 
L 594.140681 221.295425 
L 594.829659 222.233384 
L 623.077756 242.644066 
L 623.766733 242.395167 
L 652.01483 221.875124 
L 683.018838 169.957151 
L 709.2 128.007273 
L 709.2 128.007273 
" clip-path="url(#p06da80af74)" style="fill: none; stroke-dasharray: 8.96,2.24,1.4,2.24; stroke-dashoffset: 0; stroke: #2ca02c; stroke-width: 1.4"/>
   </g>
   <g id="PathCollection_3">
    <defs>
     <path id="me71915289c" d="M 0 2 
C 0.530406 2 1.03916 1.789267 1.414214 1.414214 
C 1.789267 1.03916 2 0.530406 2 0 
C 2 -0.530406 1.789267 -1.03916 1.414214 -1.414214 
C 1.03916 -1.789267 0.530406 -2 0 -2 
C -0.530406 -2 -1.03916 -1.789267 -1.414214 -1.414214 
C -1.789267 -1.03916 -2 -0.530406 -2 0 
C -2 0.530406 -1.789267 1.03916 -1.414214 1.414214 
C -1.03916 1.789267 -0.530406 2 0 2 
z
" style="stroke: #ff7f0e"/>
    </defs>
    <g clip-path="url(#p06da80af74)">
     <use xlink:href="#me71915289c" x="365.4" y="128.007273" style="fill: #ff7f0e; stroke: #ff7f0e"/>
     <use xlink:href="#me71915289c" x="434.16" y="104.041015" style="fill: #ff7f0e; stroke: #ff7f0e"/>
     <use xlink:href="#me71915289c" x="502.92" y="103.394701" style="fill: #ff7f0e; stroke: #ff7f0e"/>
     <use xlink:href="#me71915289c" x="571.68" y="184.340807" style="fill: #ff7f0e; stroke: #ff7f0e"/>
     <use xlink:href="#me71915289c" x="640.44" y="235.0154" style="fill: #ff7f0e; stroke: #ff7f0e"/>
     <use xlink:href="#me71915289c" x="709.2" y="128.007273" style="fill: #ff7f0e; stroke: #ff7f0e"/>
    </g>
   </g>
   <g id="PathCollection_4">
    <defs>
     <path id="mb59dd5cdbc" d="M 0 1.732051 
C 0.459345 1.732051 0.899939 1.549551 1.224745 1.224745 
C 1.549551 0.899939 1.732051 0.459345 1.732051 0 
C 1.732051 -0.459345 1.549551 -0.899939 1.224745 -1.224745 
C 0.899939 -1.549551 0.459345 -1.732051 0 -1.732051 
C -0.459345 -1.732051 -0.899939 -1.549551 -1.224745 -1.224745 
C -1.549551 -0.899939 -1.732051 -0.459345 -1.732051 0 
C -1.732051 0.459345 -1.549551 0.899939 -1.224745 1.224745 
C -0.899939 1.549551 -0.459345 1.732051 0 1.732051 
z
" style="stroke: #2ca02c"/>
    </defs>
    <g clip-path="url(#p06da80af74)">
     <use xlink:href="#mb59dd5cdbc" x="365.4" y="128.007273" style="fill: #2ca02c; stroke: #2ca02c"/>
     <use xlink:href="#mb59dd5cdbc" x="394.05" y="105.056095" style="fill: #2ca02c; stroke: #2ca02c"/>
     <use xlink:href="#mb59dd5cdbc" x="422.7" y="102.803576" style="fill: #2ca02c; stroke: #2ca02c"/>
     <use xlink:href="#mb59dd5cdbc" x="451.35" y="105.054204" style="fill: #2ca02c; stroke: #2ca02c"/>
     <use xlink:href="#mb59dd5cdbc" x="480" y="102.803674" style="fill: #2ca02c; stroke: #2ca02c"/>
     <use xlink:href="#mb59dd5cdbc" x="508.65" y="105.05503" style="fill: #2ca02c; stroke: #2ca02c"/>
     <use xlink:href="#mb59dd5cdbc" x="537.3" y="128.009092" style="fill: #2ca02c; stroke: #2ca02c"/>
     <use xlink:href="#mb59dd5cdbc" x="565.95" y="173.912792" style="fill: #2ca02c; stroke: #2ca02c"/>
     <use xlink:href="#mb59dd5cdbc" x="594.6" y="222.067444" style="fill: #2ca02c; stroke: #2ca02c"/>
     <use xlink:href="#mb59dd5cdbc" x="623.25" y="242.768521" style="fill: #2ca02c; stroke: #2ca02c"/>
     <use xlink:href="#mb59dd5cdbc" x="651.9" y="222.06813" style="fill: #2ca02c; stroke: #2ca02c"/>
     <use xlink:href="#mb59dd5cdbc" x="680.55" y="173.912951" style="fill: #2ca02c; stroke: #2ca02c"/>
     <use xlink:href="#mb59dd5cdbc" x="709.2" y="128.007273" style="fill: #2ca02c; stroke: #2ca02c"/>
    </g>
   </g>
   <g id="text_5">
    <!-- Grid extension (add knots) -->
    <g transform="translate(470.661719 18.72) scale(0.1 -0.1)">
     <use xlink:href="#DejaVuSans-47"/>
     <use xlink:href="#DejaVuSans-72" transform="translate(77.490234 0)"/>
     <use xlink:href="#DejaVuSans-69" transform="translate(118.603516 0)"/>
     <use xlink:href="#DejaVuSans-64" transform="translate(146.386719 0)"/>
     <use xlink:href="#DejaVuSans-20" transform="translate(209.863281 0)"/>
     <use xlink:href="#DejaVuSans-65" transform="translate(241.650391 0)"/>
     <use xlink:href="#DejaVuSans-78" transform="translate(301.423828 0)"/>
     <use xlink:href="#DejaVuSans-74" transform="translate(360.603516 0)"/>
     <use xlink:href="#DejaVuSans-65" transform="translate(399.8125 0)"/>
     <use xlink:href="#DejaVuSans-6e" transform="translate(461.335938 0)"/>
     <use xlink:href="#DejaVuSans-73" transform="translate(524.714844 0)"/>
     <use xlink:href="#DejaVuSans-69" transform="translate(576.814453 0)"/>
     <use xlink:href="#DejaVuSans-6f" transform="translate(604.597656 0)"/>
     <use xlink:href="#DejaVuSans-6e" transform="translate(665.779297 0)"/>
     <use xlink:href="#DejaVuSans-20" transform="translate(729.158203 0)"/>
     <use xlink:href="#DejaVuSans-28" transform="translate(760.945312 0)"/>
     <use xlink:href="#DejaVuSans-61" transform="translate(799.958984 0)"/>
     <use xlink:href="#DejaVuSans-64" transform="translate(861.238281 0)"/>
     <use xlink:href="#DejaVuSans-64" transform="translate(924.714844 0)"/>
     <use xlink:href="#DejaVuSans-20" transform="translate(988.191406 0)"/>
     <use xlink:href="#DejaVuSans-6b" transform="translate(1019.978516 0)"/>
     <use xlink:href="#DejaVuSans-6e" transform="translate(1077.888672 0)"/>
     <use xlink:href="#DejaVuSans-6f" transform="translate(1141.267578 0)"/>
     <use xlink:href="#DejaVuSans-74" transform="translate(1202.449219 0)"/>
     <use xlink:href="#DejaVuSans-73" transform="translate(1241.658203 0)"/>
     <use xlink:href="#DejaVuSans-29" transform="translate(1293.757812 0)"/>
    </g>
   </g>
   <g id="legend_2">
    <g id="line2d_8">
     <path d="M 371.7 246.444844 
L 378.7 246.444844 
L 385.7 246.444844 
" style="fill: none; stroke: #1f77b4; stroke-width: 2; stroke-linecap: square"/>
    </g>
    <g id="text_6">
     <!-- target -->
     <g transform="translate(391.3 248.894844) scale(0.07 -0.07)">
      <use xlink:href="#DejaVuSans-74"/>
      <use xlink:href="#DejaVuSans-61" transform="translate(39.208984 0)"/>
      <use xlink:href="#DejaVuSans-72" transform="translate(100.488281 0)"/>
      <use xlink:href="#DejaVuSans-67" transform="translate(139.851562 0)"/>
      <use xlink:href="#DejaVuSans-65" transform="translate(203.328125 0)"/>
      <use xlink:href="#DejaVuSans-74" transform="translate(264.851562 0)"/>
     </g>
    </g>
    <g id="line2d_9">
     <path d="M 371.7 256.719531 
L 378.7 256.719531 
L 385.7 256.719531 
" style="fill: none; stroke-dasharray: 4.81,2.08; stroke-dashoffset: 0; stroke: #ff7f0e; stroke-width: 1.3"/>
    </g>
    <g id="text_7">
     <!-- coarse -->
     <g transform="translate(391.3 259.169531) scale(0.07 -0.07)">
      <use xlink:href="#DejaVuSans-63"/>
      <use xlink:href="#DejaVuSans-6f" transform="translate(54.980469 0)"/>
      <use xlink:href="#DejaVuSans-61" transform="translate(116.162109 0)"/>
      <use xlink:href="#DejaVuSans-72" transform="translate(177.441406 0)"/>
      <use xlink:href="#DejaVuSans-73" transform="translate(218.554688 0)"/>
      <use xlink:href="#DejaVuSans-65" transform="translate(270.654297 0)"/>
     </g>
    </g>
    <g id="line2d_10">
     <path d="M 371.7 266.994219 
L 378.7 266.994219 
L 385.7 266.994219 
" style="fill: none; stroke-dasharray: 8.96,2.24,1.4,2.24; stroke-dashoffset: 0; stroke: #2ca02c; stroke-width: 1.4"/>
    </g>
    <g id="text_8">
     <!-- extended -->
     <g transform="translate(391.3 269.444219) scale(0.07 -0.07)">
      <use xlink:href="#DejaVuSans-65"/>
      <use xlink:href="#DejaVuSans-78" transform="translate(59.773438 0)"/>
      <use xlink:href="#DejaVuSans-74" transform="translate(118.953125 0)"/>
      <use xlink:href="#DejaVuSans-65" transform="translate(158.162109 0)"/>
      <use xlink:href="#DejaVuSans-6e" transform="translate(219.685547 0)"/>
      <use xlink:href="#DejaVuSans-64" transform="translate(283.064453 0)"/>
      <use xlink:href="#DejaVuSans-65" transform="translate(346.541016 0)"/>
      <use xlink:href="#DejaVuSans-64" transform="translate(408.064453 0)"/>
     </g>
    </g>
   </g>
  </g>
 </g>
 <defs>
  <clipPath id="p4217a4da9b">
   <rect x="10.8" y="24.72" width="343.8" height="252.48"/>
  </clipPath>
  <clipPath id="p06da80af74">
   <rect x="365.4" y="24.72" width="343.8" height="252.48"/>
  </clipPath>
 </defs>
</svg>
