<?xml version="1.0" encoding="UTF-8" standalone="no"?>
<svg
   width="466.370349pt"
   height="209.865947pt"
   viewBox="7.634773 6.193049 466.370339 209.865947"
   version="1.1"
   id="svg77"
   sodipodi:docname="kan_grid_update_vs_extension.svg"
   inkscape:version="1.4 (e7c3feb1, 2024-10-09)"
   xmlns:inkscape="http://www.inkscape.org/namespaces/inkscape"
   xmlns:sodipodi="http://sodipodi.sourceforge.net/DTD/sodipodi-0.dtd"
   xmlns:xlink="http://www.w3.org/1999/xlink"
   xmlns="http://www.w3.org/2000/svg"
   xmlns:svg="http://www.w3.org/2000/svg"
   xmlns:rdf="http://www.w3.org/1999/02/22-rdf-syntax-ns#"
   xmlns:cc="http://creativecommons.org/ns#"
   xmlns:dc="http://purl.org/dc/elements/1.1/">
  <sodipodi:namedview
     id="namedview77"
     pagecolor="#ffffff"
     bordercolor="#000000"
     borderopacity="0.25"
     inkscape:showpageshadow="2"
     inkscape:pageopacity="0.0"
     inkscape:pagecheckerboard="0"
     inkscape:deskcolor="#d1d1d1"
     inkscape:document-units="pt"
     inkscape:zoom="1.5527184"
     inkscape:cx="374.50449"
     inkscape:cy="51.200527"
     inkscape:window-width="1920"
     inkscape:window-height="1080"
     inkscape:window-x="0"
     inkscape:window-y="537"
     inkscape:window-maximized="0"
     inkscape:current-layer="axes_2" />
  <metadata
     id="metadata1">
    <rdf:RDF>
      <cc:Work>
        <dc:type
           rdf:resource="http://purl.org/dc/dcmitype/StillImage" />
        <dc:date>2026-01-12T21:18:15.230394</dc:date>
        <dc:format>image/svg+xml</dc:format>
        <dc:creator>
          <cc:Agent>
            <dc:title>Matplotlib v3.10.1, https://matplotlib.org/</dc:title>
          </cc:Agent>
        </dc:creator>
      </cc:Work>
    </rdf:RDF>
  </metadata>
  <defs
     id="defs1">
    <style
       type="text/css"
       id="style1">*{stroke-linejoin: round; stroke-linecap: butt}</style>
  </defs>
  <g
     id="figure_1">
    <g
       id="patch_1">
      <path
         d="M 0,224.46672 H 481.45711 V 0 H 0 Z"
         style="fill:none"
         id="path1" />
    </g>
    <g
       id="axes_1">
      <g
         id="patch_2">
        <path
           d="M 13.833984,187.87828 H 214.51819 V 21.558281 H 13.833984 Z"
           style="fill:none"
           id="path2" />
      </g>
      <g
         id="FillBetweenPolyCollection_1">
        <defs
           id="defs2">
          <path
             id="m0464d90818"
             d="m 13.833984,-36.791714 v 0.203277 h 0.25117 0.251169 0.251169 0.251169 0.251169 0.25117 0.251169 0.251169 0.251169 0.25117 0.251169 0.251169 0.251169 0.25117 0.251169 0.251169 0.251169 0.251169 0.25117 0.251169 0.251169 0.251169 0.25117 0.251169 0.251169 0.251169 0.251169 0.25117 0.251169 0.251169 0.251169 0.25117 0.251169 0.251169 0.251169 0.251169 0.25117 0.251169 0.251169 0.251169 0.25117 0.251169 0.251169 0.251169 0.251169 0.25117 0.251169 0.251169 0.251169 0.25117 0.251169 0.251169 0.251169 0.25117 0.251169 0.251169 0.251169 0.251169 0.25117 0.251169 0.251169 0.251169 0.25117 0.251169 0.251169 0.251169 0.251169 0.25117 0.251169 0.251169 0.251169 0.25117 0.251169 0.251169 0.251169 0.251169 0.25117 0.251169 0.251169 0.251169 0.25117 0.251169 0.251169 0.251169 0.251169 0.25117 0.251169 0.251169 0.251169 0.25117 0.251169 0.251169 0.251169 0.251169 0.25117 0.251169 0.251169 0.251169 0.25117 0.251169 0.251169 0.251169 0.25117 0.251169 0.251169 0.251169 0.251169 0.25117 0.251169 0.251169 0.251169 0.25117 0.251169 0.251169 0.251169 0.251169 0.25117 0.251169 0.251169 0.251169 0.25117 0.251169 0.251169 0.251169 0.251169 0.25117 0.251169 0.251169 0.251169 0.25117 0.251169 0.251169 0.251169 0.251169 0.25117 0.251169 0.251169 0.251169 0.25117 0.251169 0.251169 0.251169 0.25117 0.251169 0.251169 0.251169 0.251169 0.25117 0.251169 0.251169 0.251169 0.25117 0.251169 0.251169 0.251169 0.251169 0.25117 0.251169 0.251169 0.251169 0.25117 0.251169 0.251169 0.251169 0.251169 0.25117 0.251169 0.251169 0.251169 0.25117 0.251169 0.251169 0.251169 0.251169 0.25117 0.251169 0.251169 0.251169 0.25117 0.251169 0.251169 0.251169 0.251169 0.25117 0.251169 0.251169 0.251169 0.25117 0.251169 0.251169 0.251169 0.25117 0.251169 0.251169 0.251169 0.251169 0.25117 0.251169 0.251169 0.251169 0.25117 0.251169 0.251169 0.251169 0.251169 0.25117 0.251169 0.251169 0.251169 0.25117 0.251169 0.251169 0.251169 0.251169 0.25117 0.251169 0.251169 0.251169 0.25117 0.251169 0.251169 0.251169 0.251169 0.25117 0.251169 0.251169 0.251169 0.25117 0.251169 0.251169 0.251169 0.25117 0.251169 0.251169 0.251169 0.251169 0.25117 0.251169 0.251169 0.251169 0.25117 0.251169 0.251169 0.251169 0.251169 0.25117 0.251169 0.251169 0.251169 0.25117 0.251169 0.251169 0.251169 0.251169 0.25117 0.251169 0.251169 0.251169 0.25117 0.251169 0.251169 0.251169 0.251169 0.25117 0.251169 0.251169 0.251169 0.25117 0.251169 0.251169 0.251169 0.251169 0.25117 0.251169 0.251169 0.251169 0.25117 0.251169 0.251169 0.251169 0.25117 0.251169 0.251169 0.251169 0.251169 0.25117 0.251169 0.251169 0.251169 0.25117 0.251169 0.251169 0.251169 0.251169 0.25117 0.251169 0.251169 0.251169 0.25117 0.251169 0.251169 0.251169 0.251169 0.25117 0.251169 0.251169 0.251169 0.25117 0.251169 0.251169 0.251169 0.251169 0.25117 0.251169 0.251169 0.251169 0.25117 0.251169 0.251169 0.251169 0.25117 0.251169 0.251169 0.251169 0.251169 0.25117 0.251169 0.251169 0.251169 0.25117 0.251169 0.251169 0.251169 0.251169 0.25117 0.251169 0.251169 0.251169 0.25117 0.251169 0.251169 0.251169 0.251169 0.251172 0.25117 0.25117 0.25117 0.25117 0.25116 0.25117 0.25117 0.25117 0.25117 0.25117 0.25117 0.25117 0.25117 0.25117 0.25117 0.25116 0.25117 0.25117 0.25117 0.25117 0.25117 0.25117 0.25117 0.25117 0.25117 0.25117 0.25117 0.25117 0.25117 0.25116 0.25117 0.25117 0.25117 0.25117 0.25117 0.25117 0.25117 0.25117 0.25117 0.25117 0.25117 0.25116 0.25117 0.25117 0.25117 0.25117 0.25117 0.25117 0.25117 0.25117 0.25117 0.25117 0.25117 0.25117 0.25117 0.25116 0.25117 0.25117 0.25117 0.25117 0.25117 0.25117 0.25117 0.25117 0.25117 0.25117 0.25117 0.25116 0.25117 0.25117 0.25117 0.25117 0.25117 0.25117 0.25117 0.25117 0.25117 0.25117 0.25117 0.25117 0.25117 0.25116 0.25117 0.25117 0.25117 0.25117 0.25117 0.25117 0.25117 0.25117 0.25117 0.25117 0.25117 0.25116 0.25117 0.25117 0.25117 0.25117 0.25117 0.25117 0.25117 0.25117 0.25117 0.25117 0.25117 0.25117 0.25117 0.25116 0.25117 0.25117 0.25117 0.25117 0.25117 0.25117 0.25117 0.25117 0.25117 0.25117 0.25116 0.25117 0.25117 0.25117 0.25117 0.25117 0.25117 0.25117 0.25117 0.25117 0.25117 0.25117 0.25117 0.25116 0.25117 0.25117 0.25117 0.25117 0.25117 0.25117 0.25117 0.25117 0.25117 0.25117 0.25117 0.25117 0.25116 0.25117 0.25117 0.25117 0.25117 0.25117 0.25117 0.25117 0.25117 0.25117 0.25117 0.25117 0.25117 0.25116 0.25117 0.25117 0.25117 0.25117 0.25117 0.25117 0.25117 0.25117 0.25117 0.25117 0.25117 0.25117 0.25116 0.25117 0.25117 0.25117 0.25117 0.25117 0.25117 0.25117 0.25117 0.25117 0.25117 0.25117 0.25117 0.25116 0.25117 0.25117 0.25117 0.25117 0.25117 0.25117 0.25117 0.25117 0.25117 0.25117 0.25117 0.25117 0.25116 0.25117 0.25117 0.25117 0.25117 0.25117 0.25117 0.25117 0.25117 0.25117 0.25117 0.25117 0.25117 0.25116 0.25117 0.25117 0.25117 0.25117 0.25117 0.25117 0.25117 0.25117 0.25117 0.25117 0.25117 0.25117 0.25116 0.25117 0.25117 0.25117 0.25117 0.25117 0.25117 0.25117 0.25117 0.25117 0.25117 0.25117 0.25116 0.25117 0.25117 0.25117 0.25117 0.25117 0.25117 0.25117 0.25117 0.25117 0.25117 0.25117 0.25117 0.25116 0.25117 0.25117 0.25117 0.25117 0.25117 0.25117 0.25117 0.25117 0.25117 0.25117 0.25117 0.25117 0.25117 0.25116 0.25117 0.25117 0.25117 0.25117 0.25117 0.25117 0.25117 0.25117 0.25117 0.25117 0.25117 0.25116 0.25117 0.25117 0.25117 0.25117 0.25117 0.25117 0.25117 0.25117 0.25117 0.25117 0.25117 0.25117 0.25116 0.25117 0.25117 0.25117 0.25117 0.25117 0.25117 0.25117 0.25117 0.25117 0.25117 0.25117 0.25117 0.25116 0.25117 0.25117 0.25117 0.25117 0.25117 0.25117 0.25117 0.25117 0.25117 0.25117 0.25117 0.25117 0.25117 0.25116 0.25117 0.25117 0.25117 0.25117 0.25117 0.25117 0.25117 0.25117 0.25117 0.25117 0.25117 0.25116 0.25117 0.25117 0.25117 0.25117 0.25117 0.25117 0.25117 0.25117 0.25117 0.25117 0.25117 0.25117 0.25116 0.25117 0.25117 0.25117 0.25117 0.25117 0.25117 0.25117 0.25117 0.25117 0.25117 0.25117 0.25117 0.25116 0.25117 0.25117 0.25117 0.25117 0.25117 0.25117 0.25117 0.25117 0.25117 0.25117 0.25117 0.25116 0.25118 0.25116 0.25117 0.25117 0.25117 0.25117 0.25117 0.25117 0.25117 0.25117 0.25117 0.25117 0.25116 0.25117 0.25117 0.25117 0.25117 0.25117 0.25117 0.25117 0.25117 0.25117 0.25117 0.25117 0.25117 0.25116 0.25117 0.25117 0.25117 0.25117 0.25117 0.25117 0.25117 0.25117 0.25117 0.25117 0.25117 0.25117 0.25116 0.25117 0.25117 0.25117 0.25117 0.25117 0.25117 0.25117 0.25117 0.25117 0.25117 0.25117 0.25117 0.25116 0.25117 0.25117 0.25117 0.25117 0.25117 0.25117 0.25117 0.25117 0.25117 0.25117 0.25117 0.25117 0.25116 0.25117 0.25117 0.25117 0.25117 0.25117 0.25117 0.25117 0.25117 0.25117 0.25117 0.25117 0.25117 0.25116 0.25117 0.25117 0.25117 0.25117 0.25117 0.25117 0.25117 0.25117 0.25117 0.25117 0.25117 0.25117 0.25116 v -5.91e-4 0 l -0.25116,-6.6e-5 -0.25117,-7.4e-5 -0.25117,-8.2e-5 -0.25117,-9.1e-5 -0.25117,-1e-4 -0.25117,-1.11e-4 -0.25117,-1.22e-4 -0.25117,-1.35e-4 -0.25117,-1.5e-4 -0.25117,-1.65e-4 -0.25117,-1.81e-4 -0.25117,-2.01e-4 -0.25117,-2.21e-4 -0.25116,-2.44e-4 -0.25117,-2.68e-4 -0.25117,-2.95e-4 -0.25117,-3.24e-4 -0.25117,-3.57e-4 -0.25117,-3.92e-4 -0.25117,-4.31e-4 -0.25117,-4.73e-4 -0.25117,-5.19e-4 -0.25117,-5.69e-4 -0.25117,-6.24e-4 -0.25117,-6.83e-4 -0.25117,-7.49e-4 -0.25116,-8.2e-4 -0.25117,-8.96e-4 -0.25117,-9.81e-4 -0.25117,-0.0011 -0.25117,-0.0012 -0.25117,-0.0013 -0.25117,-0.0014 -0.25117,-0.0015 -0.25117,-0.0017 -0.25117,-0.0018 -0.25117,-0.002 -0.25117,-0.0021 -0.25117,-0.0023 -0.25116,-0.0025 -0.25117,-0.0028 -0.25117,-0.003 -0.25117,-0.0033 -0.25117,-0.0035 -0.25117,-0.0038 -0.25117,-0.0042 -0.25117,-0.0045 -0.25117,-0.0049 -0.25117,-0.0053 -0.25117,-0.0057 -0.25117,-0.0062 -0.25117,-0.0067 -0.25116,-0.0073 -0.25117,-0.0078 -0.25117,-0.0085 -0.25117,-0.0091 -0.25117,-0.0099 -0.25117,-0.01064 -0.25117,-0.01147 -0.25117,-0.01235 -0.25117,-0.0133 -0.25117,-0.01431 -0.25117,-0.01539 -0.25117,-0.01655 -0.25117,-0.01778 -0.25116,-0.0191 -0.25117,-0.0205 -0.25117,-0.022 -0.25117,-0.02359 -0.25117,-0.02529 -0.25117,-0.02709 -0.25117,-0.02901 -0.25117,-0.03105 -0.25117,-0.03321 -0.25117,-0.03551 -0.25117,-0.03795 -0.25117,-0.04054 -0.25117,-0.04328 -0.25116,-0.04618 -0.25117,-0.04926 -0.25117,-0.05251 -0.25117,-0.05594 -0.25117,-0.05958 -0.25117,-0.06341 -0.25117,-0.06746 -0.25117,-0.07173 -0.25117,-0.07624 -0.25117,-0.08098 -0.25117,-0.08598 -0.25116,-0.09124 -0.25118,-0.09677 -0.25116,-0.10258 -0.25117,-0.108687 -0.25117,-0.1151 -0.25117,-0.121827 -0.25117,-0.128884 -0.25117,-0.136277 -0.25117,-0.144022 -0.25117,-0.152127 -0.25117,-0.160608 -0.25117,-0.169471 -0.25117,-0.178734 -0.25117,-0.188403 -0.25116,-0.198493 -0.25117,-0.209014 -0.25117,-0.21998 -0.25117,-0.231399 -0.25117,-0.243283 -0.25117,-0.255645 -0.25117,-0.268493 -0.25117,-0.281839 -0.25117,-0.295692 -0.25117,-0.310063 -0.25117,-0.324961 -0.25117,-0.340392 -0.25117,-0.356368 -0.25116,-0.372895 -0.25117,-0.389979 -0.25117,-0.407629 -0.25117,-0.425849 -0.25117,-0.444643 -0.25117,-0.464018 -0.25117,-0.483973 -0.25117,-0.504515 -0.25117,-0.525642 -0.25117,-0.547355 -0.25117,-0.569654 -0.25117,-0.592536 -0.25117,-0.615998 -0.25116,-0.640036 -0.25117,-0.664644 -0.25117,-0.689814 -0.25117,-0.71554 -0.25117,-0.741809 -0.25117,-0.768612 -0.25117,-0.795935 -0.25117,-0.823762 -0.25117,-0.852079 -0.25117,-0.880867 -0.25117,-0.910107 -0.25117,-0.939778 -0.25116,-0.969855 -0.25117,-1.000316 -0.25117,-1.031133 -0.25117,-1.062277 -0.25117,-1.093719 -0.25117,-1.125426 -0.25117,-1.157365 -0.25117,-1.1895 -0.25117,-1.221795 -0.25117,-1.254208 -0.25117,-1.286699 -0.25117,-1.319228 -0.25117,-1.351747 -0.25117,-1.384212 -0.25116,-1.416574 -0.25117,-1.448785 -0.25117,-1.480793 -0.25117,-1.512548 -0.25117,-1.543995 -0.25117,-1.575078 -0.25117,-1.605742 -0.25117,-1.635932 -0.25117,-1.665586 -0.25117,-1.694648 -0.25117,-1.723056 -0.25117,-1.75075 -0.25117,-1.77767 -0.25116,-1.803753 -0.25117,-1.828937 -0.25117,-1.85316 -0.25117,-1.87636 -0.25117,-1.89848 -0.25117,-1.91944 -0.25117,-1.93921 -0.25117,-1.9577 -0.25117,-1.97485 -0.25117,-1.99063 -0.25117,-2.00495 -0.25117,-2.01777 -0.25117,-2.02904 -0.25116,-2.03867 -0.25117,-2.04666 -0.25117,-2.05292 -0.25117,-2.05741 -0.25117,-2.06009 -0.25117,-2.06091 -0.25117,-2.05984 -0.25117,-2.05682 -0.25117,-2.05184 -0.25117,-2.04484 -0.25117,-2.0358 -0.25117,-2.02469 -0.25116,-2.01151 -0.25117,-1.99621 -0.25117,-1.97877 -0.25117,-1.95921 -0.25117,-1.93749 -0.25117,-1.91361 -0.25117,-1.88758 -0.25117,-1.8594 -0.25117,-1.82906 -0.25117,-1.79659 -0.25117,-1.76199 -0.25117,-1.72528 -0.25117,-1.6865 -0.25117,-1.64566 -0.25116,-1.6028 -0.25117,-1.55793 -0.25117,-1.51114 -0.25117,-1.46242 -0.25117,-1.41185 -0.25117,-1.35947 -0.25117,-1.30534 -0.25117,-1.24951 -0.25117,-1.19205 -0.25117,-1.13304 -0.25117,-1.07251 -0.25117,-1.01058 -0.25117,-0.94729 -0.25116,-0.88274 -0.25117,-0.817 -0.25117,-0.75016 -0.25117,-0.68231 -0.25117,-0.61353 -0.25117,-0.54393 -0.25117,-0.47357 -0.25117,-0.40259 -0.25117,-0.33104 -0.25117,-0.25906 -0.25117,-0.18672 -0.25117,-0.11413 -0.25116,-0.0414 -0.25117,0.0314 -0.25117,0.10414 -0.25117,0.17673 -0.25117,0.24906 -0.25117,0.32104 -0.25117,0.39257 -0.25117,0.46355 -0.25117,0.53388 -0.25117,0.60348 -0.25117,0.67224 -0.25117,0.74006 -0.25117,0.80688 -0.25116,0.87258 -0.25117,0.93711 -0.25117,1.00035 -0.25117,1.06224 -0.25117,1.12271 -0.25117,1.18168 -0.25117,1.23906 -0.25117,1.29483 -0.25117,1.34887 -0.25117,1.40116 -0.25117,1.45164 -0.25117,1.50024 -0.25117,1.54692 -0.25116,1.59164 -0.25117,1.63437 -0.25117,1.67505 -0.25117,1.71366 -0.25117,1.75017 -0.25117,1.78457 -0.25117,1.81682 -0.25117,1.84692 -0.25117,1.87484 -0.25117,1.90059 -0.25117,1.92417 -0.25117,1.94557 -0.25117,1.96479 -0.25116,1.98185 -0.25117,1.99675 -0.25117,2.00953 -0.25117,2.02018 -0.25117,2.02874 -0.25117,2.03524 -0.25117,2.03969 -0.25117,2.04213 -0.25117,2.04261 -0.25117,2.04115 -0.25117,2.0378 -0.25117,2.0326 -0.25117,2.02559 -0.25116,2.01683 -0.25117,2.00636 -0.25117,1.99424 -0.25117,1.98051 -0.25117,1.96523 -0.25117,1.94846 -0.25117,1.93025 -0.25117,1.91068 -0.25117,1.88977 -0.25117,1.86761 -0.25117,1.84426 -0.25117,1.81975 -0.25117,1.794188 -0.25116,1.767588 -0.25117,1.740041 -0.25117,1.711597 -0.25117,1.682317 -0.25117,1.652264 -0.25117,1.621492 -0.25117,1.590064 -0.25117,1.558034 -0.25117,1.525461 -0.25117,1.492401 -0.25117,1.458905 -0.25117,1.425032 -0.25117,1.390828 -0.25116,1.356348 -0.25117,1.321639 -0.25117,1.286749 -0.25117,1.251725 -0.25117,1.21661 -0.25117,1.181447 -0.25117,1.146279 -0.25117,1.111143 -0.25117,1.076077 -0.25117,1.041118 -0.25117,1.006299 -0.25117,0.971652 -0.25117,0.937207 -0.25116,0.902994 -0.25117,0.869038 -0.25117,0.835366 -0.25117,0.801998 -0.25117,0.768958 -0.25117,0.736265 -0.25117,0.703936 -0.25117,0.671988 -0.25117,0.640436 -0.25117,0.609291 -0.25117,0.578567 -0.25117,0.548271 -0.25117,0.518414 -0.25116,0.489002 -0.25117,0.460039 -0.25117,0.431532 -0.25117,0.403482 -0.25117,0.37589 -0.25117,0.34876 -0.25117,0.322088 -0.25117,0.295874 -0.25117,0.270115 -0.25117,0.244806 -0.25117,0.219946 -0.25116,0.195526 -0.25117,0.171543 -0.25117,0.147988 -0.25117,0.124854 -0.25117,0.102135 -0.25117,0.07982 -0.25117,0.0579 -0.25117,0.03637 -0.25117,0.01521 -0.25117,-0.0056 -0.25117,-0.02602 -0.25117,-0.04611 -0.25117,-0.06586 -0.25117,-0.0853 -0.25116,-0.104422 -0.25117,-0.123246 -0.25117,-0.141781 -0.25117,-0.160038 -0.25117,-0.178031 -0.25117,-0.195769 -0.25117,-0.213264 -0.25117,-0.230526 -0.25117,-0.247568 -0.25117,-0.2644 -0.25117,-0.28103 -0.25117,-0.297472 -0.25116,-0.313734 -0.25117,-0.329825 -0.25117,-0.345757 -0.25117,-0.361537 -0.25117,-0.377175 -0.25117,-0.392677 -0.25117,-0.408055 -0.25117,-0.423314 -0.25117,-0.438461 -0.25117,-0.453505 -0.25117,-0.468451 -0.25117,-0.483305 -0.25117,-0.498074 -0.25117,-0.512761 -0.25116,-0.527374 -0.25117,-0.541914 -0.25117,-0.556387 -0.25117,-0.570798 -0.25117,-0.585146 -0.25117,-0.599437 -0.25117,-0.613672 -0.25117,-0.627854 -0.25117,-0.641983 -0.25117,-0.65606 -0.25117,-0.670086 -0.25117,-0.684062 -0.25116,-0.697987 -0.25117,-0.711859 -0.25117,-0.72568 -0.25117,-0.739446 -0.25117,-0.753155 -0.25117,-0.766808 -0.25117,-0.780398 -0.25117,-0.793926 -0.25117,-0.807386 -0.25117,-0.820776 -0.25117,-0.83409 -0.25117,-0.847327 -0.25117,-0.860479 -0.25117,-0.873543 -0.25116,-0.886514 -0.25117,-0.899385 -0.25117,-0.912152 -0.25117,-0.924807 -0.25117,-0.937344 -0.25117,-0.94976 -0.25117,-0.962042 -0.25117,-0.974189 -0.25117,-0.98619 -0.25117,-0.998038 -0.25117,-1.009727 -0.25117,-1.021248 -0.25116,-1.032594 -0.25117,-1.043755 -0.25117,-1.054725 -0.25117,-1.065493 -0.25117,-1.076054 -0.25117,-1.086395 -0.25117,-1.096512 -0.25117,-1.106392 -0.25117,-1.116028 -0.25117,-1.125412 -0.25117,-1.134533 -0.25117,-1.143377 -0.25117,-1.15196 -0.25117,-1.16023 -0.25116,-1.16822 -0.25117,-1.17589 -0.25117,-1.18324 -0.25117,-1.19029 -0.25117,-1.19698 -0.25117,-1.20333 -0.25117,-1.20934 -0.25117,-1.21497 -0.25117,-1.22025 -0.25117,-1.22515 -0.25117,-1.22965 -0.25116,-1.23376 -0.25117,-1.23747 -0.25117,-1.24076 -0.25117,-1.24365 -0.25117,-1.2461 -0.251172,-1.24811 -0.251169,-1.24969 -0.251169,-1.25082 -0.251169,-1.25149 -0.251169,-1.2517 -0.25117,-1.25144 -0.251169,-1.25071 -0.251169,-1.2495 -0.251169,-1.2478 -0.25117,-1.24561 -0.251169,-1.24292 -0.251169,-1.23973 -0.251169,-1.23604 -0.251169,-1.23184 -0.25117,-1.22713 -0.251169,-1.22189 -0.251169,-1.21614 -0.251169,-1.20987 -0.25117,-1.20307 -0.251169,-1.19575 -0.251169,-1.18789 -0.251169,-1.17951 -0.251169,-1.17059 -0.25117,-1.16115 -0.251169,-1.15117 -0.251169,-1.14067 -0.251169,-1.12963 -0.25117,-1.11807 -0.251169,-1.10597 -0.251169,-1.09335 -0.251169,-1.08021 -0.25117,-1.06654 -0.251169,-1.05237 -0.251169,-1.03767 -0.251169,-1.02246 -0.251169,-1.00676 -0.25117,-0.99054 -0.251169,-0.97384 -0.251169,-0.95664 -0.251169,-0.93896 -0.25117,-0.9208 -0.251169,-0.90217 -0.251169,-0.88308 -0.251169,-0.86353 -0.251169,-0.84353 -0.25117,-0.8231 -0.251169,-0.80223 -0.251169,-0.78094 -0.251169,-0.75924 -0.25117,-0.73714 -0.251169,-0.71465 -0.251169,-0.69177 -0.251169,-0.66852 -0.251169,-0.64492 -0.25117,-0.62096 -0.251169,-0.59668 -0.251169,-0.57207 -0.251169,-0.54714 -0.25117,-0.52192 -0.251169,-0.49642 -0.251169,-0.47063 -0.251169,-0.4446 -0.251169,-0.41832 -0.25117,-0.39181 -0.251169,-0.36508 -0.251169,-0.33815 -0.251169,-0.31103 -0.25117,-0.28375 -0.251169,-0.25629 -0.251169,-0.2287 -0.251169,-0.20099 -0.25117,-0.17316 -0.251169,-0.14523 -0.251169,-0.11722 -0.251169,-0.0891 -0.251169,-0.061 -0.25117,-0.0329 -0.251169,-0.005 -0.251169,0.0235 -0.251169,0.0516 -0.25117,0.0798 -0.251169,0.10787 -0.251169,0.1359 -0.251169,0.16386 -0.251169,0.19173 -0.25117,0.21947 -0.251169,0.24712 -0.251169,0.27461 -0.251169,0.30195 -0.25117,0.32913 -0.251169,0.35613 -0.251169,0.38292 -0.251169,0.4095 -0.251169,0.43587 -0.25117,0.46199 -0.251169,0.48785 -0.251169,0.51345 -0.251169,0.53877 -0.25117,0.56379 -0.251169,0.58851 -0.251169,0.61291 -0.251169,0.63697 -0.251169,0.6607 -0.25117,0.68406 -0.251169,0.70706 -0.251169,0.72969 -0.251169,0.75192 -0.25117,0.77375 -0.251169,0.79518 -0.251169,0.81619 -0.251169,0.83677 -0.251169,0.85692 -0.25117,0.87661 -0.251169,0.89586 -0.251169,0.91465 -0.251169,0.93296 -0.25117,0.9508 -0.251169,0.96817 -0.251169,0.98503 -0.251169,1.00141 -0.25117,1.01729 -0.251169,1.03266 -0.251169,1.04753 -0.251169,1.06188 -0.251169,1.07572 -0.25117,1.08904 -0.251169,1.10183 -0.251169,1.11411 -0.251169,1.12584 -0.25117,1.13706 -0.251169,1.14775 -0.251169,1.1579 -0.251169,1.16752 -0.251169,1.17662 -0.25117,1.18518 -0.251169,1.19321 -0.251169,1.20071 -0.251169,1.20769 -0.25117,1.21415 -0.251169,1.22007 -0.251169,1.22548 -0.251169,1.23037 -0.251169,1.23476 -0.25117,1.23861 -0.251169,1.24198 -0.251169,1.24484 -0.251169,1.24721 -0.25117,1.24907 -0.251169,1.25046 -0.251169,1.25135 -0.251169,1.25179 -0.251169,1.25174 -0.25117,1.25124 -0.251169,1.25028 -0.251169,1.24887 -0.251169,1.24701 -0.25117,1.24473 -0.251169,1.24201 -0.251169,1.23888 -0.251169,1.23533 -0.25117,1.23138 -0.251169,1.22704 -0.251169,1.2223 -0.251169,1.2172 -0.251169,1.21172 -0.25117,1.20588 -0.251169,1.19969 -0.251169,1.19316 -0.251169,1.1863 -0.25117,1.17911 -0.251169,1.17161 -0.251169,1.16381 -0.251169,1.1557 -0.251169,1.14732 -0.25117,1.138658 -0.251169,1.129734 -0.251169,1.12055 -0.251169,1.111123 -0.25117,1.101457 -0.251169,1.091565 -0.251169,1.081456 -0.251169,1.07114 -0.251169,1.060625 -0.25117,1.049923 -0.251169,1.039043 -0.251169,1.027992 -0.251169,1.016784 -0.25117,1.005424 -0.251169,0.993923 -0.251169,0.982292 -0.251169,0.970538 -0.251169,0.95867 -0.25117,0.946698 -0.251169,0.93463 -0.251169,0.922476 -0.251169,0.910243 -0.25117,0.89794 -0.251169,0.885575 -0.251169,0.873158 -0.251169,0.860695 -0.251169,0.848194 -0.25117,0.835665 -0.251169,0.823112 -0.251169,0.810546 -0.251169,0.797971 -0.25117,0.785398 -0.251169,0.77283 -0.251169,0.760276 -0.251169,0.747742 -0.25117,0.735235 -0.251169,0.722761 -0.251169,0.710326 -0.251169,0.697935 -0.251169,0.685595 -0.25117,0.673311 -0.251169,0.661089 -0.251169,0.648934 -0.251169,0.63685 -0.25117,0.624843 -0.251169,0.612916 -0.251169,0.601077 -0.251169,0.589326 -0.251169,0.57767 -0.25117,0.566111 -0.251169,0.554655 -0.251169,0.543304 -0.251169,0.532061 -0.25117,0.520931 -0.251169,0.509916 -0.251169,0.499019 -0.251169,0.488241 -0.251169,0.477589 -0.25117,0.46706 -0.251169,0.456661 -0.251169,0.44639 -0.251169,0.436253 -0.25117,0.426248 -0.251169,0.416379 -0.251169,0.406647 -0.251169,0.397052 -0.251169,0.387598 -0.25117,0.378283 -0.251169,0.369109 -0.251169,0.360079 -0.251169,0.35119 -0.25117,0.342444 -0.251169,0.333844 -0.251169,0.325385 -0.251169,0.317072 -0.25117,0.308903 -0.251169,0.300878 -0.251169,0.292997 -0.251169,0.28526 -0.251169,0.277666 -0.25117,0.270215 -0.251169,0.262907 -0.251169,0.255741 -0.251169,0.248716 -0.25117,0.241831 -0.251169,0.235086 -0.251169,0.22848 -0.251169,0.222011 -0.251169,0.215678 -0.25117,0.209482 -0.251169,0.203418 -0.251169,0.19749 -0.251169,0.191691 -0.25117,0.186023 -0.251169,0.180485 -0.251169,0.175074 -0.251169,0.169788 -0.251169,0.164627 -0.25117,0.15959 -0.251169,0.154672 -0.251169,0.149876 -0.251169,0.145196 -0.25117,0.140634 -0.251169,0.136185 -0.251169,0.131849 -0.251169,0.127626 -0.251169,0.12351 -0.25117,0.119502 -0.251169,0.1156 -0.251169,0.111803 -0.251169,0.108106 -0.25117,0.104511 -0.251169,0.101014 -0.251169,0.09761 -0.251169,0.09431 -0.251169,0.09109 -0.25117,0.08797 -0.251169,0.08494 -0.251169,0.08199 -0.251169,0.07914 -0.25117,0.07636 -0.251169,0.07366 -0.251169,0.07105 -0.251169,0.06852 -0.25117,0.06606 -0.251169,0.06368 -0.251169,0.06137 -0.251169,0.05913 -0.251169,0.05696 -0.25117,0.05486 -0.251169,0.05283 -0.251169,0.05086 -0.251169,0.04895 -0.25117,0.04711 -0.251169,0.04532 -0.251169,0.0436 -0.251169,0.04193 -0.251169,0.04032 -0.25117,0.03876 -0.251169,0.03726 -0.251169,0.0358 -0.251169,0.0344 -0.25117,0.03304 -0.251169,0.03173 -0.251169,0.03047 -0.251169,0.02925 -0.251169,0.02807 -0.25117,0.02694 -0.251169,0.02584 -0.251169,0.02479 -0.251169,0.02377 -0.25117,0.02279 -0.251169,0.02185 -0.251169,0.02094 -0.251169,0.02007 -0.251169,0.01922 -0.25117,0.01841 -0.251169,0.01763 -0.251169,0.01688 -0.251169,0.01616 -0.25117,0.01547 -0.251169,0.0148 -0.251169,0.01416 -0.251169,0.01354 -0.25117,0.01295 -0.251169,0.01238 -0.251169,0.01184 -0.251169,0.01131 -0.251169,0.01081 z"
             style="stroke:#cccccc;stroke-opacity:0.55" />
        </defs>
        <g
           clip-path="url(#p1d10068567)"
           id="g2">
          <use
             xlink:href="#m0464d90818"
             x="0"
             y="224.46672"
             style="fill:#cccccc;fill-opacity:0.55;stroke:#cccccc;stroke-opacity:0.55"
             id="use2" />
        </g>
      </g>
      <g
         id="matplotlib.axis_1">
        <g
           id="xtick_1">
          <g
             id="line2d_1">
            <defs
               id="defs3">
              <path
                 id="m3bccea9e80"
                 d="M 0,0 V 3.5"
                 style="stroke:#000000;stroke-width:0.8" />
            </defs>
            <g
               id="g3">
              <use
                 xlink:href="#m3bccea9e80"
                 x="13.833984"
                 y="187.87828"
                 style="stroke:#000000;stroke-width:0.8"
                 id="use3" />
            </g>
          </g>
          <g
             id="text_1">
            <text
               style="font-size:9px;font-family:'DejaVu Sans', 'Bitstream Vera Sans', 'Computer Modern Sans Serif', 'Lucida Grande', Verdana, Geneva, Lucid, Arial, Helvetica, 'Avant Garde', sans-serif;text-anchor:middle"
               x="13.833984"
               y="201.71687"
               id="text3">−3</text>
          </g>
        </g>
        <g
           id="xtick_2">
          <g
             id="line2d_2">
            <g
               id="g4">
              <use
                 xlink:href="#m3bccea9e80"
                 x="47.281353"
                 y="187.87828"
                 style="stroke:#000000;stroke-width:0.8"
                 id="use4" />
            </g>
          </g>
          <g
             id="text_2">
            <text
               style="font-size:9px;font-family:'DejaVu Sans', 'Bitstream Vera Sans', 'Computer Modern Sans Serif', 'Lucida Grande', Verdana, Geneva, Lucid, Arial, Helvetica, 'Avant Garde', sans-serif;text-anchor:middle"
               x="47.281353"
               y="201.71687"
               id="text4">−2</text>
          </g>
        </g>
        <g
           id="xtick_3">
          <g
             id="line2d_3">
            <g
               id="g5">
              <use
                 xlink:href="#m3bccea9e80"
                 x="80.728722"
                 y="187.87828"
                 style="stroke:#000000;stroke-width:0.8"
                 id="use5" />
            </g>
          </g>
          <g
             id="text_3">
            <text
               style="font-size:9px;font-family:'DejaVu Sans', 'Bitstream Vera Sans', 'Computer Modern Sans Serif', 'Lucida Grande', Verdana, Geneva, Lucid, Arial, Helvetica, 'Avant Garde', sans-serif;text-anchor:middle"
               x="80.728722"
               y="201.71687"
               id="text5">−1</text>
          </g>
        </g>
        <g
           id="xtick_4">
          <g
             id="line2d_4">
            <g
               id="g6">
              <use
                 xlink:href="#m3bccea9e80"
                 x="114.17609"
                 y="187.87828"
                 style="stroke:#000000;stroke-width:0.8"
                 id="use6" />
            </g>
          </g>
          <g
             id="text_4">
            <text
               style="font-size:9px;font-family:'DejaVu Sans', 'Bitstream Vera Sans', 'Computer Modern Sans Serif', 'Lucida Grande', Verdana, Geneva, Lucid, Arial, Helvetica, 'Avant Garde', sans-serif;text-anchor:middle"
               x="114.17609"
               y="201.71687"
               id="text6">0</text>
          </g>
        </g>
        <g
           id="xtick_5">
          <g
             id="line2d_5">
            <g
               id="g7">
              <use
                 xlink:href="#m3bccea9e80"
                 x="147.62346"
                 y="187.87828"
                 style="stroke:#000000;stroke-width:0.8"
                 id="use7" />
            </g>
          </g>
          <g
             id="text_5">
            <text
               style="font-size:9px;font-family:'DejaVu Sans', 'Bitstream Vera Sans', 'Computer Modern Sans Serif', 'Lucida Grande', Verdana, Geneva, Lucid, Arial, Helvetica, 'Avant Garde', sans-serif;text-anchor:middle"
               x="147.62346"
               y="201.71687"
               id="text7">1</text>
          </g>
        </g>
        <g
           id="xtick_6">
          <g
             id="line2d_6">
            <g
               id="g8">
              <use
                 xlink:href="#m3bccea9e80"
                 x="181.07083"
                 y="187.87828"
                 style="stroke:#000000;stroke-width:0.8"
                 id="use8" />
            </g>
          </g>
          <g
             id="text_6">
            <text
               style="font-size:9px;font-family:'DejaVu Sans', 'Bitstream Vera Sans', 'Computer Modern Sans Serif', 'Lucida Grande', Verdana, Geneva, Lucid, Arial, Helvetica, 'Avant Garde', sans-serif;text-anchor:middle"
               x="181.07083"
               y="201.71687"
               id="text8">2</text>
          </g>
        </g>
        <g
           id="xtick_7">
          <g
             id="line2d_7">
            <g
               id="g9">
              <use
                 xlink:href="#m3bccea9e80"
                 x="214.51819"
                 y="187.87828"
                 style="stroke:#000000;stroke-width:0.8"
                 id="use9" />
            </g>
          </g>
          <g
             id="text_7">
            <text
               style="font-size:9px;font-family:'DejaVu Sans', 'Bitstream Vera Sans', 'Computer Modern Sans Serif', 'Lucida Grande', Verdana, Geneva, Lucid, Arial, Helvetica, 'Avant Garde', sans-serif;text-anchor:middle"
               x="214.51819"
               y="201.71687"
               id="text9">3</text>
          </g>
        </g>
        <g
           id="text_8">
          <text
             style="font-size:10px;font-family:'DejaVu Sans', 'Bitstream Vera Sans', 'Computer Modern Sans Serif', 'Lucida Grande', Verdana, Geneva, Lucid, Arial, Helvetica, 'Avant Garde', sans-serif;text-anchor:middle"
             x="114.17609"
             y="215.18703"
             id="text10">activation value</text>
        </g>
      </g>
      <g
         id="matplotlib.axis_2" />
      <g
         id="LineCollection_1">
        <path
           d="m 13.833984,51.654281 v -19.008"
           clip-path="url(#p1d10068567)"
           style="fill:none;stroke:#555555;stroke-width:1.2"
           id="path10" />
        <path
           d="m 36.13223,51.654281 v -19.008"
           clip-path="url(#p1d10068567)"
           style="fill:none;stroke:#555555;stroke-width:1.2"
           id="path11" />
        <path
           d="m 58.430476,51.654281 v -19.008"
           clip-path="url(#p1d10068567)"
           style="fill:none;stroke:#555555;stroke-width:1.2"
           id="path12" />
        <path
           d="m 80.728721,51.654281 v -19.008"
           clip-path="url(#p1d10068567)"
           style="fill:none;stroke:#555555;stroke-width:1.2"
           id="path13" />
        <path
           d="m 103.02697,51.654281 v -19.008"
           clip-path="url(#p1d10068567)"
           style="fill:none;stroke:#555555;stroke-width:1.2"
           id="path14" />
        <path
           d="m 125.32521,51.654281 v -19.008"
           clip-path="url(#p1d10068567)"
           style="fill:none;stroke:#555555;stroke-width:1.2"
           id="path15" />
        <path
           d="m 147.62346,51.654281 v -19.008"
           clip-path="url(#p1d10068567)"
           style="fill:none;stroke:#555555;stroke-width:1.2"
           id="path16" />
        <path
           d="m 169.9217,51.654281 v -19.008"
           clip-path="url(#p1d10068567)"
           style="fill:none;stroke:#555555;stroke-width:1.2"
           id="path17" />
        <path
           d="m 192.21995,51.654281 v -19.008"
           clip-path="url(#p1d10068567)"
           style="fill:none;stroke:#555555;stroke-width:1.2"
           id="path18" />
        <path
           d="m 214.51819,51.654281 v -19.008"
           clip-path="url(#p1d10068567)"
           style="fill:none;stroke:#555555;stroke-width:1.2"
           id="path19" />
      </g>
      <g
         id="LineCollection_2">
        <path
           d="m 13.833984,99.174281 v -19.008"
           clip-path="url(#p1d10068567)"
           style="fill:none;stroke:#fc5555;stroke-width:1.6"
           id="path20" />
        <path
           d="m 64.657307,99.174281 v -19.008"
           clip-path="url(#p1d10068567)"
           style="fill:none;stroke:#fc5555;stroke-width:1.6"
           id="path21" />
        <path
           d="m 74.800677,99.174281 v -19.008"
           clip-path="url(#p1d10068567)"
           style="fill:none;stroke:#fc5555;stroke-width:1.6"
           id="path22" />
        <path
           d="m 83.261829,99.174281 v -19.008"
           clip-path="url(#p1d10068567)"
           style="fill:none;stroke:#fc5555;stroke-width:1.6"
           id="path23" />
        <path
           d="m 93.058219,99.174281 v -19.008"
           clip-path="url(#p1d10068567)"
           style="fill:none;stroke:#fc5555;stroke-width:1.6"
           id="path24"
           transform="translate(1.5)" />
        <path
           d="m 108.63112,99.174281 v -19.008"
           clip-path="url(#p1d10068567)"
           style="fill:none;stroke:#fc5555;stroke-width:1.6"
           id="path25" />
        <path
           d="m 144.97809,99.174281 v -19.008"
           clip-path="url(#p1d10068567)"
           style="fill:none;stroke:#fc5555;stroke-width:1.6"
           id="path26" />
        <path
           d="m 154.50154,99.174281 v -19.008"
           clip-path="url(#p1d10068567)"
           style="fill:none;stroke:#fc5555;stroke-width:1.6"
           id="path27" />
        <path
           d="m 162.83271,99.174281 v -19.008"
           clip-path="url(#p1d10068567)"
           style="fill:none;stroke:#fc5555;stroke-width:1.6"
           id="path28"
           transform="translate(3)" />
        <path
           d="m 199.40581,99.174281 v -19.008"
           clip-path="url(#p1d10068567)"
           style="fill:none;stroke:#fc5555;stroke-width:1.6"
           id="path29" />
      </g>
      <g
         id="patch_3">
        <path
           d="M 13.833984,187.87828 H 214.51819"
           style="fill:none;stroke:#000000;stroke-width:0.8;stroke-linecap:square;stroke-linejoin:miter"
           id="path30" />
      </g>
      <g
         id="text_9">
        <text
           style="font-size:10px;font-family:'DejaVu Sans', 'Bitstream Vera Sans', 'Computer Modern Sans Serif', 'Lucida Grande', Verdana, Geneva, Lucid, Arial, Helvetica, 'Avant Garde', sans-serif;text-anchor:start;fill:#555555"
           x="11.84767"
           y="31.460056"
           id="text30">uniform knots</text>
      </g>
      <g
         id="text_10">
        <text
           style="font-size:10px;font-family:'DejaVu Sans', 'Bitstream Vera Sans', 'Computer Modern Sans Serif', 'Lucida Grande', Verdana, Geneva, Lucid, Arial, Helvetica, 'Avant Garde', sans-serif;text-anchor:start;fill:#fc5555"
           x="13.34767"
           y="75.356056"
           id="text31">relocated (quantiles)</text>
      </g>
      <g
         id="patch_4">
        <path
           d="m 178.39504,35.201516 q 0,22.946356 0,44.551072"
           style="fill:none;stroke:#555555;stroke-width:1.2;stroke-linecap:round"
           id="path31" />
        <path
           d="m 180.39504,75.752588 -2,4 -2,-4"
           style="fill:none;stroke:#555555;stroke-width:1.2;stroke-linecap:round"
           id="path32" />
      </g>
      <g
         id="text_11">
        <text
           style="font-size:11px;font-family:'DejaVu Sans', 'Bitstream Vera Sans', 'Computer Modern Sans Serif', 'Lucida Grande', Verdana, Geneva, Lucid, Arial, Helvetica, 'Avant Garde', sans-serif;text-anchor:middle"
           x="114.17609"
           y="15.558281"
           id="text32">Grid update (fixed G)</text>
      </g>
    </g>
    <g
       id="axes_2">
      <g
         id="patch_5">
        <path
           d="M 270.70977,187.87828 H 471.39398 V 21.558281 H 270.70977 Z"
           style="fill:none"
           id="path33" />
      </g>
      <g
         id="matplotlib.axis_3">
        <g
           id="xtick_8">
          <g
             id="line2d_8">
            <g
               id="g33">
              <use
                 xlink:href="#m3bccea9e80"
                 x="270.70978"
                 y="187.87828"
                 style="stroke:#000000;stroke-width:0.8"
                 id="use33" />
            </g>
          </g>
          <g
             id="text_12">
            <text
               style="font-size:9px;font-family:'DejaVu Sans', 'Bitstream Vera Sans', 'Computer Modern Sans Serif', 'Lucida Grande', Verdana, Geneva, Lucid, Arial, Helvetica, 'Avant Garde', sans-serif;text-anchor:middle"
               x="270.70978"
               y="201.71687"
               id="text33">−3</text>
          </g>
        </g>
        <g
           id="xtick_9">
          <g
             id="line2d_9">
            <g
               id="g34">
              <use
                 xlink:href="#m3bccea9e80"
                 x="304.15714"
                 y="187.87828"
                 style="stroke:#000000;stroke-width:0.8"
                 id="use34" />
            </g>
          </g>
          <g
             id="text_13">
            <text
               style="font-size:9px;font-family:'DejaVu Sans', 'Bitstream Vera Sans', 'Computer Modern Sans Serif', 'Lucida Grande', Verdana, Geneva, Lucid, Arial, Helvetica, 'Avant Garde', sans-serif;text-anchor:middle"
               x="304.15714"
               y="201.71687"
               id="text34">−2</text>
          </g>
        </g>
        <g
           id="xtick_10">
          <g
             id="line2d_10">
            <g
               id="g35">
              <use
                 xlink:href="#m3bccea9e80"
                 x="337.60452"
                 y="187.87828"
                 style="stroke:#000000;stroke-width:0.8"
                 id="use35" />
            </g>
          </g>
          <g
             id="text_14">
            <text
               style="font-size:9px;font-family:'DejaVu Sans', 'Bitstream Vera Sans', 'Computer Modern Sans Serif', 'Lucida Grande', Verdana, Geneva, Lucid, Arial, Helvetica, 'Avant Garde', sans-serif;text-anchor:middle"
               x="337.60452"
               y="201.71687"
               id="text35">−1</text>
          </g>
        </g>
        <g
           id="xtick_11">
          <g
             id="line2d_11">
            <g
               id="g36">
              <use
                 xlink:href="#m3bccea9e80"
                 x="371.05188"
                 y="187.87828"
                 style="stroke:#000000;stroke-width:0.8"
                 id="use36" />
            </g>
          </g>
          <g
             id="text_15">
            <text
               style="font-size:9px;font-family:'DejaVu Sans', 'Bitstream Vera Sans', 'Computer Modern Sans Serif', 'Lucida Grande', Verdana, Geneva, Lucid, Arial, Helvetica, 'Avant Garde', sans-serif;text-anchor:middle"
               x="371.05188"
               y="201.71687"
               id="text36">0</text>
          </g>
        </g>
        <g
           id="xtick_12">
          <g
             id="line2d_12">
            <g
               id="g37">
              <use
                 xlink:href="#m3bccea9e80"
                 x="404.49924"
                 y="187.87828"
                 style="stroke:#000000;stroke-width:0.8"
                 id="use37" />
            </g>
          </g>
          <g
             id="text_16">
            <text
               style="font-size:9px;font-family:'DejaVu Sans', 'Bitstream Vera Sans', 'Computer Modern Sans Serif', 'Lucida Grande', Verdana, Geneva, Lucid, Arial, Helvetica, 'Avant Garde', sans-serif;text-anchor:middle"
               x="404.49924"
               y="201.71687"
               id="text37">1</text>
          </g>
        </g>
        <g
           id="xtick_13">
          <g
             id="line2d_13">
            <g
               id="g38">
              <use
                 xlink:href="#m3bccea9e80"
                 x="437.94662"
                 y="187.87828"
                 style="stroke:#000000;stroke-width:0.8"
                 id="use38" />
            </g>
          </g>
          <g
             id="text_17">
            <text
               style="font-size:9px;font-family:'DejaVu Sans', 'Bitstream Vera Sans', 'Computer Modern Sans Serif', 'Lucida Grande', Verdana, Geneva, Lucid, Arial, Helvetica, 'Avant Garde', sans-serif;text-anchor:middle"
               x="437.94662"
               y="201.71687"
               id="text38">2</text>
          </g>
        </g>
        <g
           id="xtick_14">
          <g
             id="line2d_14">
            <g
               id="g39">
              <use
                 xlink:href="#m3bccea9e80"
                 x="471.39398"
                 y="187.87828"
                 style="stroke:#000000;stroke-width:0.8"
                 id="use39" />
            </g>
          </g>
          <g
             id="text_18">
            <text
               style="font-size:9px;font-family:'DejaVu Sans', 'Bitstream Vera Sans', 'Computer Modern Sans Serif', 'Lucida Grande', Verdana, Geneva, Lucid, Arial, Helvetica, 'Avant Garde', sans-serif;text-anchor:middle"
               x="471.39398"
               y="201.71687"
               id="text39">3</text>
          </g>
        </g>
        <g
           id="text_19">
          <text
             style="font-size:10px;font-family:'DejaVu Sans', 'Bitstream Vera Sans', 'Computer Modern Sans Serif', 'Lucida Grande', Verdana, Geneva, Lucid, Arial, Helvetica, 'Avant Garde', sans-serif;text-anchor:middle"
             x="371.05188"
             y="215.18703"
             id="text40">x</text>
        </g>
      </g>
      <g
         id="matplotlib.axis_4">
        <g
           id="ytick_1">
          <g
             id="line2d_15">
            <defs
               id="defs40">
              <path
                 id="mf9d11e77e3"
                 d="M 0,0 H -3.5"
                 style="stroke:#000000;stroke-width:0.8" />
            </defs>
            <g
               id="g40">
              <use
                 xlink:href="#mf9d11e77e3"
                 x="270.70978"
                 y="177.96275"
                 style="stroke:#000000;stroke-width:0.8"
                 id="use40" />
            </g>
          </g>
          <g
             id="text_20">
            <text
               style="font-size:9px;font-family:'DejaVu Sans', 'Bitstream Vera Sans', 'Computer Modern Sans Serif', 'Lucida Grande', Verdana, Geneva, Lucid, Arial, Helvetica, 'Avant Garde', sans-serif;text-anchor:end"
               x="263.70978"
               y="181.38205"
               id="text41">−1</text>
          </g>
        </g>
        <g
           id="ytick_2">
          <g
             id="line2d_16">
            <g
               id="g41">
              <use
                 xlink:href="#mf9d11e77e3"
                 x="270.70978"
                 y="141.26372"
                 style="stroke:#000000;stroke-width:0.8"
                 id="use41" />
            </g>
          </g>
          <g
             id="text_21">
            <text
               style="font-size:9px;font-family:'DejaVu Sans', 'Bitstream Vera Sans', 'Computer Modern Sans Serif', 'Lucida Grande', Verdana, Geneva, Lucid, Arial, Helvetica, 'Avant Garde', sans-serif;text-anchor:end"
               x="263.70978"
               y="144.68301"
               id="text42">0</text>
          </g>
        </g>
        <g
           id="ytick_3">
          <g
             id="line2d_17">
            <g
               id="g42">
              <use
                 xlink:href="#mf9d11e77e3"
                 x="270.70978"
                 y="104.56469"
                 style="stroke:#000000;stroke-width:0.8"
                 id="use42" />
            </g>
          </g>
          <g
             id="text_22">
            <text
               style="font-size:9px;font-family:'DejaVu Sans', 'Bitstream Vera Sans', 'Computer Modern Sans Serif', 'Lucida Grande', Verdana, Geneva, Lucid, Arial, Helvetica, 'Avant Garde', sans-serif;text-anchor:end"
               x="263.70978"
               y="107.98399"
               id="text43">1</text>
          </g>
        </g>
        <g
           id="ytick_4">
          <g
             id="line2d_18">
            <g
               id="g43">
              <use
                 xlink:href="#mf9d11e77e3"
                 x="270.70978"
                 y="67.865654"
                 style="stroke:#000000;stroke-width:0.8"
                 id="use43" />
            </g>
          </g>
          <g
             id="text_23">
            <text
               style="font-size:9px;font-family:'DejaVu Sans', 'Bitstream Vera Sans', 'Computer Modern Sans Serif', 'Lucida Grande', Verdana, Geneva, Lucid, Arial, Helvetica, 'Avant Garde', sans-serif;text-anchor:end"
               x="263.70978"
               y="71.28495"
               id="text44">2</text>
          </g>
        </g>
        <g
           id="ytick_5">
          <g
             id="line2d_19">
            <g
               id="g44">
              <use
                 xlink:href="#mf9d11e77e3"
                 x="270.70978"
                 y="31.166626"
                 style="stroke:#000000;stroke-width:0.8"
                 id="use44" />
            </g>
          </g>
          <g
             id="text_24">
            <text
               style="font-size:9px;font-family:'DejaVu Sans', 'Bitstream Vera Sans', 'Computer Modern Sans Serif', 'Lucida Grande', Verdana, Geneva, Lucid, Arial, Helvetica, 'Avant Garde', sans-serif;text-anchor:end"
               x="263.70978"
               y="34.585922"
               id="text45">3</text>
          </g>
        </g>
      </g>
      <g
         id="line2d_20">
        <path
           d="m 270.70977,29.118281 1.75819,0.949625 1.75818,1.205224 1.75819,1.467387 1.75818,1.733825 2.00936,2.310169 2.00935,2.659832 2.26052,3.404149 2.26053,3.827767 2.51169,4.72676 2.51169,5.191958 2.76286,6.197223 3.2652,7.889816 3.76754,9.703215 5.52572,14.936806 8.28859,22.416713 3.76754,9.56142 3.2652,7.70318 2.76286,5.98364 2.51169,4.94564 2.26052,4.00549 2.26052,3.55068 2.00936,2.75331 2.00935,2.35909 1.75819,1.73243 1.75818,1.41784 1.50702,0.96307 1.50701,0.73009 1.50702,0.4983 1.50701,0.2689 1.50702,0.0432 1.50701,-0.17767 1.50702,-0.39244 1.50702,-0.59999 1.75818,-0.95113 1.75818,-1.20719 2.00936,-1.6714 2.00935,-1.95573 2.26052,-2.50187 2.76287,-3.42501 3.2652,-4.44917 4.52104,-6.59116 7.28391,-10.63977 3.2652,-4.37305 2.76286,-3.34758 2.51169,-2.68941 2.26053,-2.08539 2.00935,-1.55772 2.00935,-1.25717 1.75819,-0.83958 1.75818,-0.58649 1.75819,-0.32612 1.50701,-0.0685 1.50702,0.12833 1.50701,0.32564 1.75819,0.62826 1.75818,0.89249 1.75819,1.15109 1.75818,1.40181 2.00936,1.89606 2.00935,2.19191 2.26052,2.79224 2.51169,3.46536 2.76287,4.18818 3.51637,5.77234 5.02338,8.75182 7.03274,12.22028 3.51637,5.63707 2.76286,4.03093 2.51169,3.27783 2.26052,2.58236 2.00936,1.96872 1.75818,1.44936 1.75819,1.17843 1.75818,0.89439 1.50702,0.53211 1.50701,0.30958 1.50702,0.0826 1.50701,-0.14773 1.50702,-0.38004 1.50701,-0.61312 1.50702,-0.8457 1.50701,-1.07653 1.75819,-1.54361 1.50701,-1.56469 v 0"
           clip-path="url(#p6bf46cefda)"
           style="fill:none;stroke:#555555;stroke-width:1.8;stroke-linecap:square"
           id="path45" />
      </g>
      <g
         id="line2d_21">
        <path
           d="m 270.70977,29.304301 1.50702,0.656165 1.50702,0.90011 1.50701,1.135998 1.75818,1.612719 1.75819,1.910029 2.00935,2.530532 2.00936,2.883048 2.26052,3.641018 2.51169,4.507423 2.51169,4.957521 2.76287,5.928622 3.01403,6.978916 3.51637,8.732703 4.0187,10.606187 8.28859,22.721328 5.02338,13.36452 3.51637,8.754 3.01403,6.92088 2.51169,5.25262 2.26053,4.25761 2.26052,3.76259 2.00935,2.92399 2.00936,2.53252 2.00935,2.14518 1.75819,1.56257 1.75818,1.27197 1.75818,0.98416 1.75819,0.69911 1.50701,0.37448 1.50702,0.16885 1.50702,-0.035 1.50701,-0.23716 1.50702,-0.43753 1.75818,-0.76138 1.75819,-1.02897 1.75818,-1.29376 1.75818,-1.55457 2.00936,-2.07119 2.26052,-2.6541 2.76286,-3.62288 3.2652,-4.6738 5.52573,-8.37774 5.02338,-7.47513 3.01403,-4.12807 2.51169,-3.10517 2.26053,-2.46066 2.00935,-1.89134 2.00935,-1.60751 2.00936,-1.31951 1.75818,-0.91507 1.75819,-0.68863 1.75818,-0.4594 1.75819,-0.22741 1.75818,0.007 1.75819,0.24493 1.75818,0.48527 1.75818,0.72837 1.75819,0.97427 1.75818,1.22294 1.75819,1.47438 2.00935,1.99646 2.00936,2.32706 2.26052,2.9743 2.51169,3.67995 3.01403,4.82975 4.01871,6.91829 11.30261,19.75853 3.01403,4.6881 2.5117,3.52887 2.26052,2.83499 2.26052,2.4836 2.00936,1.89067 2.00935,1.57246 1.75819,1.09985 1.75818,0.8288 1.50701,0.48496 1.50702,0.26838 1.50702,0.0437 1.50701,-0.18899 1.50702,-0.42976 1.50701,-0.67857 1.50702,-0.93546 1.50701,-1.20039 1.50702,-1.47338 1.25584,-1.44216 v 0"
           clip-path="url(#p6bf46cefda)"
           style="fill:none;stroke:#fc5555;stroke-width:2;stroke-linecap:square"
           id="path46" />
      </g>
      <g
         id="line2d_22">
        <path
           d="m 270.70977,29.120105 1.75819,0.945219 1.75818,1.207931 1.75819,1.471197 2.00935,2.004448 2.00935,2.34986 2.00936,2.696103 2.00935,3.043173 2.26053,3.834231 2.51169,4.737533 2.76286,5.739021 3.01403,6.822244 3.2652,7.963231 4.01871,10.447402 6.27923,17.076701 6.78157,18.275841 4.0187,10.17842 3.2652,7.66303 2.76287,5.93444 2.51169,4.88579 2.26052,3.95014 2.26052,3.49995 2.00936,2.71236 2.00935,2.31828 1.75819,1.69104 1.75818,1.36728 1.50702,0.91678 1.50701,0.68495 1.50702,0.45665 1.50701,0.23187 1.50702,0.0106 1.50701,-0.20711 1.50702,-0.42131 1.50701,-0.63188 1.75819,-0.99286 1.75818,-1.24886 2.00936,-1.71412 2.26052,-2.25709 2.51169,-2.86435 2.76286,-3.51427 3.2652,-4.52906 5.27456,-7.76683 5.77689,-8.39703 3.2652,-4.36516 2.76286,-3.34806 2.51169,-2.69684 2.26053,-2.09297 2.00935,-1.55775 1.75818,-1.1101 1.75819,-0.86722 1.75818,-0.61876 1.75819,-0.36468 1.50701,-0.10611 1.50702,0.0882 1.50701,0.28602 1.50702,0.48736 1.75818,0.82284 1.75819,1.08625 1.75818,1.33756 2.00936,1.82084 2.00935,2.11524 2.26052,2.70904 2.5117,3.38857 2.76286,4.1279 3.2652,5.29581 4.52104,7.80216 8.79093,15.2684 3.2652,5.19337 2.76286,3.99635 2.51169,3.22969 2.26052,2.53226 2.00936,1.92523 1.75818,1.41403 1.75819,1.14519 1.75818,0.86074 1.50702,0.49955 1.50701,0.27044 1.50702,0.0393 1.50701,-0.19154 1.50702,-0.42201 1.50701,-0.65212 1.50702,-0.88188 1.75818,-1.31879 1.75819,-1.6305 1.00467,-1.07145 v 0"
           clip-path="url(#p6bf46cefda)"
           style="fill:none;stroke:#1f77b4;stroke-width:2.2;stroke-linecap:square"
           id="path47" />
      </g>
      <g
         id="line2d_23">
        <path
           d="M 270.70977,187.87828 V 21.558281"
           clip-path="url(#p6bf46cefda)"
           style="fill:none;stroke:#fc5555;stroke-width:0.6;stroke-linecap:square;stroke-opacity:0.25"
           id="path48" />
      </g>
      <g
         id="line2d_24">
        <path
           d="M 299.37895,187.87828 V 21.558281"
           clip-path="url(#p6bf46cefda)"
           style="fill:none;stroke:#fc5555;stroke-width:0.6;stroke-linecap:square;stroke-opacity:0.25"
           id="path49" />
      </g>
      <g
         id="line2d_25">
        <path
           d="M 328.04812,187.87828 V 21.558281"
           clip-path="url(#p6bf46cefda)"
           style="fill:none;stroke:#fc5555;stroke-width:0.6;stroke-linecap:square;stroke-opacity:0.25"
           id="path50" />
      </g>
      <g
         id="line2d_26">
        <path
           d="M 356.71729,187.87828 V 21.558281"
           clip-path="url(#p6bf46cefda)"
           style="fill:none;stroke:#fc5555;stroke-width:0.6;stroke-linecap:square;stroke-opacity:0.25"
           id="path51" />
      </g>
      <g
         id="line2d_27">
        <path
           d="M 385.38647,187.87828 V 21.558281"
           clip-path="url(#p6bf46cefda)"
           style="fill:none;stroke:#fc5555;stroke-width:0.6;stroke-linecap:square;stroke-opacity:0.25"
           id="path52" />
      </g>
      <g
         id="line2d_28">
        <path
           d="M 414.05564,187.87828 V 21.558281"
           clip-path="url(#p6bf46cefda)"
           style="fill:none;stroke:#fc5555;stroke-width:0.6;stroke-linecap:square;stroke-opacity:0.25"
           id="path53" />
      </g>
      <g
         id="line2d_29">
        <path
           d="M 442.72481,187.87828 V 21.558281"
           clip-path="url(#p6bf46cefda)"
           style="fill:none;stroke:#fc5555;stroke-width:0.6;stroke-linecap:square;stroke-opacity:0.25"
           id="path54" />
      </g>
      <g
         id="line2d_30">
        <path
           d="M 471.39398,187.87828 V 21.558281"
           clip-path="url(#p6bf46cefda)"
           style="fill:none;stroke:#fc5555;stroke-width:0.6;stroke-linecap:square;stroke-opacity:0.25"
           id="path55" />
      </g>
      <g
         id="line2d_31">
        <path
           d="M 270.70977,187.87828 V 21.558281"
           clip-path="url(#p6bf46cefda)"
           style="fill:none;stroke:#1f77b4;stroke-width:0.6;stroke-linecap:square;stroke-opacity:0.16"
           id="path56" />
      </g>
      <g
         id="line2d_32">
        <path
           d="M 284.08872,187.87828 V 21.558281"
           clip-path="url(#p6bf46cefda)"
           style="fill:none;stroke:#1f77b4;stroke-width:0.6;stroke-linecap:square;stroke-opacity:0.16"
           id="path57" />
      </g>
      <g
         id="line2d_33">
        <path
           d="M 297.46767,187.87828 V 21.558281"
           clip-path="url(#p6bf46cefda)"
           style="fill:none;stroke:#1f77b4;stroke-width:0.6;stroke-linecap:square;stroke-opacity:0.16"
           id="path58" />
      </g>
      <g
         id="line2d_34">
        <path
           d="M 310.84662,187.87828 V 21.558281"
           clip-path="url(#p6bf46cefda)"
           style="fill:none;stroke:#1f77b4;stroke-width:0.6;stroke-linecap:square;stroke-opacity:0.16"
           id="path59" />
      </g>
      <g
         id="line2d_35">
        <path
           d="M 324.22556,187.87828 V 21.558281"
           clip-path="url(#p6bf46cefda)"
           style="fill:none;stroke:#1f77b4;stroke-width:0.6;stroke-linecap:square;stroke-opacity:0.16"
           id="path60" />
      </g>
      <g
         id="line2d_36">
        <path
           d="M 337.60451,187.87828 V 21.558281"
           clip-path="url(#p6bf46cefda)"
           style="fill:none;stroke:#1f77b4;stroke-width:0.6;stroke-linecap:square;stroke-opacity:0.16"
           id="path61" />
      </g>
      <g
         id="line2d_37">
        <path
           d="M 350.98346,187.87828 V 21.558281"
           clip-path="url(#p6bf46cefda)"
           style="fill:none;stroke:#1f77b4;stroke-width:0.6;stroke-linecap:square;stroke-opacity:0.16"
           id="path62" />
      </g>
      <g
         id="line2d_38">
        <path
           d="M 364.36241,187.87828 V 21.558281"
           clip-path="url(#p6bf46cefda)"
           style="fill:none;stroke:#1f77b4;stroke-width:0.6;stroke-linecap:square;stroke-opacity:0.16"
           id="path63" />
      </g>
      <g
         id="line2d_39">
        <path
           d="M 377.74135,187.87828 V 21.558281"
           clip-path="url(#p6bf46cefda)"
           style="fill:none;stroke:#1f77b4;stroke-width:0.6;stroke-linecap:square;stroke-opacity:0.16"
           id="path64" />
      </g>
      <g
         id="line2d_40">
        <path
           d="M 391.1203,187.87828 V 21.558281"
           clip-path="url(#p6bf46cefda)"
           style="fill:none;stroke:#1f77b4;stroke-width:0.6;stroke-linecap:square;stroke-opacity:0.16"
           id="path65" />
      </g>
      <g
         id="line2d_41">
        <path
           d="M 404.49925,187.87828 V 21.558281"
           clip-path="url(#p6bf46cefda)"
           style="fill:none;stroke:#1f77b4;stroke-width:0.6;stroke-linecap:square;stroke-opacity:0.16"
           id="path66" />
      </g>
      <g
         id="line2d_42">
        <path
           d="M 417.87819,187.87828 V 21.558281"
           clip-path="url(#p6bf46cefda)"
           style="fill:none;stroke:#1f77b4;stroke-width:0.6;stroke-linecap:square;stroke-opacity:0.16"
           id="path67" />
      </g>
      <g
         id="line2d_43">
        <path
           d="M 431.25714,187.87828 V 21.558281"
           clip-path="url(#p6bf46cefda)"
           style="fill:none;stroke:#1f77b4;stroke-width:0.6;stroke-linecap:square;stroke-opacity:0.16"
           id="path68" />
      </g>
      <g
         id="line2d_44">
        <path
           d="M 444.63609,187.87828 V 21.558281"
           clip-path="url(#p6bf46cefda)"
           style="fill:none;stroke:#1f77b4;stroke-width:0.6;stroke-linecap:square;stroke-opacity:0.16"
           id="path69" />
      </g>
      <g
         id="line2d_45">
        <path
           d="M 458.01504,187.87828 V 21.558281"
           clip-path="url(#p6bf46cefda)"
           style="fill:none;stroke:#1f77b4;stroke-width:0.6;stroke-linecap:square;stroke-opacity:0.16"
           id="path70" />
      </g>
      <g
         id="line2d_46">
        <path
           d="M 471.39398,187.87828 V 21.558281"
           clip-path="url(#p6bf46cefda)"
           style="fill:none;stroke:#1f77b4;stroke-width:0.6;stroke-linecap:square;stroke-opacity:0.16"
           id="path71" />
      </g>
      <g
         id="patch_6">
        <path
           d="M 270.70977,187.87828 V 21.558281"
           style="fill:none;stroke:#000000;stroke-width:0.8;stroke-linecap:square;stroke-linejoin:miter"
           id="path72" />
      </g>
      <g
         id="patch_7">
        <path
           d="M 270.70977,187.87828 H 471.39398"
           style="fill:none;stroke:#000000;stroke-width:0.8;stroke-linecap:square;stroke-linejoin:miter"
           id="path73" />
      </g>
      <g
         id="text_25">
        <text
           style="font-size:11px;font-family:'DejaVu Sans', 'Bitstream Vera Sans', 'Computer Modern Sans Serif', 'Lucida Grande', Verdana, Geneva, Lucid, Arial, Helvetica, 'Avant Garde', sans-serif;text-anchor:middle"
           x="371.05188"
           y="15.558281"
           id="text73">Grid extension (G → G′)</text>
      </g>
      <g
         id="legend_1">
        <g
           id="line2d_47">
          <path
             d="m 278.80977,33.346875 h 9 9"
             style="fill:none;stroke:#555555;stroke-width:1.8;stroke-linecap:square"
             id="path74" />
        </g>
        <g
           id="text_26">
          <text
             style="font-size:9px;font-family:'DejaVu Sans', 'Bitstream Vera Sans', 'Computer Modern Sans Serif', 'Lucida Grande', Verdana, Geneva, Lucid, Arial, Helvetica, 'Avant Garde', sans-serif;text-anchor:start"
             x="304.00977"
             y="36.496876"
             id="text74">target</text>
        </g>
        <g
           id="line2d_48">
          <path
             d="m 278.80977,46.557188 h 9 9"
             style="fill:none;stroke:#fc5555;stroke-width:2;stroke-linecap:square"
             id="path75" />
        </g>
        <g
           id="text_27">
          <text
             style="font-size:9px;font-family:'DejaVu Sans', 'Bitstream Vera Sans', 'Computer Modern Sans Serif', 'Lucida Grande', Verdana, Geneva, Lucid, Arial, Helvetica, 'Avant Garde', sans-serif;text-anchor:start"
             x="304.00977"
             y="49.707188"
             id="text75">coarse grid</text>
        </g>
        <g
           id="line2d_49">
          <path
             d="m 278.80977,59.7675 h 9 9"
             style="fill:none;stroke:#1f77b4;stroke-width:2.2;stroke-linecap:square"
             id="path76" />
        </g>
        <g
           id="text_28">
          <text
             style="font-size:9px;font-family:'DejaVu Sans', 'Bitstream Vera Sans', 'Computer Modern Sans Serif', 'Lucida Grande', Verdana, Geneva, Lucid, Arial, Helvetica, 'Avant Garde', sans-serif;text-anchor:start"
             x="304.00977"
             y="62.9175"
             id="text76">extended grid</text>
        </g>
      </g>
    </g>
  </g>
  <defs
     id="defs77">
    <clipPath
       id="p1d10068567">
      <rect
         x="13.833984"
         y="21.558281"
         width="200.6842"
         height="166.32001"
         id="rect76" />
    </clipPath>
    <clipPath
       id="p6bf46cefda">
      <rect
         x="270.70978"
         y="21.558281"
         width="200.6842"
         height="166.32001"
         id="rect77" />
    </clipPath>
  </defs>
</svg>
