<?xml version="1.0" encoding="UTF-8" standalone="no"?>
<svg
   width="358.61999pt"
   height="204.611223pt"
   viewBox="6.45 6.193058 358.62 204.611214"
   version="1.1"
   id="svg6"
   sodipodi:docname="kat_pathology_irregular_vs_smooth.svg"
   xmlns:inkscape="http://www.inkscape.org/namespaces/inkscape"
   xmlns:sodipodi="http://sodipodi.sourceforge.net/DTD/sodipodi-0.dtd"
   xmlns="http://www.w3.org/2000/svg"
   xmlns:svg="http://www.w3.org/2000/svg"
   xmlns:rdf="http://www.w3.org/1999/02/22-rdf-syntax-ns#"
   xmlns:cc="http://creativecommons.org/ns#"
   xmlns:dc="http://purl.org/dc/elements/1.1/">
  <sodipodi:namedview
     id="namedview6"
     pagecolor="#ffffff"
     bordercolor="#000000"
     borderopacity="0.25"
     inkscape:showpageshadow="2"
     inkscape:pageopacity="0.0"
     inkscape:pagecheckerboard="0"
     inkscape:deskcolor="#d1d1d1"
     inkscape:document-units="pt" />
  <metadata
     id="metadata1">
    <rdf:RDF>
      <cc:Work>
        <dc:type
           rdf:resource="http://purl.org/dc/dcmitype/StillImage" />
        <dc:date>2026-01-12T21:18:15.291549</dc:date>
        <dc:format>image/svg+xml</dc:format>
        <dc:creator>
          <cc:Agent>
            <dc:title>Matplotlib v3.10.1, https://matplotlib.org/</dc:title>
          </cc:Agent>
        </dc:creator>
      </cc:Work>
    </rdf:RDF>
  </metadata>
  <defs
     id="defs1">
    <style
       type="text/css"
       id="style1">*{stroke-linejoin: round; stroke-linecap: butt}</style>
  </defs>
  <g
     id="figure_1">
    <g
       id="patch_1">
      <path
         d="M 0,217.25428 H 371.52 V 0 H 0 Z"
         style="fill:none"
         id="path1" />
    </g>
    <g
       id="axes_1">
      <g
         id="patch_2">
        <path
           d="M 7.2,101.76935 H 364.32 V 21.558281 H 7.2 Z"
           style="fill:none"
           id="path2" />
      </g>
      <g
         id="matplotlib.axis_1" />
      <g
         id="matplotlib.axis_2" />
      <g
         id="line2d_1">
        <path
           d="m 7.2,61.663813 15.721141,-9.956565 8.396518,-5.054128 7.145973,-4.047937 6.431376,-3.38763 5.895427,-2.854121 5.538129,-2.433936 5.180831,-2.039131 5.002181,-1.734418 4.823532,-1.441633 4.644882,-1.164194 4.644882,-0.936492 4.466234,-0.679905 4.466233,-0.459397 4.466233,-0.236054 4.466233,-0.01125 4.466235,0.213616 4.46623,0.437168 4.46623,0.658021 4.64489,0.914243 4.64488,1.142614 4.82353,1.420083 5.00218,1.713161 5.18083,2.018459 5.35948,2.33178 5.71678,2.73727 6.07408,3.160754 6.61002,3.693635 7.50327,4.4518 9.28977,5.781239 31.08498,19.563093 7.32462,4.222501 6.61003,3.555832 5.89543,2.926844 5.53813,2.510053 5.35947,2.185292 5.00219,1.805883 4.82353,1.514227 4.82353,1.280148 4.64488,1.002885 4.64489,0.770575 4.46623,0.517057 4.46623,0.294319 4.46623,0.06976 4.46624,-0.155221 4.46623,-0.379248 4.46623,-0.600935 4.64489,-0.856136 4.64488,-1.086178 4.82353,-1.363648 4.82353,-1.59408 5.00218,-1.884228 5.35948,-2.263506 5.53813,-2.583933 5.89543,-2.996959 6.43138,-3.521893 7.32462,-4.275847 8.75382,-5.384344 11.79085,-7.509366 v 0"
           clip-path="url(#pd096ce7dcf)"
           style="fill:none;stroke:#1f77b4;stroke-width:2.2;stroke-linecap:square"
           id="path3" />
      </g>
      <g
         id="text_1">
        <text
           style="font-size:11px;font-family:'DejaVu Sans', 'Bitstream Vera Sans', 'Computer Modern Sans Serif', 'Lucida Grande', Verdana, Geneva, Lucid, Arial, Helvetica, 'Avant Garde', sans-serif;text-anchor:middle"
           x="185.75999"
           y="15.558281"
           id="text3">Smooth 1D function (easy for splines)</text>
      </g>
    </g>
    <g
       id="axes_2">
      <g
         id="patch_3">
        <path
           d="M 7.2,210.05428 H 364.32 V 129.84322 H 7.2 Z"
           style="fill:none"
           id="path4" />
      </g>
      <g
         id="matplotlib.axis_3" />
      <g
         id="matplotlib.axis_4" />
      <g
         id="line2d_2">
        <path
           d="m 7.2,133.48917 0.178649,1.1316 0.17865,0.27476 0.178649,0.65344 0.357299,0.0473 0.178649,0.4588 0.357299,1.5541 0.178649,-0.35668 0.178649,0.20018 0.17865,-0.95262 0.178649,0.81883 0.178649,-0.0396 0.17865,0.30172 0.357298,-0.56416 0.17865,0.26108 0.357298,1.91442 0.178649,-0.0757 0.17865,0.67035 0.178649,-0.56053 0.357299,1.79371 0.178649,0.21868 0.535948,-1.01034 0.178649,0.1639 0.17865,0.32474 0.178649,-0.89194 0.178649,0.11134 0.17865,-0.96257 0.357298,1.16577 0.17865,0.31344 0.178649,-0.0556 0.178649,-0.20707 0.17865,0.18448 0.357298,1.43529 0.17865,-0.8884 0.178649,0.11976 0.178649,-1.00301 0.17865,0.47982 0.178649,0.15205 0.178649,-0.20018 0.357299,-0.88801 0.178649,0.27597 0.17865,0.53111 0.178649,1.13406 0.178649,-0.31602 0.17865,0.86236 0.178649,-0.20301 0.357299,2.01915 0.178649,0.34903 0.357298,-0.48356 0.17865,0.0856 0.178649,0.22402 0.178649,0.90747 0.17865,-0.99218 0.178649,0.26876 0.178649,-0.30209 0.535948,2.31994 0.357299,0.25689 0.535948,2.01516 0.178649,-0.967 0.17865,0.0294 0.178649,-0.83131 0.178649,0.0498 0.17865,0.21519 0.178649,-0.28641 0.357299,-1.34039 0.178649,0.27071 0.178649,0.0397 0.17865,1.0986 0.178649,-0.89335 0.178649,0.0962 0.17865,-0.23409 0.357298,0.83124 0.17865,-0.21617 0.357298,-1.39739 0.17865,0.0463 0.178649,-0.48835 0.178649,0.65191 0.178649,-1.20038 0.357299,-0.54508 0.178649,0.36754 0.357299,1.09121 0.357299,-0.35049 0.178649,1.00736 0.178649,0.17185 0.17865,1.17074 0.178649,-0.78153 0.357299,-0.37324 0.357298,0.51193 0.17865,-0.18597 0.357298,-0.91657 0.17865,0.78792 0.178649,-0.004 0.178649,1.35622 0.17865,-0.35472 0.178649,0.12405 0.178649,0.27256 0.357299,1.19713 0.178649,0.0193 0.17865,-0.60609 0.178649,-1.02884 0.178649,0.47429 0.17865,-0.61973 0.178649,0.36695 0.357299,-1.67611 0.178649,-0.1411 0.535948,0.87954 0.178649,-0.11517 0.178649,-0.54836 0.17865,0.94562 0.178649,-0.31084 0.178649,0.71192 0.535948,-1.92988 0.357299,0.22383 0.357299,-0.6806 0.178649,-0.82514 0.178649,1.16251 0.17865,0.15325 0.178649,0.99736 0.178649,-0.12853 0.17865,0.0831 0.357298,1.37512 0.17865,0.6727 0.357298,0.22108 0.17865,-0.80806 0.178649,1.04699 0.178649,-0.10819 0.17865,0.6202 0.357298,-0.61023 0.17865,0.23672 0.357298,1.8589 0.17865,0.16942 0.178649,0.51715 0.178649,-0.37033 0.17865,1.50016 0.178649,0.32685 0.178649,0.63015 0.535948,-0.89539 0.357299,0.3181 0.178649,-0.58944 0.178649,-0.0195 0.17865,-1.10892 0.178649,0.98932 0.178649,0.2751 0.17865,0.57866 0.178649,-0.0255 0.178649,-0.15081 0.17865,0.25817 0.357298,1.38212 0.17865,-0.63214 0.178649,-0.0448 0.178649,-1.14025 0.17865,0.68568 0.535948,-0.60738 0.178649,-0.37153 0.178649,0.20282 0.357299,1.76741 0.178649,-0.10291 0.17865,0.84918 0.178649,-0.45479 0.357299,1.94504 0.178649,0.43023 0.357299,-0.59138 0.178649,0.0751 0.357299,1.12332 0.178649,-0.73184 0.178649,0.35588 0.178649,-0.59256 0.357299,1.80204 0.357299,0.55394 0.178649,0.0937 0.357299,0.91274 0.178649,0.90492 0.178649,-0.85932 0.17865,0.1354 0.178649,-1.03714 0.357299,0.34886 0.178649,-0.30305 0.357299,-1.5139 0.178649,-0.01 0.178649,0.20143 0.17865,0.77956 0.178649,-0.90553 0.178649,0.3348 0.17865,-0.55601 0.357298,0.98367 0.17865,-0.22939 0.535948,-1.70983 0.178649,-0.41986 0.178649,0.50038 0.17865,-1.34248 0.178649,-0.17899 0.178649,-0.69497 0.535948,1.48149 0.357299,-0.22419 0.535948,2.00101 0.178649,-1.05855 0.178649,0.0153 0.17865,-0.57695 0.357298,0.35121 0.17865,-0.17386 0.357298,-0.93262 0.17865,0.50601 0.178649,0.10101 0.178649,1.33251 0.17865,-0.57815 0.178649,0.20105 0.178649,-0.12205 0.357299,1.08555 0.178649,-0.16299 0.357299,-1.58232 0.178649,0.12216 0.17865,-0.57672 0.178649,0.49945 0.178649,-1.3837 0.357299,-0.79943 0.178649,0.12327 0.17865,0.32278 0.178649,0.0612 0.357299,-0.96073 0.178649,0.63231 0.178649,-0.27753 0.17865,0.8234 0.357298,-1.62613 0.178649,-0.55889 0.357299,0.0686 0.178649,-0.42976 0.357299,-1.43843 0.178649,0.81263 0.17865,-0.12195 0.178649,1.15582 0.178649,-0.36285 0.17865,0.13212 0.178649,0.44072 0.357299,1.37475 0.178649,0.2257 0.178649,-0.19234 0.17865,-0.80398 0.178649,0.73552 0.178649,-0.29874 0.17865,0.73732 0.357298,-1.0286 0.17865,0.19322 0.535948,1.99501 0.178649,0.1957 0.178649,-0.27446 0.17865,1.39407 0.178649,-0.0289 0.178649,0.74579 0.535948,-1.43609 0.357299,0.12109 0.357298,-0.72061 0.17865,-1.02762 0.178649,0.93103 0.178649,0.008 0.17865,0.79995 0.357298,-0.67345 0.17865,0.21486 0.357298,0.90919 0.357299,-0.66465 0.178649,-1.18291 0.17865,0.76279 0.178649,-0.40683 0.178649,0.13718 0.357299,-0.97736 0.178649,0.0139 0.357299,1.41247 0.178649,0.0355 0.17865,0.48729 0.178649,-0.54038 0.178649,1.38037 0.357299,1.07016 0.178649,-0.23964 0.17865,-0.47616 0.178649,0.0526 0.357299,0.80344 0.178649,-0.59709 0.178649,0.19922 0.17865,-0.85555 0.357298,1.55565 0.17865,0.58062 0.535947,0.47579 0.357299,1.38525 0.178649,-0.62029 0.17865,-0.0624 0.178649,-1.33101 0.178649,0.4594 0.357299,-0.57195 0.357299,-1.53013 0.178649,-0.1471 0.357299,1.01052 0.178649,-0.73746 0.178649,0.40127 0.17865,-0.79125 0.178649,0.6727 0.178649,0.14902 0.17865,-0.15878 0.535948,-2.03859 0.178649,-0.17605 0.178649,0.29354 0.17865,-1.14886 0.178649,-0.0484 0.178649,-0.9855 0.357299,1.34781 0.178649,0.1846 0.357299,-0.20115 0.357299,0.83398 0.178649,0.88916 0.178649,-0.95494 0.178649,0.2017 0.17865,-0.76978 0.357298,0.54603 0.17865,-0.0921 0.357298,-0.91469 0.357299,0.57153 0.178649,1.14257 0.17865,-0.67016 0.178649,0.45835 0.178649,-0.35505 0.357299,1.39362 0.178649,-0.0991 0.357299,-1.28638 0.178649,-0.10072 0.17865,-0.44858 0.178649,0.43828 0.178649,-1.42078 0.17865,-0.25537 0.178649,-0.70123 0.535948,0.79308 0.357299,-0.60903 0.178649,0.40107 0.178649,0.0502 0.17865,0.93086 0.178649,-1.24164 0.178649,-0.33849 0.17865,-0.71514 0.178649,-0.0301 0.178649,0.11634 0.17865,-0.34044 0.357298,-1.18031 0.178649,0.67989 0.17865,0.0875 0.178649,1.32846 0.178649,-0.38949 0.535948,1.40413 0.17865,0.80222 0.178649,0.25234 0.357299,-0.80728 0.178649,0.56882 0.178649,-0.12945 0.17865,1.08616 0.178649,-0.80733 0.178649,-0.0455 0.17865,0.24567 0.535948,2.19054 0.178649,0.10681 0.178649,-0.0672 0.17865,1.21003 0.178649,0.0753 0.178649,1.07727 0.357299,-0.86233 0.178649,-0.24058 0.357299,0.40393 0.178649,-0.17416 0.357299,-1.31357 0.178649,0.87708 0.17865,-0.0909 0.178649,1.09608 0.178649,-0.42682 0.178649,-0.12917 0.17865,0.33716 0.357298,1.17461 0.17865,-0.0677 0.178649,-0.28262 0.178649,-0.89891 0.17865,0.67576 0.178649,-0.47877 0.178649,0.52325 0.357299,-1.06749 0.178649,0.12635 0.714598,2.40162 0.178649,-0.28869 0.178649,1.61181 0.17865,0.33275 0.178649,0.94636 0.357299,-0.64024 0.178649,0.0801 0.357299,0.85643 0.178649,-0.22698 0.178649,0.13916 0.17865,-0.59294 0.178649,1.31498 0.178649,0.32293 0.17865,1.07754 0.178649,0.15123 0.178649,-9.1e-4 0.17865,0.42709 0.357298,1.38145 0.3573,-0.37993 0.17865,-1.24812 0.17865,0.7734 0.17865,-0.259 0.17865,0.003 0.3573,-1.26811 0.17864,-0.0579 0.3573,0.97319 0.17865,-0.36652 0.17865,0.27276 0.17865,-0.81681 0.17865,0.96598 0.17865,0.007 0.17865,0.21343 0.17865,-0.48356 0.3573,-1.19369 0.3573,0.34446 0.17864,-0.8994 0.17865,-0.0372 0.17865,-1.08238 0.3573,1.39011 0.17865,0.40535 0.3573,0.0233 0.3573,1.21488 0.17865,0.81124 0.17865,-0.51306 0.17865,0.29059 0.17865,-0.99418 0.17865,0.64234 0.35729,0.0715 0.3573,-0.77463 0.17865,0.11568 0.3573,1.85317 0.17865,-0.44517 0.17865,0.66024 0.17865,-0.40801 0.3573,1.54601 0.17865,0.0163 0.53594,-1.42819 0.17865,-0.15661 0.17865,0.30073 0.17865,-1.18155 0.17865,0.0415 0.17865,-0.94478 0.3573,1.08515 0.17865,0.15409 0.3573,-0.48641 0.3573,0.4451 0.17865,0.84103 0.17865,-1.19361 0.17864,-0.12002 0.17865,-0.85745 0.3573,0.38511 0.17865,-0.2612 0.3573,-0.8906 0.3573,0.69295 0.17865,1.2432 0.17865,-0.50743 0.17865,0.68552 0.17865,-0.0622 0.53594,2.17831 0.3573,-0.57445 0.17865,0.42777 0.17865,0.0606 0.17865,1.03065 0.17865,-0.92559 0.17865,0.14993 0.17865,-0.0747 0.53595,2.22285 0.3573,0.36651 0.17864,0.91128 0.17865,0.29556 0.17865,1.28827 0.17865,-0.8126 0.17865,-0.0705 0.17865,-0.44203 0.17865,0.068 0.17865,0.25104 0.17865,-0.16768 0.3573,-1.33739 0.17865,0.69533 0.17865,0.0475 0.17865,1.19925 0.17865,-0.58699 0.35729,0.32367 0.3573,1.08901 0.17865,-0.0785 0.3573,-1.2674 0.17865,0.36458 0.17865,-0.53982 0.17865,0.80227 0.17865,-0.86869 0.17865,-0.28755 0.17865,0.0551 0.53594,2.00992 0.17865,0.0932 0.17865,-0.20085 0.17865,1.32279 0.17865,0.21176 0.17865,1.09299 0.17865,-0.57141 0.17865,-0.17634 0.17865,0.0506 0.3573,0.72171 0.17865,-0.006 0.17865,-0.2034 0.17865,-0.5388 0.17865,1.12326 0.17864,0.036 0.17865,1.21555 0.3573,-0.19408 0.17865,0.31446 0.3573,1.32523 0.17865,-0.12403 0.17865,-0.36024 0.17865,-1.08442 0.17865,0.63014 0.17865,-0.57649 0.17865,0.18357 0.3573,-1.74163 0.17864,-0.15726 0.3573,0.53964 0.3573,-0.0842 0.17865,-0.86278 0.17865,1.00118 0.17865,-0.21283 0.17865,0.35864 0.53595,-2.24417 0.35729,-0.0779 0.53595,-2.28792 0.17865,1.00088 0.17865,0.0404 0.17865,0.61633 0.3573,-0.26902 0.17865,0.32199 0.3573,1.08116 0.17865,-0.39184 0.17865,0.008 0.17865,-1.27251 0.17864,0.65759 0.17865,-0.1542 0.17865,0.098 0.3573,-1.05485 0.17865,0.0374 0.3573,1.41498 0.17865,-0.33884 0.17865,0.33708 0.17865,-0.72308 0.17865,1.07912 0.3573,0.10563 0.71459,-1.8207 0.17865,0.0233 0.17865,-1.12518 0.17865,-0.14875 0.17865,-1.32884 0.17865,0.51263 0.3573,0.26187 0.3573,-0.88539 0.17865,0.0432 0.3573,0.84042 0.17864,-1.05483 0.17865,-0.13099 0.17865,-1.27776 0.17865,0.3109 0.17865,-0.19081 0.7146,-1.74086 0.17865,0.39746 0.17865,1.02014 0.17865,-0.51088 0.17865,0.64564 0.17865,-0.38677 0.35729,1.69327 0.17865,0.23178 0.3573,-0.90745 0.3573,0.18124 0.17865,0.62681 0.17865,-1.04834 0.17865,0.29423 0.17865,-0.48553 0.53595,2.05884 0.35729,0.18121 0.3573,0.76476 0.17865,1.05058 0.17865,-0.9949 0.17865,-0.0965 0.17865,-0.86187 0.3573,0.32362 0.17865,-0.32415 0.3573,-1.32651 0.3573,0.37249 0.17865,0.99072 0.17864,-0.92898 0.17865,0.27718 0.17865,-0.25904 0.3573,0.83894 0.17865,-0.0864 0.3573,-1.35136 0.17865,0.0566 0.17865,-0.44414 0.17865,0.71818 0.17865,-1.14498 0.3573,-0.62358 0.53594,1.58904 0.3573,-0.11468 0.17865,0.96043 0.17865,0.22291 0.17865,1.22314 0.17865,-0.8176 0.17865,-0.0576 0.17865,-0.19708 0.53595,0.34004 0.3573,-1.03362 0.17864,0.78311 0.17865,0.0805 0.17865,1.32647 0.17865,-0.41664 0.3573,0.30264 0.3573,1.18615 0.17865,-0.15473 0.3573,-1.66986 0.17865,0.333 0.17865,-0.81374 0.17865,0.35665 0.35729,-1.85223 0.17865,-0.27415 0.53595,0.49688 0.17865,-0.2697 0.17865,-0.80208 0.17865,0.7176 0.17865,-0.3657 0.17865,0.54685 0.3573,-1.997 0.17865,-0.52972 0.35729,-0.227 0.3573,-1.20953 0.17865,-0.97146 0.17865,0.92129 0.17865,-0.25601 0.17865,0.75937 0.3573,-0.50469 0.17865,0.17353 0.3573,1.03231 0.3573,-0.3638 0.17865,-1.09501 0.17864,0.68923 0.17865,-0.3708 0.17865,0.38671 0.3573,-1.41616 0.17865,0.0462 0.3573,1.07829 0.17865,-0.0492 0.17865,0.20833 0.17865,-0.6844 0.17865,1.21495 0.17865,-0.0485 0.17865,0.3146 0.71459,-1.98774 0.17865,-0.11035 0.53595,-2.66418 0.17865,0.75615 0.17865,-0.0585 0.17865,0.37539 0.3573,-0.82004 0.17865,0.0851 0.3573,0.73166 0.17864,-0.83157 0.17865,-0.18977 0.17865,-1.41465 0.17865,0.41454 0.89325,-1.68864 0.3573,1.46366 0.17865,-0.18982 0.17865,0.54314 0.17865,-0.60606 0.35729,1.78228 0.17865,0.29066 0.53595,-0.68426 0.3573,0.99807 0.17865,-0.77773 0.17865,0.41857 0.17865,-0.63167 0.3573,1.65176 0.17865,0.55654 0.35729,0.17679 0.3573,1.08993 0.17865,0.94226 0.17865,-0.70739 0.17865,0.16344 0.17865,-1.03639 0.3573,0.67172 0.17865,-0.32964 0.3573,-1.15144 0.17865,0.0493 0.17865,0.32524 0.17865,0.93868 0.17864,-0.7184 0.17865,0.53167 0.17865,-0.3849 0.3573,1.24172 0.17865,0.0674 0.53595,-1.29481 0.17865,-0.0846 0.17865,0.62233 0.17865,-1.17677 0.17865,0.0926 0.17865,-0.53607 0.53594,2.13178 0.17865,0.015 0.17865,0.27077 0.53595,2.47472 0.17865,-0.76214 0.17865,0.20571 0.17865,-0.46028 0.3573,0.80355 0.17865,0.0511 0.3573,-0.56222 0.35729,1.0332 0.17865,1.4877 0.17865,-0.56948 0.17865,0.42422 0.17865,0.0755 0.3573,1.32692 0.17865,0.007 0.3573,-1.2629 0.17865,0.24991 0.17865,-0.52009 0.17865,0.57396 0.17865,-1.188 0.35729,-0.7802 0.17865,0.22607 0.17865,0.48016 0.17865,0.0745 0.3573,-0.83641 0.17865,0.6093 0.17865,-0.17178 0.17865,0.92248 0.3573,-1.7183 0.17865,-0.46341 0.35729,-0.10156 0.17865,-0.41763 0.3573,-1.46922 0.17865,0.71226 0.17865,-0.14327 0.17865,1.10893 0.17865,-0.40052 0.3573,0.40187 0.3573,1.3137 0.17865,0.12744 0.17865,-0.45049 0.17865,-0.83564 0.17864,0.65794 0.17865,-0.45398 0.17865,0.65793 0.3573,-1.28613 0.17865,0.12745 0.3573,1.3137 0.3573,0.40187 0.17865,-0.40053 0.17865,1.10893 0.17865,-0.14326 0.17865,0.71226 0.53594,-1.88685 0.3573,-0.10157 0.3573,-1.04063 0.17865,-1.14107 0.17865,0.92247 0.17865,-0.17178 0.17865,0.60931 0.3573,-0.83641 0.17865,0.0745 0.3573,0.70623 0.35729,-0.7802 0.17865,-1.18801 0.17865,0.57397 0.17865,-0.5201 0.17865,0.24992 0.3573,-1.2629 0.17865,0.007 0.3573,1.32691 0.17865,0.0755 0.17865,0.42422 0.17865,-0.56948 0.17865,1.4877 0.35729,1.0332 0.3573,-0.56222 0.17865,0.0511 0.3573,0.80355 0.17865,-0.46029 0.17865,0.20571 0.17865,-0.76213 0.17865,1.21972 0.17865,0.43627 0.17865,0.81873 0.17865,0.27077 0.17864,0.015 0.17865,0.43217 0.3573,1.69961 0.17865,-0.53607 0.17865,0.0926 0.17865,-1.17678 0.17865,0.62234 0.3573,-0.25517 0.3573,-1.12425 0.17865,0.0674 0.3573,1.24171 0.17864,-0.3849 0.17865,0.53168 0.17865,-0.7184 0.17865,0.93868 0.17865,0.32523 0.17865,0.0493 0.53595,-1.48108 0.17865,0.17281 0.17865,0.49891 0.17865,-1.03639 0.17865,0.16343 0.17865,-0.70738 0.3573,1.60999 0.17864,0.42219 0.3573,0.1768 0.3573,1.20937 0.17865,0.99893 0.17865,-0.63167 0.17865,0.41857 0.17865,-0.77773 0.3573,0.99807 0.17865,0.004 0.3573,-0.68777 0.17864,0.29065 0.17865,0.5206 0.17865,1.26169 0.17865,-0.60606 0.17865,0.54314 0.17865,-0.18982 0.3573,1.46366 0.17865,-0.0176 0.53595,-1.30814 0.17865,-0.36292 0.17865,0.41454 0.17865,-1.41465 0.17864,-0.18977 0.17865,-0.83157 0.17865,0.21845 0.17865,0.51321 0.17865,0.0851 0.3573,-0.82004 0.17865,0.37539 0.17865,-0.0585 0.17865,0.75615 0.17865,-1.34283 0.17865,-0.44005 0.17865,-0.8813 0.3573,-0.20886 0.53594,-1.88923 0.17865,0.3146 0.17865,-0.0485 0.17865,1.21496 0.17865,-0.6844 0.17865,0.20832 0.17865,-0.0491 0.3573,1.07828 0.17865,0.0462 0.3573,-1.41617 0.17864,0.38672 0.17865,-0.3708 0.17865,0.68923 0.17865,-1.09501 0.3573,-0.3638 0.53595,1.20584 0.3573,-0.5047 0.17865,0.75938 0.17865,-0.25601 0.17865,0.92129 0.35729,-1.62581 0.17865,-0.55518 0.3573,-0.227 0.17865,-0.52973 0.3573,-1.99699 0.17865,0.54685 0.17865,-0.3657 0.17865,0.7176 0.17865,-0.80208 0.17865,-0.2697 0.17865,0.0132 0.3573,0.48366 0.17864,-0.27415 0.17865,-0.66799 0.17865,-1.18424 0.17865,0.35665 0.17865,-0.81374 0.17865,0.333 0.3573,-1.66986 0.17865,-0.15473 0.53595,1.35314 0.17865,0.13565 0.17865,-0.41664 0.17865,1.32647 0.17864,0.0805 0.17865,0.78311 0.3573,-1.03362 0.17865,-0.0521 0.3573,0.39217 0.3573,-0.25467 0.17865,-0.8176 0.17865,1.22313 0.17865,0.22292 0.17865,0.96043 0.17865,0.002 0.17865,-0.11673 0.17864,0.28633 0.3573,1.30272 0.3573,-0.62359 0.17865,-1.14497 0.17865,0.71817 0.17865,-0.44413 0.17865,0.0566 0.3573,-1.35135 0.17865,-0.0864 0.3573,0.83894 0.17864,-0.25903 0.17865,0.27718 0.17865,-0.92898 0.17865,0.99071 0.3573,0.3725 0.53595,-1.65066 0.3573,0.32362 0.17865,-0.86188 0.17865,-0.0965 0.17865,-0.9949 0.17865,1.05057 0.53594,0.90175 0.17865,0.0442 0.17865,0.40075 0.3573,1.6581 0.17865,-0.48553 0.17865,0.29423 0.17865,-1.04834 0.17865,0.62681 0.3573,0.18124 0.3573,-0.90745 0.17864,0.23178 0.3573,1.69326 0.17865,-0.38677 0.17865,0.64565 0.17865,-0.51088 0.3573,1.4176 0.17865,-0.0816 0.7146,-1.85011 0.17865,0.31089 0.17865,-1.27775 0.17864,-0.13099 0.17865,-1.05483 0.3573,0.84042 0.17865,0.0432 0.3573,-0.88539 0.3573,0.26187 0.17865,0.51263 0.17865,-1.32884 0.17865,-0.14875 0.17865,-1.12519 0.3573,-0.0196 0.17865,-0.46348 0.35729,-1.31436 0.3573,0.10563 0.17865,1.07912 0.17865,-0.72308 0.17865,0.33708 0.17865,-0.33884 0.3573,1.41498 0.17865,0.0374 0.3573,-1.05485 0.17864,0.098 0.17865,-0.1542 0.17865,0.65759 0.17865,-1.27251 0.17865,0.008 0.17865,-0.39184 0.53595,1.40315 0.3573,-0.26902 0.17865,0.61633 0.17865,0.0404 0.17865,1.00088 0.17865,-1.08201 0.17864,-0.39108 0.17865,-0.81483 0.3573,-0.0779 0.17865,-0.56332 0.3573,-1.68085 0.17865,0.35864 0.17865,-0.21283 0.17865,1.00118 0.17865,-0.86278 0.3573,-0.0842 0.3573,0.53964 0.17864,-0.15725 0.3573,-1.74163 0.17865,0.18357 0.17865,-0.57649 0.17865,0.63014 0.17865,-1.08442 0.3573,-0.48427 0.53595,1.63969 0.3573,-0.19409 0.17865,1.21556 0.17864,0.036 0.17865,1.12326 0.3573,-0.7422 0.17865,-0.006 0.3573,0.72171 0.17865,0.0506 0.17865,-0.17635 0.17865,-0.5714 0.17865,1.09299 0.17865,0.21176 0.17865,1.32278 0.17865,-0.20084 0.17865,0.0931 0.35729,1.34041 0.17865,0.66952 0.17865,0.0551 0.17865,-0.28755 0.17865,-0.86869 0.17865,0.80226 0.17865,-0.53981 0.17865,0.36458 0.3573,-1.2674 0.17865,-0.0785 0.53594,1.23129 0.17865,0.18139 0.17865,-0.58699 0.17865,1.19924 0.17865,0.0475 0.17865,0.69534 0.53595,-1.50507 0.3573,0.31901 0.17865,-0.44203 0.17865,-0.0705 0.17865,-0.8126 0.17865,1.28827 0.17864,0.29556 0.17865,0.91128 0.3573,0.36651 0.17865,0.48954 0.3573,1.73331 0.17865,-0.0747 0.17865,0.14994 0.17865,-0.92559 0.17865,1.03065 0.17865,0.0606 0.17865,0.42777 0.3573,-0.57446 0.17864,0.36302 0.3573,1.8153 0.17865,-0.0622 0.17865,0.68552 0.17865,-0.50744 0.17865,1.24321 0.3573,0.69295 0.53595,-1.1518 0.3573,0.38511 0.17865,-0.85745 0.17864,-0.12002 0.17865,-1.19361 0.17865,0.84103 0.3573,0.4451 0.3573,-0.48641 0.17865,0.15408 0.3573,1.08516 0.17865,-0.94478 0.17865,0.0415 0.17865,-1.18156 0.17865,0.30073 0.3573,-0.39862 0.35729,-1.18617 0.17865,0.0163 0.17865,0.52946 0.17865,1.01655 0.17865,-0.40801 0.17865,0.66023 0.17865,-0.44516 0.3573,1.85317 0.17865,0.11568 0.3573,-0.77463 0.17864,-0.0234 0.17865,0.0949 0.17865,0.64234 0.17865,-0.99418 0.17865,0.29059 0.17865,-0.51306 0.53595,2.02611 0.3573,0.0233 0.3573,0.83647 0.17865,0.959 0.17865,-1.08239 0.17864,-0.0372 0.17865,-0.8994 0.3573,0.34446 0.17865,-0.38424 0.3573,-1.29301 0.17865,0.21343 0.17865,0.007 0.17865,0.96598 0.17865,-0.81682 0.17865,0.27276 0.17865,-0.36651 0.3573,0.97318 0.17864,-0.0579 0.3573,-1.26811 0.17865,0.003 0.17865,-0.25901 0.17865,0.77341 0.17865,-1.24812 0.3573,-0.37993 0.53595,1.80854 0.17865,-9.1e-4 0.17865,0.15123 0.17865,1.07754 0.17864,0.32292 0.17865,1.31499 0.17865,-0.59294 0.17865,0.13916 0.17865,-0.22698 0.53595,0.93649 0.3573,-0.64024 0.17865,0.94636 0.17865,0.33275 0.17865,1.61181 0.17865,-0.2887 0.35729,0.85103 0.3573,1.5506 0.17865,0.12635 0.17865,-0.3887 0.17865,-0.67879 0.17865,0.52324 0.17865,-0.47877 0.17865,0.67577 0.17865,-0.89891 0.17865,-0.28263 0.17865,-0.0677 0.53595,1.51178 0.17864,-0.12918 0.17865,-0.42681 0.17865,1.09608 0.17865,-0.0909 0.17865,0.87708 0.3573,-1.31357 0.17865,-0.17416 0.3573,0.40393 0.3573,-0.48365 0.17865,-0.61926 0.17865,1.07726 0.17864,0.0753 0.17865,1.21003 0.17865,-0.0672 0.17865,0.10681 0.17865,0.51469 0.3573,1.67585 0.17865,0.24567 0.17865,-0.0455 0.17865,-0.80733 0.17865,1.08616 0.17865,-0.12945 0.17865,0.56882 0.3573,-0.80729 0.17865,0.25235 0.35729,1.55197 0.17865,0.20866 0.17865,0.44572 0.17865,-0.3895 0.17865,1.32847 0.17865,0.0875 0.17865,0.67989 0.17865,-0.43133 0.3573,-1.08943 0.17865,0.11634 0.17865,-0.03 0.53594,-2.29527 0.17865,0.93086 0.17865,0.0502 0.17865,0.40107 0.3573,-0.60904 0.17865,0.11385 0.3573,0.67924 0.53595,-2.37738 0.17865,0.43828 0.17865,-0.44858 0.17864,-0.10072 0.53595,-1.38549 0.3573,1.39361 0.17865,-0.35504 0.17865,0.45835 0.17865,-0.67016 0.17865,1.14256 0.3573,0.57154 0.53595,-1.00675 0.35729,0.54603 0.17865,-0.76978 0.17865,0.2017 0.17865,-0.95494 0.3573,1.36692 0.17865,0.35622 0.3573,-0.20115 0.17865,0.1846 0.3573,1.34781 0.17865,-0.9855 0.17864,-0.0484 0.17865,-1.14886 0.17865,0.29354 0.17865,-0.17605 0.17865,-0.48573 0.3573,-1.55286 0.17865,-0.15879 0.17865,0.14903 0.17865,0.6727 0.17865,-0.79125 0.17865,0.40127 0.17865,-0.73746 0.3573,1.01052 0.17864,-0.1471 0.53595,-1.86994 0.17865,-0.23214 0.17865,0.45939 0.17865,-1.331 0.17865,-0.0624 0.17865,-0.62028 0.53595,1.69914 0.3573,0.1619 0.3573,1.00232 0.17864,1.13395 0.17865,-0.85555 0.17865,0.19922 0.17865,-0.59709 0.53595,0.85605 0.3573,-0.7158 0.3573,1.07016 0.17865,1.38037 0.17865,-0.54039 0.17865,0.4873 0.17864,0.0355 0.3573,1.41248 0.17865,0.0139 0.3573,-0.97736 0.17865,0.13717 0.17865,-0.40682 0.17865,0.76279 0.17865,-1.18291 0.3573,-0.66466 0.17865,0.32872 0.3573,0.79534 0.35729,-0.67345 0.17865,0.79995 0.17865,0.008 0.17865,0.93103 0.17865,-1.02763 0.53595,-0.70797 0.17865,0.10845 0.17865,-0.28666 0.3573,-1.14943 0.17865,0.7458 0.17865,-0.0289 0.17865,1.39407 0.17864,-0.27446 0.17865,0.1957 0.17865,0.37311 0.3573,1.6219 0.17865,0.19322 0.17865,-0.33429 0.17865,-0.69431 0.17865,0.73732 0.17865,-0.29874 0.17865,0.73552 0.17865,-0.80398 0.17865,-0.19234 0.17864,0.2257 0.53595,1.81547 0.17865,0.13211 0.17865,-0.36284 0.17865,1.15581 0.17865,-0.12194 0.17865,0.81263 0.53595,-1.86819 0.3573,0.0686 0.35729,-1.15276 0.17865,-1.03227 0.17865,0.8234 0.17865,-0.27752 0.17865,0.63231 0.3573,-0.96073 0.17865,0.0612 0.3573,0.44605 0.3573,-0.79943 0.17865,-1.3837 0.17865,0.49945 0.17865,-0.57672 0.17865,0.12216 0.35729,-1.58232 0.17865,-0.16299 0.3573,1.08555 0.17865,-0.12205 0.17865,0.20104 0.17865,-0.57814 0.17865,1.33251 0.17865,0.101 0.17865,0.50602 0.53595,-1.10648 0.35729,0.35121 0.17865,-0.57695 0.17865,0.0153 0.17865,-1.05855 0.17865,1.01316 0.17865,0.33279 0.17865,0.65506 0.3573,-0.2242 0.17865,0.29742 0.3573,1.18408 0.17865,-0.69497 0.17864,-0.17899 0.17865,-1.34248 0.17865,0.50038 0.53595,-1.43581 0.17865,-0.69388 0.17865,-0.22939 0.3573,0.98367 0.17865,-0.55602 0.17865,0.33481 0.17865,-0.90553 0.17865,0.77956 0.17865,0.20142 0.17865,-0.01 0.53594,-1.81695 0.17865,0.0887 0.17865,0.26021 0.17865,-1.03714 0.17865,0.1354 0.17865,-0.85932 0.3573,1.47065 0.17865,0.34701 0.3573,0.23143 0.35729,1.09862 0.17865,1.11964 0.17865,-0.59256 0.17865,0.35588 0.17865,-0.73184 0.3573,1.12332 0.17865,0.0751 0.3573,-0.59138 0.3573,1.14164 0.17865,1.23364 0.17865,-0.45479 0.17865,0.84918 0.17864,-0.10291 0.3573,1.76741 0.17865,0.20282 0.3573,-0.76681 0.17865,-0.0474 0.17865,-0.16473 0.17865,0.68568 0.17865,-1.14026 0.17865,-0.0448 0.17865,-0.63213 0.53595,1.64029 0.35729,-0.17635 0.53595,1.84308 0.17865,-1.10893 0.17865,-0.0194 0.17865,-0.58944 0.17865,0.0926 0.17865,0.22554 0.17865,-0.0852 0.3573,-0.81019 0.35729,0.95699 0.17865,1.50017 0.17865,-0.37033 0.17865,0.51715 0.17865,0.16942 0.3573,1.8589 0.17865,0.23672 0.3573,-0.61023 0.17865,0.6202 0.17865,-0.10819 0.17865,1.04699 0.17865,-0.80806 0.3573,0.22108 0.53594,2.04782 0.17865,0.0831 0.17865,-0.12853 0.17865,0.99735 0.17865,0.15325 0.17865,1.16252 0.3573,-1.1594 0.17865,-0.34634 0.3573,0.22383 0.17865,-0.38155 0.3573,-1.54834 0.17864,0.71193 0.17865,-0.31085 0.17865,0.94562 0.17865,-0.54835 0.17865,-0.11517 0.17865,0.0847 0.3573,0.79488 0.17865,-0.14111 0.17865,-0.55975 0.17865,-1.11635 0.17865,0.36694 0.17865,-0.61972 0.17864,0.47428 0.3573,-1.63492 0.17865,0.0193 0.53595,1.46969 0.17865,0.12404 0.17865,-0.35471 0.17865,1.35622 0.17865,-0.004 0.17865,0.78792 0.53595,-1.10255 0.35729,0.51194 0.3573,-0.37324 0.17865,-0.78154 0.17865,1.17075 0.17865,0.17185 0.17865,1.00736 0.3573,-0.3505 0.17865,0.36907 0.3573,1.08969 0.3573,-0.54508 0.17864,-1.20038 0.17865,0.6519 0.17865,-0.48834 0.17865,0.0463 0.3573,-1.39738 0.17865,-0.21617 0.3573,0.83124 0.17865,-0.23409 0.17865,0.0962 0.17865,-0.89335 0.17865,1.0986 0.17865,0.0397 0.17864,0.2707 0.53595,-1.62679 0.3573,0.26502 0.17865,-0.83132 0.17865,0.0294 0.17865,-0.967 0.17865,0.99893 0.17865,0.35385 0.17865,0.66238 0.3573,0.25689 0.17865,0.49764 0.3573,1.82229 0.17864,-0.30208 0.17865,0.26876 0.17865,-0.99218 0.17865,0.90747 0.3573,0.30967 0.3573,-0.48356 0.17865,0.34902 0.3573,2.01916 0.17865,-0.20301 0.17865,0.86235 0.17864,-0.31601 0.3573,1.66516 0.17865,0.27598 0.17865,-0.32349 0.3573,-0.7647 0.17865,0.15205 0.17865,0.47982 0.17865,-1.00302 0.17865,0.11977 0.17865,-0.8884 0.3573,1.43529 0.17865,0.18447 0.35729,-0.26265 0.3573,0.67714 0.17865,0.80208 0.17865,-0.96257 0.17865,0.11134 0.17865,-0.89194 0.3573,0.48864 0.17865,-0.13523 0.3573,-0.87511 0.17865,0.21868 0.17865,0.51221 0.17865,1.2815 0.17864,-0.56053 0.17865,0.67034 0.17865,-0.0757 0.3573,1.91441 0.17865,0.26109 0.3573,-0.56416 0.17865,0.30172 0.17865,-0.0396 0.17865,0.81883 0.17865,-0.95262 0.17865,0.20018 0.17864,-0.35668 0.53595,2.01289 0.3573,0.0473 0.53595,2.05979 v 0"
           clip-path="url(#p06f1a14f93)"
           style="fill:none;stroke:#fc5555;stroke-width:1.7;stroke-linecap:square"
           id="path5" />
      </g>
      <g
         id="text_2">
        <text
           style="font-size:11px;font-family:'DejaVu Sans', 'Bitstream Vera Sans', 'Computer Modern Sans Serif', 'Lucida Grande', Verdana, Geneva, Lucid, Arial, Helvetica, 'Avant Garde', sans-serif;text-anchor:middle"
           x="185.75999"
           y="123.84322"
           id="text5">Highly irregular / fractal-like (hard to learn)</text>
      </g>
    </g>
  </g>
  <defs
     id="defs6">
    <clipPath
       id="pd096ce7dcf">
      <rect
         x="7.1999998"
         y="21.558281"
         width="357.12"
         height="80.211067"
         id="rect5" />
    </clipPath>
    <clipPath
       id="p06f1a14f93">
      <rect
         x="7.1999998"
         y="129.84322"
         width="357.12"
         height="80.211067"
         id="rect6" />
    </clipPath>
  </defs>
</svg>
