<?xml version="1.0" encoding="UTF-8" standalone="no"?>
<svg
   width="528.732pt"
   height="188.803492pt"
   viewBox="23.920425 20.50905 528.732 188.8035"
   version="1.1"
   id="svg2"
   sodipodi:docname="silu_minimal.svg"
   xmlns:inkscape="http://www.inkscape.org/namespaces/inkscape"
   xmlns:sodipodi="http://sodipodi.sourceforge.net/DTD/sodipodi-0.dtd"
   xmlns="http://www.w3.org/2000/svg"
   xmlns:svg="http://www.w3.org/2000/svg"
   xmlns:rdf="http://www.w3.org/1999/02/22-rdf-syntax-ns#"
   xmlns:cc="http://creativecommons.org/ns#"
   xmlns:dc="http://purl.org/dc/elements/1.1/">
  <sodipodi:namedview
     id="namedview2"
     pagecolor="#ffffff"
     bordercolor="#000000"
     borderopacity="0.25"
     inkscape:showpageshadow="2"
     inkscape:pageopacity="0.0"
     inkscape:pagecheckerboard="0"
     inkscape:deskcolor="#d1d1d1"
     inkscape:document-units="pt" />
  <metadata
     id="metadata1">
    <rdf:RDF>
      <cc:Work>
        <dc:type
           rdf:resource="http://purl.org/dc/dcmitype/StillImage" />
        <dc:date>2026-01-11T10:14:52.020926</dc:date>
        <dc:format>image/svg+xml</dc:format>
        <dc:creator>
          <cc:Agent>
            <dc:title>Generated by adl-deep-dive</dc:title>
          </cc:Agent>
        </dc:creator>
      </cc:Work>
    </rdf:RDF>
  </metadata>
  <defs
     id="defs1">
    <style
       type="text/css"
       id="style1">*{stroke-linejoin: round; stroke-linecap: butt}</style>
  </defs>
  <g
     id="figure_1">
    <g
       id="patch_1">
      <path
         d="M 0,230.4 H 576 V 0 H 0 Z"
         style="fill:none"
         id="path1" />
    </g>
    <g
       id="axes_1">
      <g
         id="line2d_1">
        <path
           d="m 26.181818,199.32722 0.655365,0.005 0.655364,0.006 0.655365,0.006 0.655365,0.006 0.655364,0.006 0.655365,0.006 0.655365,0.006 0.655364,0.006 0.655365,0.006 0.655365,0.006 0.655364,0.006 0.655365,0.006 0.655365,0.006 0.655364,0.006 0.655365,0.006 0.655365,0.007 0.655364,0.007 0.655365,0.007 0.655365,0.007 0.655364,0.007 0.655365,0.007 0.655365,0.007 0.655364,0.007 0.655365,0.007 0.655365,0.007 0.655364,0.007 0.655365,0.007 0.655365,0.008 0.655364,0.008 0.655365,0.008 0.655364,0.008 0.655365,0.008 0.655365,0.008 0.655364,0.008 0.655365,0.008 0.655365,0.008 0.655364,0.008 0.655365,0.008 0.655365,0.009 0.655364,0.009 0.655365,0.009 0.655365,0.009 0.655364,0.009 0.655365,0.009 0.655365,0.009 0.655364,0.009 0.655365,0.009 0.655365,0.009 0.655364,0.01 0.655365,0.01 0.655365,0.01 0.655364,0.01 0.655365,0.01 0.655365,0.0101 0.655364,0.0102 0.655365,0.0103 0.655365,0.0105 0.655364,0.0106 0.655365,0.0107 0.655365,0.0108 0.655364,0.0109 0.655365,0.0111 0.655365,0.0112 0.655364,0.0113 0.655365,0.0114 0.655365,0.0115 0.655364,0.0117 0.655365,0.0118 0.655365,0.0119 0.655364,0.0121 0.655365,0.0122 0.655365,0.0123 0.655364,0.0125 0.655365,0.0126 0.655365,0.0128 0.655364,0.0129 0.655365,0.013 0.655365,0.0132 0.655364,0.0133 0.655365,0.0135 0.655365,0.0136 0.655364,0.0138 0.655365,0.0139 0.655365,0.0141 0.655364,0.0142 0.655365,0.0144 0.655364,0.0145 0.655365,0.0147 0.655365,0.0148 0.655364,0.015 0.655365,0.0152 0.655365,0.0153 0.655364,0.0155 0.655365,0.0156 0.655365,0.0158 0.655364,0.016 0.655365,0.0161 0.655365,0.0163 0.655364,0.0165 0.655365,0.0166 0.655365,0.0168 0.655364,0.017 0.655365,0.0172 0.655365,0.0173 0.655364,0.0175 0.655365,0.0177 0.655365,0.0179 0.655364,0.0181 0.655365,0.0182 0.655365,0.0184 0.655364,0.0186 0.655365,0.0188 0.65536,0.019 0.65537,0.0192 0.65536,0.0194 0.65537,0.0196 0.65536,0.0198 0.65537,0.02 0.65536,0.0201 0.65537,0.0204 0.65536,0.0206 0.65537,0.0207 0.65536,0.021 0.65537,0.0212 0.65536,0.0214 0.65537,0.0216 0.65536,0.0218 0.65537,0.022 0.65536,0.0222 0.65536,0.0224 0.65537,0.0226 0.65536,0.0228 0.65537,0.0231 0.65536,0.0233 0.65537,0.0235 0.65536,0.0237 0.65537,0.0239 0.65536,0.0242 0.65537,0.0244 0.65536,0.0246 0.65536,0.0248 0.65537,0.0251 0.65536,0.0253 0.65537,0.0255 0.65536,0.0257 0.65537,0.026 0.65536,0.0262 0.65537,0.0264 0.65536,0.0267 0.65537,0.0269 0.65536,0.0271 0.65537,0.0274 0.65536,0.0276 0.65537,0.0278 0.65536,0.0281 0.65536,0.0283 0.65537,0.0285 0.65536,0.0288 0.65537,0.029 0.65536,0.0293 0.65537,0.0295 0.65536,0.0297 0.65537,0.03 0.65536,0.0302 0.65537,0.0305 0.65536,0.0307 0.65537,0.031 0.65536,0.0312 0.65537,0.0315 0.65536,0.0317 0.65536,0.0319 0.65537,0.0322 0.65536,0.0324 0.65537,0.0327 0.65536,0.0329 0.65537,0.0332 0.65536,0.0334 0.65537,0.0336 0.65536,0.0339 0.65537,0.0341 0.65536,0.0344 0.65537,0.0346 0.65536,0.0349 0.65537,0.0351 0.65536,0.0353 0.65536,0.0356 0.65537,0.0358 0.65536,0.036 0.65537,0.0363 0.65536,0.0365 0.65537,0.0368 0.65536,0.037 0.65537,0.0372 0.65536,0.0374 0.65537,0.0377 0.65536,0.0379 0.65537,0.0381 0.65536,0.0383 0.65537,0.0385 0.65536,0.0388 0.65536,0.039 0.65537,0.0392 0.65536,0.0394 0.65537,0.0396 0.65536,0.0398 0.65537,0.04 0.65536,0.0402 0.65537,0.0404 0.65536,0.0406 0.65537,0.0408 0.65536,0.0409 0.65537,0.0411 0.65536,0.0413 0.65536,0.0415 0.65537,0.0416 0.65536,0.0418 0.65537,0.042 0.65536,0.0421 0.65537,0.0423 0.65536,0.0424 0.65537,0.0426 0.65536,0.0427 0.65537,0.0428 0.65536,0.0429 0.65537,0.0431 0.65536,0.0432 0.65537,0.0433 0.65536,0.0434 0.65536,0.0435 0.65537,0.0435 0.65536,0.0436 0.65537,0.0437 0.65536,0.0438 0.65537,0.0438 0.65536,0.0439 0.65537,0.0439 0.65536,0.0439 0.65537,0.044 0.65536,0.044 0.65537,0.044 0.65536,0.044 0.65537,0.044 0.65536,0.0439 0.65537,0.0439 0.65536,0.0439 0.65536,0.0438 0.65537,0.0438 0.65536,0.0437 0.65537,0.0436 0.65536,0.0435 0.65537,0.0434 0.65536,0.0433 0.65537,0.0432 0.65536,0.043 0.65537,0.0429 0.65536,0.0427 0.65537,0.0425 0.65536,0.0423 0.65536,0.0421 0.65537,0.0419 0.65536,0.0417 0.65537,0.0414 0.65536,0.0411 0.65537,0.0409 0.65536,0.0406 0.65537,0.0403 0.65536,0.0399 0.65537,0.0396 0.65536,0.0392 0.65537,0.0389 0.65536,0.0385 0.65537,0.0381 0.65536,0.0376 0.65536,0.0372 0.65537,0.0367 0.65536,0.0362 0.65537,0.0357 0.65536,0.0352 0.65537,0.0347 0.65536,0.0341 0.65537,0.0335 0.65536,0.0329 0.65537,0.0323 0.65536,0.0317 0.65537,0.031 0.65536,0.0303 0.65537,0.0296 0.65536,0.0289 0.65536,0.0281 0.65537,0.0274 0.65536,0.0266 0.65537,0.0258 0.65536,0.0249 0.65537,0.024 0.65536,0.0232 0.65537,0.0222 0.65536,0.0213 0.65537,0.0203 0.65536,0.0193 0.65537,0.0183 0.65536,0.0173 0.65537,0.0162 0.65536,0.0151 0.65536,0.014 0.65537,0.0128 0.65536,0.0117 0.65537,0.0105 0.65536,0.009 0.65537,0.008 0.65536,0.007 0.65537,0.005 0.65536,0.004 0.65537,0.003 0.65536,0.001 0.65537,-1.8e-4 0.65536,-0.002 0.65536,-0.003 0.65537,-0.005 0.65536,-0.006 0.65537,-0.008 0.65536,-0.009 0.65537,-0.011 0.65536,-0.0127 0.65537,-0.0144 0.65536,-0.0161 0.65537,-0.0179 0.65536,-0.0197 0.65537,-0.0215 0.65536,-0.0233 0.65537,-0.0252 0.65536,-0.0271 0.65536,-0.0291 0.65537,-0.031 0.65536,-0.033 0.65537,-0.0351 0.65536,-0.0371 0.65537,-0.0392 0.65536,-0.0414 0.65537,-0.0435 0.65536,-0.0457 0.65537,-0.0479 0.65536,-0.0501 0.65537,-0.0524 0.65536,-0.0547 0.65537,-0.0571 0.65536,-0.0594 0.65536,-0.0618 0.65537,-0.0642 0.65536,-0.0667 0.65537,-0.0692 0.65536,-0.0717 0.65537,-0.0742 0.65536,-0.0768 0.65537,-0.0794 0.65536,-0.082 0.65537,-0.0846 0.65536,-0.0873 0.65537,-0.09 0.65536,-0.0927 0.65537,-0.0955 0.65536,-0.0983 0.65537,-0.10106 0.65536,-0.10388 0.65536,-0.10673 0.65537,-0.1096 0.65536,-0.11249 0.65537,-0.11541 0.65536,-0.11834 0.65537,-0.1213 0.65536,-0.12427 0.65537,-0.12728 0.65536,-0.1303 0.65537,-0.13333 0.65536,-0.13639 0.65537,-0.13946 0.65536,-0.14255 0.65537,-0.14566 0.65536,-0.14879 0.65536,-0.15192 0.65537,-0.15508 0.65536,-0.15825 0.65537,-0.16144 0.65536,-0.16463 0.65537,-0.16783 0.65536,-0.17106 0.65537,-0.17428 0.65536,-0.17753 0.65537,-0.18078 0.65536,-0.18403 0.65537,-0.18731 0.65536,-0.19057 0.65536,-0.19386 0.65537,-0.19715 0.65536,-0.20044 0.65537,-0.20373 0.65536,-0.20703 0.65537,-0.21034 0.65536,-0.21365 0.65537,-0.21695 0.65536,-0.22026 0.65537,-0.22356 0.65536,-0.22688 0.65537,-0.23018 0.65536,-0.23348 0.65537,-0.23678 0.65536,-0.24008 0.65536,-0.24338 0.65537,-0.24665 0.65536,-0.24994 0.65537,-0.25322 0.65536,-0.25648 0.65537,-0.25974 0.65536,-0.26299 0.65537,-0.26624 0.65536,-0.26946 0.65537,-0.27268 0.65536,-0.27589 0.65537,-0.27908 0.65536,-0.28227 0.65537,-0.28544 0.65536,-0.28859 0.65536,-0.29173 0.65537,-0.29486 0.65536,-0.29796 0.65537,-0.30106 0.65536,-0.30413 0.65537,-0.30719 0.65536,-0.31022 0.65537,-0.31324 0.65536,-0.31624 0.65537,-0.31922 0.65536,-0.32218 0.65537,-0.32511 0.65536,-0.32803 0.65536,-0.33092 0.65537,-0.33378 0.65536,-0.33664 0.65537,-0.33946 0.65536,-0.34225 0.65537,-0.34504 0.65536,-0.34777 0.65537,-0.35051 0.65536,-0.3532 0.65537,-0.35587 0.65536,-0.35852 0.65537,-0.36113 0.65536,-0.36373 0.65537,-0.36629 0.65536,-0.36883 0.65536,-0.37133 0.65537,-0.37382 0.65537,-0.37626 0.65536,-0.37869 0.65536,-0.38108 0.65537,-0.38345 0.65536,-0.38578 0.65537,-0.38809 0.65536,-0.39036 0.65537,-0.39261 0.65536,-0.39482 0.65537,-0.39701 0.65536,-0.39917 0.65537,-0.40129 0.65536,-0.40338 0.65536,-0.40545 0.65537,-0.40748 0.65537,-0.40949 0.65536,-0.41145 0.65536,-0.4134 0.65537,-0.41531 0.65536,-0.41719 0.65537,-0.41904 0.65536,-0.42086 0.65537,-0.42265 0.65536,-0.42441 0.65537,-0.42614 0.65536,-0.42783 0.65537,-0.4295 0.65536,-0.43114 0.65536,-0.43275 0.65537,-0.43432 0.65536,-0.43587 0.65537,-0.43739 0.65536,-0.43888 0.65537,-0.44033 0.65536,-0.44177 0.65537,-0.44317 0.65536,-0.44454 0.65537,-0.44588 0.65536,-0.4472 0.65537,-0.44849 0.65536,-0.44975 0.65537,-0.45097 0.65536,-0.45218 0.65537,-0.45336 0.65536,-0.45451 0.65536,-0.45563 0.65537,-0.45672 0.65536,-0.45779 0.65537,-0.45884 0.65536,-0.45985 0.65537,-0.46085 0.65536,-0.46181 0.65537,-0.46275 0.65536,-0.46367 0.65537,-0.46457 0.65536,-0.46542 0.65537,-0.46628 0.65536,-0.46709 0.65536,-0.46789 0.65537,-0.46866 0.65536,-0.46942 0.65537,-0.47014 0.65536,-0.47085 0.65537,-0.47154 0.65536,-0.47219 0.65537,-0.47284 0.65536,-0.47346 0.65537,-0.47406 0.65536,-0.47464 0.65537,-0.47519 0.65536,-0.47574 0.65537,-0.47626 0.65536,-0.47675 0.65536,-0.47724 0.65537,-0.47771 0.65536,-0.47815 0.65537,-0.47857 0.65536,-0.47899 0.65537,-0.47938 0.65536,-0.47975 0.65537,-0.48011 0.65536,-0.48045 0.65537,-0.48078 0.65536,-0.48109 0.65537,-0.48139 0.65536,-0.48166 0.65537,-0.48193 0.65536,-0.48218 0.65536,-0.48241 0.65537,-0.48263 0.65536,-0.48284 0.65537,-0.48303 0.65536,-0.48322 0.65537,-0.48338 0.65536,-0.48353 0.65537,-0.48368 0.65536,-0.4838 0.65537,-0.48392 0.65536,-0.48403 0.65537,-0.48413 0.65536,-0.4842 0.65536,-0.48428 0.65537,-0.48434 0.65536,-0.48439 0.65537,-0.48444 0.65536,-0.48446 0.65537,-0.48448 0.65536,-0.4845 0.65537,-0.4845 0.65536,-0.48449 0.65537,-0.48447 0.65536,-0.48446 0.65537,-0.48442 0.65536,-0.48438 0.65537,-0.48433 0.65536,-0.48427 0.65536,-0.48421 0.65537,-0.48414 0.65536,-0.48406 0.65537,-0.48397 0.65536,-0.48389 0.65537,-0.48378 0.65536,-0.48368 0.65537,-0.48357 0.65536,-0.48346 0.65537,-0.48333 0.65536,-0.4832 0.65537,-0.48306 0.65536,-0.48293 0.65537,-0.48279 0.65536,-0.48263 0.65536,-0.48248 0.65537,-0.48233 0.65537,-0.48216 0.65536,-0.48199 0.65536,-0.48182 0.65537,-0.48165 0.65536,-0.48146 0.65537,-0.48129 0.65536,-0.48109 0.65537,-0.48091 0.65536,-0.48071 0.65537,-0.48052 0.65536,-0.48031 0.65537,-0.48011 0.65536,-0.47991 0.65536,-0.4797 0.65537,-0.47949 0.65536,-0.47928 0.65537,-0.47906 0.65536,-0.47884 0.65537,-0.47862 0.65536,-0.4784 0.65537,-0.47818 0.65536,-0.47795 0.65537,-0.47772 0.65536,-0.4775 0.65537,-0.47726 0.65536,-0.47703 0.65537,-0.4768 0.65536,-0.47656 0.65536,-0.47633 0.65537,-0.47609 0.65536,-0.47586 0.65537,-0.47561 0.65536,-0.47538 0.65537,-0.47513 0.65536,-0.4749 0.65537,-0.47465 0.65536,-0.47441 0.65537,-0.47417 0.65536,-0.47392 0.65537,-0.47368 0.65536,-0.47344 0.65537,-0.47319 0.65536,-0.47295 0.65537,-0.47271 0.65536,-0.47246 0.65536,-0.47222 0.65537,-0.471967 0.65536,-0.471729 0.65537,-0.471484 0.65536,-0.471241 0.65537,-0.470998 0.65536,-0.470755 0.65537,-0.470511 0.65536,-0.47027 0.65537,-0.470028 0.65536,-0.469786 0.65537,-0.469546 0.65536,-0.469305 0.65536,-0.469066 0.65537,-0.468826 0.65536,-0.468589 0.65537,-0.46835 0.65536,-0.468114 0.65537,-0.467878 0.65536,-0.467642 0.65537,-0.467408 0.65536,-0.467174 0.65537,-0.466942 0.65536,-0.466709 0.65537,-0.466479 0.65536,-0.466249 0.65537,-0.46602 0.65536,-0.465792 0.65536,-0.465565 0.65537,-0.46534 0.65536,-0.465114 0.65537,-0.464891 0.65536,-0.464669 0.65537,-0.464447 0.65536,-0.464227 0.65537,-0.464008 0.65536,-0.46379 0.65537,-0.463573 0.65536,-0.463358 0.65537,-0.463143 0.65536,-0.462931 0.65537,-0.462718 0.65536,-0.462508 0.65536,-0.462299 0.65537,-0.462091 0.65536,-0.461884 0.65537,-0.461679 0.65536,-0.461475 0.65537,-0.461272 0.65536,-0.461071 0.65537,-0.46087 0.65536,-0.460672 0.65537,-0.460474 0.65536,-0.460278 0.65537,-0.460084 0.65536,-0.45989 0.65536,-0.459698 0.65537,-0.459507 0.65536,-0.459318 0.65537,-0.45913 0.65536,-0.458944 0.65537,-0.458758 0.65536,-0.458575 0.65537,-0.458392 0.65536,-0.458211 0.65537,-0.458032 0.65536,-0.457853 0.65537,-0.457676 0.65536,-0.457501 0.65537,-0.457326 0.65536,-0.457154 0.65536,-0.456982 0.65537,-0.456813 0.65536,-0.456643 0.65537,-0.456476 0.65536,-0.456311 0.65537,-0.456146 0.65536,-0.455982 0.65537,-0.455821 0.65536,-0.45566 0.65537,-0.455501 0.65536,-0.455343 0.65537,-0.455187 0.65536,-0.455031 0.65537,-0.454878 0.65536,-0.454725 0.65536,-0.454575 0.65537,-0.454424 0.65536,-0.454276 0.65537,-0.454128 0.65536,-0.453983 0.65537,-0.453838 0.65536,-0.453695 0.65537,-0.453552 0.65536,-0.453412 0.65537,-0.453273 0.65536,-0.453134 0.65537,-0.452997 0.65536,-0.452862 0.65537,-0.452727 0.65536,-0.452594 0.65536,-0.452462 0.65537,-0.452331 0.65536,-0.452202 0.65537,-0.452073 0.65536,-0.451947 0.65537,-0.45182 0.65536,-0.451696 0.65537,-0.451572 0.65536,-0.45145 0.65537,-0.451329 0.65536,-0.451209 0.65537,-0.45109 0.65536,-0.450972 0.65537,-0.450855 0.65536,-0.450741 0.65536,-0.450626 0.65537,-0.450513 0.65536,-0.4504 0.65537,-0.45029 0.65536,-0.45018 0.65537,-0.450072 0.65536,-0.449963 0.65537,-0.449857 0.65536,-0.449752 0.65537,-0.449647 0.65536,-0.449543 0.65537,-0.449442 0.65536,-0.449339 0.65537,-0.44924 0.65536,-0.44914 0.65536,-0.449042 0.65537,-0.448945 0.65536,-0.448848 0.65537,-0.448753 0.65536,-0.448659 0.65537,-0.448565 0.65536,-0.448473 0.65537,-0.448382 0.65536,-0.448291 0.65537,-0.448202 0.65536,-0.448113 0.65537,-0.448025 0.65536,-0.447938 0.65537,-0.447853 0.65536,-0.447768 0.65536,-0.447683 0.65537,-0.447601 0.65536,-0.447518 0.65537,-0.447437 0.65536,-0.447356 0.65537,-0.447277 0.65536,-0.447198 0.65537,-0.447119 0.65536,-0.447043 0.65537,-0.446966 0.65536,-0.446891 0.65537,-0.446816 0.65536,-0.446742 0.65537,-0.446669 0.65536,-0.446597 0.65536,-0.446525 0.65537,-0.446454 0.65536,-0.446385 0.65537,-0.446315 0.65536,-0.446247 0.65537,-0.446179 0.65536,-0.446112 0.65537,-0.446046 0.65536,-0.44598"
           style="fill:none;stroke:#1f77b4;stroke-width:3;stroke-linecap:square"
           id="path2" />
      </g>
    </g>
  </g>
</svg>
