<?xml version="1.0" encoding="utf-8" standalone="no"?>
<!DOCTYPE svg PUBLIC "-//W3C//DTD SVG 1.1//EN"
  "http://www.w3.org/Graphics/SVG/1.1/DTD/svg11.dtd">
<svg xmlns:xlink="http://www.w3.org/1999/xlink" width="576pt" height="230.4pt" viewBox="0 0 576 230.4" xmlns="http://www.w3.org/2000/svg" version="1.1">
 <metadata>
  <rdf:RDF xmlns:dc="http://purl.org/dc/elements/1.1/" xmlns:cc="http://creativecommons.org/ns#" xmlns:rdf="http://www.w3.org/1999/02/22-rdf-syntax-ns#">
   <cc:Work>
    <dc:type rdf:resource="http://purl.org/dc/dcmitype/StillImage"/>
    <dc:date>2026-01-11T10:14:52.020926</dc:date>
    <dc:format>image/svg+xml</dc:format>
    <dc:creator>
     <cc:Agent>
      <dc:title>Generated by adl-deep-dive</dc:title>
     </cc:Agent>
    </dc:creator>
   </cc:Work>
  </rdf:RDF>
 </metadata>
 <defs>
  <style type="text/css">*{stroke-linejoin: round; stroke-linecap: butt}</style>
 </defs>
 <g id="figure_1">
  <g id="patch_1">
   <path d="M 0 230.4 
L 576 230.4 
L 576 0 
L 0 0 
L 0 230.4 
z
" style="fill: none"/>
  </g>
  <g id="axes_1">
   <g id="line2d_1">
    <path d="M 26.181818 199.327216 L 26.837183 199.332679 
L 27.492547 199.338207 
L 28.147912 199.343801 
L 28.803277 199.349462 
L 29.458641 199.355191 
L 30.114006 199.360989 
L 30.769371 199.366855 
L 31.424735 199.372792 
L 32.080100 199.378799 
L 32.735465 199.384878 
L 33.390829 199.391029 
L 34.046194 199.397254 
L 34.701559 199.403552 
L 35.356923 199.409925 
L 36.012288 199.416373 
L 36.667653 199.422898 
L 37.323017 199.429500 
L 37.978382 199.436180 
L 38.633747 199.442938 
L 39.289111 199.449777 
L 39.944476 199.456696 
L 40.599841 199.463696 
L 41.255205 199.470779 
L 41.910570 199.477945 
L 42.565935 199.485195 
L 43.221299 199.492530 
L 43.876664 199.499950 
L 44.532029 199.507458 
L 45.187393 199.515053 
L 45.842758 199.522737 
L 46.498122 199.530510 
L 47.153487 199.538374 
L 47.808852 199.546329 
L 48.464216 199.554377 
L 49.119581 199.562518 
L 49.774946 199.570753 
L 50.430310 199.579083 
L 51.085675 199.587510 
L 51.741040 199.596034 
L 52.396404 199.604657 
L 53.051769 199.613379 
L 53.707134 199.622201 
L 54.362498 199.631124 
L 55.017863 199.640150 
L 55.673228 199.649279 
L 56.328592 199.658513 
L 56.983957 199.667852 
L 57.639322 199.677298 
L 58.294686 199.686851 
L 58.950051 199.696513 
L 59.605416 199.706285 
L 60.260780 199.716168 
L 60.916145 199.726163 
L 61.571510 199.736272 
L 62.226874 199.746494 
L 62.882239 199.756832 
L 63.537604 199.767286 
L 64.192968 199.777859 
L 64.848333 199.788550 
L 65.503698 199.799360 
L 66.159062 199.810293 
L 66.814427 199.821347 
L 67.469792 199.832525 
L 68.125156 199.843828 
L 68.780521 199.855256 
L 69.435886 199.866812 
L 70.091250 199.878496 
L 70.746615 199.890309 
L 71.401980 199.902253 
L 72.057344 199.914329 
L 72.712709 199.926539 
L 73.368074 199.938883 
L 74.023438 199.951362 
L 74.678803 199.963978 
L 75.334168 199.976733 
L 75.989532 199.989627 
L 76.644897 200.002662 
L 77.300262 200.015839 
L 77.955626 200.029159 
L 78.610991 200.042624 
L 79.266356 200.056235 
L 79.921720 200.069993 
L 80.577085 200.083899 
L 81.232450 200.097956 
L 81.887814 200.112163 
L 82.543179 200.126523 
L 83.198543 200.141037 
L 83.853908 200.155706 
L 84.509273 200.170531 
L 85.164637 200.185514 
L 85.820002 200.200657 
L 86.475367 200.215960 
L 87.130731 200.231424 
L 87.786096 200.247052 
L 88.441461 200.262845 
L 89.096825 200.278803 
L 89.752190 200.294929 
L 90.407555 200.311224 
L 91.062919 200.327688 
L 91.718284 200.344324 
L 92.373649 200.361133 
L 93.029013 200.378116 
L 93.684378 200.395274 
L 94.339743 200.412609 
L 94.995107 200.430123 
L 95.650472 200.447816 
L 96.305837 200.465691 
L 96.961201 200.483747 
L 97.616566 200.501988 
L 98.271931 200.520414 
L 98.927295 200.539026 
L 99.582660 200.557826 
L 100.238025 200.576816 
L 100.893389 200.595996 
L 101.548754 200.615368 
L 102.204119 200.634934 
L 102.859483 200.654694 
L 103.514848 200.674651 
L 104.170213 200.694805 
L 104.825577 200.715157 
L 105.480942 200.735710 
L 106.136307 200.756464 
L 106.791671 200.777421 
L 107.447036 200.798582 
L 108.102401 200.819949 
L 108.757765 200.841522 
L 109.413130 200.863303 
L 110.068495 200.885293 
L 110.723859 200.907494 
L 111.379224 200.929907 
L 112.034589 200.952532 
L 112.689953 200.975372 
L 113.345318 200.998428 
L 114.000683 201.021700 
L 114.656047 201.045190 
L 115.311412 201.068899 
L 115.966777 201.092828 
L 116.622141 201.116979 
L 117.277506 201.141352 
L 117.932871 201.165949 
L 118.588235 201.190771 
L 119.243600 201.215818 
L 119.898964 201.241092 
L 120.554329 201.266595 
L 121.209694 201.292326 
L 121.865058 201.318287 
L 122.520423 201.344479 
L 123.175788 201.370902 
L 123.831152 201.397559 
L 124.486517 201.424449 
L 125.141882 201.451573 
L 125.797246 201.478933 
L 126.452611 201.506529 
L 127.107976 201.534362 
L 127.763340 201.562432 
L 128.418705 201.590741 
L 129.074070 201.619289 
L 129.729434 201.648076 
L 130.384799 201.677104 
L 131.040164 201.706373 
L 131.695528 201.735883 
L 132.350893 201.765635 
L 133.006258 201.795629 
L 133.661622 201.825865 
L 134.316987 201.856345 
L 134.972352 201.887068 
L 135.627716 201.918035 
L 136.283081 201.949246 
L 136.938446 201.980701 
L 137.593810 202.012399 
L 138.249175 202.044343 
L 138.904540 202.076530 
L 139.559904 202.108961 
L 140.215269 202.141637 
L 140.870634 202.174556 
L 141.525998 202.207719 
L 142.181363 202.241126 
L 142.836728 202.274776 
L 143.492092 202.308668 
L 144.147457 202.342802 
L 144.802822 202.377178 
L 145.458186 202.411796 
L 146.113551 202.446653 
L 146.768916 202.481750 
L 147.424280 202.517086 
L 148.079645 202.552659 
L 148.735010 202.588470 
L 149.390374 202.624516 
L 150.045739 202.660797 
L 150.701104 202.697311 
L 151.356468 202.734057 
L 152.011833 202.771033 
L 152.667198 202.808239 
L 153.322562 202.845672 
L 153.977927 202.883330 
L 154.633292 202.921213 
L 155.288656 202.959317 
L 155.944021 202.997642 
L 156.599386 203.036184 
L 157.254750 203.074942 
L 157.910115 203.113913 
L 158.565479 203.153095 
L 159.220844 203.192485 
L 159.876209 203.232080 
L 160.531573 203.271878 
L 161.186938 203.311876 
L 161.842303 203.352071 
L 162.497667 203.392459 
L 163.153032 203.433037 
L 163.808397 203.473803 
L 164.463761 203.514751 
L 165.119126 203.555878 
L 165.774491 203.597181 
L 166.429855 203.638656 
L 167.085220 203.680298 
L 167.740585 203.722103 
L 168.395949 203.764067 
L 169.051314 203.806184 
L 169.706679 203.848451 
L 170.362043 203.890861 
L 171.017408 203.933411 
L 171.672773 203.976095 
L 172.328137 204.018907 
L 172.983502 204.061842 
L 173.638867 204.104894 
L 174.294231 204.148056 
L 174.949596 204.191324 
L 175.604961 204.234690 
L 176.260325 204.278148 
L 176.915690 204.321691 
L 177.571055 204.365312 
L 178.226419 204.409004 
L 178.881784 204.452760 
L 179.537149 204.496573 
L 180.192513 204.540434 
L 180.847878 204.584336 
L 181.503243 204.628270 
L 182.158607 204.672228 
L 182.813972 204.716202 
L 183.469337 204.760182 
L 184.124701 204.804160 
L 184.780066 204.848126 
L 185.435431 204.892072 
L 186.090795 204.935986 
L 186.746160 204.979859 
L 187.401525 205.023682 
L 188.056889 205.067443 
L 188.712254 205.111132 
L 189.367619 205.154737 
L 190.022983 205.198248 
L 190.678348 205.241654 
L 191.333713 205.284942 
L 191.989077 205.328100 
L 192.644442 205.371116 
L 193.299807 205.413979 
L 193.955171 205.456674 
L 194.610536 205.499189 
L 195.265900 205.541511 
L 195.921265 205.583626 
L 196.576630 205.625520 
L 197.231994 205.667179 
L 197.887359 205.708589 
L 198.542724 205.749734 
L 199.198088 205.790600 
L 199.853453 205.831172 
L 200.508818 205.871434 
L 201.164182 205.911370 
L 201.819547 205.950964 
L 202.474912 205.990199 
L 203.130276 206.029060 
L 203.785641 206.067527 
L 204.441006 206.105586 
L 205.096370 206.143216 
L 205.751735 206.180402 
L 206.407100 206.217124 
L 207.062464 206.253364 
L 207.717829 206.289103 
L 208.373194 206.324322 
L 209.028558 206.359001 
L 209.683923 206.393121 
L 210.339288 206.426662 
L 210.994652 206.459602 
L 211.650017 206.491923 
L 212.305382 206.523601 
L 212.960746 206.554617 
L 213.616111 206.584949 
L 214.271476 206.614574 
L 214.926840 206.643471 
L 215.582205 206.671617 
L 216.237570 206.698990 
L 216.892934 206.725565 
L 217.548299 206.751321 
L 218.203664 206.776232 
L 218.859028 206.800276 
L 219.514393 206.823428 
L 220.169758 206.845663 
L 220.825122 206.866957 
L 221.480487 206.887285 
L 222.135852 206.906621 
L 222.791216 206.924940 
L 223.446581 206.942215 
L 224.101946 206.958421 
L 224.757310 206.973532 
L 225.412675 206.987520 
L 226.068040 207.000359 
L 226.723404 207.012022 
L 227.378769 207.022481 
L 228.034134 207.031709 
L 228.689498 207.039678 
L 229.344863 207.046360 
L 230.000228 207.051726 
L 230.655592 207.055749 
L 231.310957 207.058400 
L 231.966321 207.059649 
L 232.621686 207.059468 
L 233.277051 207.057828 
L 233.932415 207.054700 
L 234.587780 207.050053 
L 235.243145 207.043858 
L 235.898509 207.036086 
L 236.553874 207.026707 
L 237.209239 207.015690 
L 237.864603 207.003006 
L 238.519968 206.988624 
L 239.175333 206.972514 
L 239.830697 206.954645 
L 240.486062 206.934987 
L 241.141427 206.913511 
L 241.796791 206.890184 
L 242.452156 206.864976 
L 243.107521 206.837858 
L 243.762885 206.808797 
L 244.418250 206.777764 
L 245.073615 206.744728 
L 245.728979 206.709659 
L 246.384344 206.672525 
L 247.039709 206.633297 
L 247.695073 206.591944 
L 248.350438 206.548436 
L 249.005803 206.502741 
L 249.661167 206.454832 
L 250.316532 206.404676 
L 250.971897 206.352245 
L 251.627261 206.297508 
L 252.282626 206.240437 
L 252.937991 206.181001 
L 253.593355 206.119172 
L 254.248720 206.054920 
L 254.904085 205.988217 
L 255.559449 205.919034 
L 256.214814 205.847343 
L 256.870179 205.773117 
L 257.525543 205.696326 
L 258.180908 205.616944 
L 258.836273 205.534943 
L 259.491637 205.450298 
L 260.147002 205.362980 
L 260.802367 205.272965 
L 261.457731 205.180227 
L 262.113096 205.084739 
L 262.768461 204.986478 
L 263.423825 204.885418 
L 264.079190 204.781536 
L 264.734555 204.674807 
L 265.389919 204.565209 
L 266.045284 204.452718 
L 266.700649 204.337313 
L 267.356013 204.218972 
L 268.011378 204.097673 
L 268.666743 203.973396 
L 269.322107 203.846119 
L 269.977472 203.715825 
L 270.632836 203.582493 
L 271.288201 203.446105 
L 271.943566 203.306643 
L 272.598930 203.164090 
L 273.254295 203.018428 
L 273.909660 202.869642 
L 274.565024 202.717716 
L 275.220389 202.562636 
L 275.875754 202.404386 
L 276.531118 202.242953 
L 277.186483 202.078325 
L 277.841848 201.910489 
L 278.497212 201.739433 
L 279.152577 201.565147 
L 279.807942 201.387621 
L 280.463306 201.206844 
L 281.118671 201.022808 
L 281.774036 200.835505 
L 282.429400 200.644927 
L 283.084765 200.451069 
L 283.740130 200.253923 
L 284.395494 200.053485 
L 285.050859 199.849751 
L 285.706224 199.642716 
L 286.361588 199.432378 
L 287.016953 199.218734 
L 287.672318 199.001783 
L 288.327682 198.781524 
L 288.983047 198.557957 
L 289.638412 198.331083 
L 290.293776 198.100904 
L 290.949141 197.867421 
L 291.604506 197.630638 
L 292.259870 197.390558 
L 292.915235 197.147185 
L 293.570600 196.900526 
L 294.225964 196.650586 
L 294.881329 196.397371 
L 295.536694 196.140889 
L 296.192058 195.881148 
L 296.847423 195.618157 
L 297.502788 195.351925 
L 298.158152 195.082463 
L 298.813517 194.809781 
L 299.468882 194.533892 
L 300.124246 194.254806 
L 300.779611 193.972538 
L 301.434976 193.687101 
L 302.090340 193.398509 
L 302.745705 193.106777 
L 303.401070 192.811921 
L 304.056434 192.513957 
L 304.711799 192.212901 
L 305.367164 191.908771 
L 306.022528 191.601585 
L 306.677893 191.291362 
L 307.333257 190.978120 
L 307.988622 190.661880 
L 308.643987 190.342661 
L 309.299351 190.020485 
L 309.954716 189.695372 
L 310.610081 189.367344 
L 311.265445 189.036425 
L 311.920810 188.702636 
L 312.576175 188.366000 
L 313.231539 188.026542 
L 313.886904 187.684286 
L 314.542269 187.339255 
L 315.197633 186.991476 
L 315.852998 186.640974 
L 316.508363 186.287773 
L 317.163727 185.931901 
L 317.819092 185.573383 
L 318.474457 185.212248 
L 319.129821 184.848521 
L 319.785186 184.482230 
L 320.440551 184.113403 
L 321.095915 183.742068 
L 321.751280 183.368253 
L 322.406645 182.991987 
L 323.062009 182.613298 
L 323.717374 182.232216 
L 324.372739 181.848770 
L 325.028103 181.462989 
L 325.683468 181.074902 
L 326.338833 180.684540 
L 326.994197 180.291932 
L 327.649562 179.897108 
L 328.304927 179.500099 
L 328.960291 179.100934 
L 329.615656 178.699645 
L 330.271021 178.296260 
L 330.926385 177.890812 
L 331.581750 177.483330 
L 332.237115 177.073845 
L 332.892479 176.662388 
L 333.547844 176.248988 
L 334.203209 175.833678 
L 334.858573 175.416487 
L 335.513938 174.997446 
L 336.169303 174.576586 
L 336.824667 174.153937 
L 337.480032 173.729529 
L 338.135397 173.303393 
L 338.790761 172.875560 
L 339.446126 172.446059 
L 340.101491 172.014920 
L 340.756855 171.582175 
L 341.412220 171.147851 
L 342.067585 170.711980 
L 342.722949 170.274591 
L 343.378314 169.835713 
L 344.033679 169.395376 
L 344.689043 168.953609 
L 345.344408 168.510441 
L 345.999772 168.065900 
L 346.655137 167.620016 
L 347.310502 167.172816 
L 347.965866 166.724329 
L 348.621231 166.274584 
L 349.276596 165.823607 
L 349.931960 165.371426 
L 350.587325 164.918069 
L 351.242690 164.463563 
L 351.898054 164.007935 
L 352.553419 163.551211 
L 353.208784 163.093417 
L 353.864148 162.634581 
L 354.519513 162.174727 
L 355.174878 161.713882 
L 355.830242 161.252070 
L 356.485607 160.789317 
L 357.140972 160.325647 
L 357.796336 159.861085 
L 358.451701 159.395656 
L 359.107066 158.929383 
L 359.762430 158.462289 
L 360.417795 157.994399 
L 361.073160 157.525736 
L 361.728524 157.056321 
L 362.383889 156.586178 
L 363.039254 156.115328 
L 363.694618 155.643794 
L 364.349983 155.171598 
L 365.005348 154.698760 
L 365.660712 154.225301 
L 366.316077 153.751243 
L 366.971442 153.276605 
L 367.626806 152.801408 
L 368.282171 152.325671 
L 368.937536 151.849414 
L 369.592900 151.372657 
L 370.248265 150.895417 
L 370.903630 150.417713 
L 371.558994 149.939565 
L 372.214359 149.460989 
L 372.869724 148.982003 
L 373.525088 148.502625 
L 374.180453 148.022872 
L 374.835818 147.542760 
L 375.491182 147.062306 
L 376.146547 146.581527 
L 376.801912 146.100437 
L 377.457276 145.619053 
L 378.112641 145.137390 
L 378.768006 144.655462 
L 379.423370 144.173285 
L 380.078735 143.690874 
L 380.734100 143.208241 
L 381.389464 142.725401 
L 382.044829 142.242368 
L 382.700193 141.759155 
L 383.355558 141.275775 
L 384.010923 140.792241 
L 384.666287 140.308565 
L 385.321652 139.824759 
L 385.977017 139.340836 
L 386.632381 138.856807 
L 387.287746 138.372683 
L 387.943111 137.888477 
L 388.598475 137.404198 
L 389.253840 136.919858 
L 389.909205 136.435466 
L 390.564569 135.951034 
L 391.219934 135.466571 
L 391.875299 134.982087 
L 392.530663 134.497591 
L 393.186028 134.013093 
L 393.841393 133.528602 
L 394.496757 133.044126 
L 395.152122 132.559674 
L 395.807487 132.075254 
L 396.462851 131.590875 
L 397.118216 131.106545 
L 397.773581 130.622271 
L 398.428945 130.138061 
L 399.084310 129.653922 
L 399.739675 129.169861 
L 400.395039 128.685885 
L 401.050404 128.202002 
L 401.705769 127.718216 
L 402.361133 127.234536 
L 403.016498 126.750966 
L 403.671863 126.267514 
L 404.327227 125.784184 
L 404.982592 125.300982 
L 405.637957 124.817915 
L 406.293321 124.334986 
L 406.948686 123.852202 
L 407.604051 123.369566 
L 408.259415 122.887085 
L 408.914780 122.404762 
L 409.570145 121.922602 
L 410.225509 121.440610 
L 410.880874 120.958789 
L 411.536239 120.477143 
L 412.191603 119.995677 
L 412.846968 119.514395 
L 413.502333 119.033298 
L 414.157697 118.552392 
L 414.813062 118.071680 
L 415.468427 117.591164 
L 416.123791 117.110848 
L 416.779156 116.630735 
L 417.434521 116.150827 
L 418.089885 115.671127 
L 418.745250 115.191639 
L 419.400614 114.712363 
L 420.055979 114.233303 
L 420.711344 113.754461 
L 421.366708 113.275838 
L 422.022073 112.797438 
L 422.677438 112.319262 
L 423.332802 111.841311 
L 423.988167 111.363588 
L 424.643532 110.886093 
L 425.298896 110.408829 
L 425.954261 109.931798 
L 426.609626 109.454999 
L 427.264990 108.978435 
L 427.920355 108.502107 
L 428.575720 108.026016 
L 429.231084 107.550162 
L 429.886449 107.074547 
L 430.541814 106.599172 
L 431.197178 106.124037 
L 431.852543 105.649143 
L 432.507908 105.174491 
L 433.163272 104.700081 
L 433.818637 104.225913 
L 434.474002 103.751989 
L 435.129366 103.278308 
L 435.784731 102.804871 
L 436.440096 102.331677 
L 437.095460 101.858728 
L 437.750825 101.386023 
L 438.406190 100.913562 
L 439.061554 100.441345 
L 439.716919 99.969373 
L 440.372284 99.497644 
L 441.027648 99.026160 
L 441.683013 98.554919 
L 442.338378 98.083921 
L 442.993742 97.613166 
L 443.649107 97.142655 
L 444.304472 96.672385 
L 444.959836 96.202357 
L 445.615201 95.732571 
L 446.270566 95.263025 
L 446.925930 94.793720 
L 447.581295 94.324654 
L 448.236660 93.855828 
L 448.892024 93.387239 
L 449.547389 92.918889 
L 450.202754 92.450775 
L 450.858118 91.982897 
L 451.513483 91.515255 
L 452.168848 91.047847 
L 452.824212 90.580673 
L 453.479577 90.113731 
L 454.134942 89.647022 
L 454.790306 89.180543 
L 455.445671 88.714294 
L 456.101036 88.248274 
L 456.756400 87.782482 
L 457.411765 87.316917 
L 458.067129 86.851577 
L 458.722494 86.386463 
L 459.377859 85.921572 
L 460.033223 85.456903 
L 460.688588 84.992456 
L 461.343953 84.528229 
L 461.999317 84.064221 
L 462.654682 83.600431 
L 463.310047 83.136858 
L 463.965411 82.673500 
L 464.620776 82.210357 
L 465.276141 81.747426 
L 465.931505 81.284708 
L 466.586870 80.822200 
L 467.242235 80.359901 
L 467.897599 79.897810 
L 468.552964 79.435926 
L 469.208329 78.974247 
L 469.863693 78.512772 
L 470.519058 78.051500 
L 471.174423 77.590429 
L 471.829787 77.129559 
L 472.485152 76.668887 
L 473.140517 76.208413 
L 473.795881 75.748135 
L 474.451246 75.288051 
L 475.106611 74.828161 
L 475.761975 74.368463 
L 476.417340 73.908956 
L 477.072705 73.449638 
L 477.728069 72.990508 
L 478.383434 72.531564 
L 479.038799 72.072806 
L 479.694163 71.614231 
L 480.349528 71.155839 
L 481.004893 70.697628 
L 481.660257 70.239596 
L 482.315622 69.781743 
L 482.970987 69.324067 
L 483.626351 68.866566 
L 484.281716 68.409240 
L 484.937081 67.952086 
L 485.592445 67.495104 
L 486.247810 67.038291 
L 486.903175 66.581648 
L 487.558539 66.125172 
L 488.213904 65.668861 
L 488.869269 65.212715 
L 489.524633 64.756733 
L 490.179998 64.300912 
L 490.835363 63.845252 
L 491.490727 63.389751 
L 492.146092 62.934408 
L 492.801457 62.479221 
L 493.456821 62.024190 
L 494.112186 61.569312 
L 494.767550 61.114587 
L 495.422915 60.660012 
L 496.078280 60.205588 
L 496.733644 59.751312 
L 497.389009 59.297184 
L 498.044374 58.843201 
L 498.699738 58.389363 
L 499.355103 57.935668 
L 500.010468 57.482116 
L 500.665832 57.028704 
L 501.321197 56.575431 
L 501.976562 56.122297 
L 502.631926 55.669300 
L 503.287291 55.216438 
L 503.942656 54.763711 
L 504.598020 54.311117 
L 505.253385 53.858655 
L 505.908750 53.406324 
L 506.564114 52.954122 
L 507.219479 52.502049 
L 507.874844 52.050102 
L 508.530208 51.598282 
L 509.185573 51.146586 
L 509.840938 50.695014 
L 510.496302 50.243564 
L 511.151667 49.792235 
L 511.807032 49.341026 
L 512.462396 48.889936 
L 513.117761 48.438964 
L 513.773126 47.988109 
L 514.428490 47.537368 
L 515.083855 47.086742 
L 515.739220 46.636229 
L 516.394584 46.185829 
L 517.049949 45.735539 
L 517.705314 45.285359 
L 518.360678 44.835287 
L 519.016043 44.385324 
L 519.671408 43.935467 
L 520.326772 43.485715 
L 520.982137 43.036068 
L 521.637502 42.586525 
L 522.292866 42.137083 
L 522.948231 41.687744 
L 523.603596 41.238504 
L 524.258960 40.789364 
L 524.914325 40.340322 
L 525.569690 39.891377 
L 526.225054 39.442529 
L 526.880419 38.993776 
L 527.535784 38.545117 
L 528.191148 38.096552 
L 528.846513 37.648079 
L 529.501878 37.199697 
L 530.157242 36.751406 
L 530.812607 36.303204 
L 531.467971 35.855091 
L 532.123336 35.407066 
L 532.778701 34.959128 
L 533.434065 34.511275 
L 534.089430 34.063507 
L 534.744795 33.615824 
L 535.400159 33.168223 
L 536.055524 32.720705 
L 536.710889 32.273268 
L 537.366253 31.825912 
L 538.021618 31.378635 
L 538.676983 30.931437 
L 539.332347 30.484318 
L 539.987712 30.037275 
L 540.643077 29.590309 
L 541.298441 29.143418 
L 541.953806 28.696602 
L 542.609171 28.249860 
L 543.264535 27.803191 
L 543.919900 27.356594 
L 544.575265 26.910069 
L 545.230629 26.463615 
L 545.885994 26.017230 
L 546.541359 25.570915 
L 547.196723 25.124668 
L 547.852088 24.678489 
L 548.507453 24.232377 
L 549.162817 23.786331 
L 549.818182 23.340351 
" style="fill: none; stroke: #1f77b4; stroke-width: 3; stroke-linecap: square"/>
   </g>
  </g>
 </g>
</svg>
