<?xml version="1.0" encoding="UTF-8" standalone="no"?>
<svg
   width="374.4pt"
   height="158.4pt"
   viewBox="0 0 374.4 158.4"
   version="1.1"
   id="svg59"
   sodipodi:docname="two_gaussians_drift_minimal.svg"
   inkscape:version="1.4 (e7c3feb1, 2024-10-09)"
   xmlns:inkscape="http://www.inkscape.org/namespaces/inkscape"
   xmlns:sodipodi="http://sodipodi.sourceforge.net/DTD/sodipodi-0.dtd"
   xmlns:xlink="http://www.w3.org/1999/xlink"
   xmlns="http://www.w3.org/2000/svg"
   xmlns:svg="http://www.w3.org/2000/svg"
   xmlns:rdf="http://www.w3.org/1999/02/22-rdf-syntax-ns#"
   xmlns:cc="http://creativecommons.org/ns#"
   xmlns:dc="http://purl.org/dc/elements/1.1/">
  <sodipodi:namedview
     id="namedview59"
     pagecolor="#ffffff"
     bordercolor="#000000"
     borderopacity="0.25"
     inkscape:showpageshadow="2"
     inkscape:pageopacity="0.0"
     inkscape:pagecheckerboard="0"
     inkscape:deskcolor="#d1d1d1"
     inkscape:document-units="pt"
     inkscape:zoom="1.0636434"
     inkscape:cx="121.75134"
     inkscape:cy="54.999638"
     inkscape:window-width="1920"
     inkscape:window-height="1080"
     inkscape:window-x="0"
     inkscape:window-y="537"
     inkscape:window-maximized="0"
     inkscape:current-layer="axes_1" />
  <metadata
     id="metadata1">
    <rdf:RDF>
      <cc:Work>
        <dc:type
           rdf:resource="http://purl.org/dc/dcmitype/StillImage" />
        <dc:date>2026-01-12T22:57:25.613599</dc:date>
        <dc:format>image/svg+xml</dc:format>
        <dc:creator>
          <cc:Agent>
            <dc:title>Matplotlib v3.10.1, https://matplotlib.org/</dc:title>
          </cc:Agent>
        </dc:creator>
      </cc:Work>
    </rdf:RDF>
  </metadata>
  <defs
     id="defs1">
    <style
       type="text/css"
       id="style1">*{stroke-linejoin: round; stroke-linecap: butt}</style>
    <clipPath
       id="p5738f48cfd-9">
      <rect
         x="2"
         y="2"
         width="370.39999"
         height="154.39999"
         id="rect59-1" />
    </clipPath>
    <clipPath
       id="p5738f48cfd-9-0">
      <rect
         x="2"
         y="2"
         width="370.39999"
         height="154.39999"
         id="rect59-1-5" />
    </clipPath>
    <clipPath
       id="p5738f48cfd-9-0-6">
      <rect
         x="2"
         y="2"
         width="370.39999"
         height="154.39999"
         id="rect59-1-5-3" />
    </clipPath>
  </defs>
  <g
     id="figure_1">
    <g
       id="patch_1">
      <path
         d="M 0 158.4  L 374.4 158.4  L 374.4 0  L 0 0  z "
         style="fill: #ffffff"
         id="path1" />
    </g>
    <g
       id="axes_1">
      <g
         id="patch_2">
        <path
           d="M 2 156.4  L 372.4 156.4  L 372.4 2  L 2 2  z "
           style="fill: #ffffff"
           id="path2" />
      </g>
      <g
         id="matplotlib.axis_1" />
      <g
         id="matplotlib.axis_2" />
      <g
         id="line2d_1"
         transform="translate(14.102471,-0.70512357)">
        <path
           d="m 2,149.64192 14.840735,-0.19016 8.657095,-0.32953 6.183639,-0.44982 4.946912,-0.56835 4.328547,-0.71283 3.710184,-0.82104 3.710183,-1.06444 3.09182,-1.11143 3.09182,-1.35153 3.09182,-1.6278 2.473455,-1.52632 2.473456,-1.74652 2.473456,-1.98584 2.473456,-2.24349 2.473455,-2.51815 2.473456,-2.80786 2.473456,-3.11004 2.473456,-3.42142 2.473455,-3.73803 3.09182,-5.11814 3.09182,-5.60273 3.09182,-6.06209 3.710183,-7.821715 4.328548,-9.745828 5.565273,-13.157479 8.03873,-19.034126 3.71019,-8.246502 3.09182,-6.369132 2.47345,-4.667574 2.47346,-4.215154 2.47345,-3.701039 1.8551,-2.404763 1.85509,-2.063592 1.85509,-1.704499 1.85509,-1.330455 1.23673,-0.673222 1.23673,-0.499024 1.23672,-0.322845 1.23673,-0.145387 1.23673,0.03265 1.23673,0.210559 1.23673,0.38763 1.23672,0.563162 1.23673,0.736465 1.85509,1.4231 1.8551,1.793776 1.85509,2.148753 1.85509,2.485118 1.85509,2.800231 2.47346,4.182737 2.47345,4.639436 3.09182,6.340373 3.71019,8.221752 4.94691,11.608752 9.89382,23.425486 4.32855,9.596637 3.71018,7.657039 3.09182,5.90668 3.09182,5.43682 3.09182,4.94698 3.09182,4.45118 2.47346,3.20783 2.47345,2.90234 2.47346,2.60837 2.47345,2.32871 2.47346,2.0655 2.47345,1.82026 2.47346,1.59396 3.09182,1.70369 3.09182,1.41804 3.09182,1.16894 3.09182,0.95446 3.71018,0.90709 4.32855,0.79184 4.32855,0.56884 5.56527,0.4917 6.80201,0.35445 9.27546,0.23261 14.84073,0.1156 45.14057,0.0253 48.85075,5e-5 v 0"
           clip-path="url(#p5738f48cfd)"
           style="fill:none;stroke:#1f77b4;stroke-width:2;stroke-linecap:square"
           id="path3"
           transform="matrix(0.88006807,0,0,0.79299874,0.23986385,31.19239)" />
      </g>
      <g
         id="line2d_2">
        <path
           d="M 2 149.686951  L 84.860768 149.581435  L 97.846411 149.346528  L 106.503506 148.985696  L 113.305509 148.489395  L 118.870785 147.870705  L 123.817696 147.09908  L 128.146244 146.202977  L 131.856427 145.233083  L 135.566611 144.041653  L 139.276795 142.592422  L 142.368614 141.160181  L 145.460434 139.499462  L 148.552254 137.587341  L 151.644073 135.401393  L 154.735893 132.920364  L 157.827713 130.124929  L 160.919533 126.998522  L 164.011352 123.528216  L 167.103172 119.705636  L 170.194992 115.527866  L 173.286811 110.998317  L 176.996995 105.113881  L 180.707179 98.771589  L 185.035726 90.861962  L 189.982638 81.288579  L 197.403005 66.338906  L 204.823372 51.536202  L 209.15192 43.407145  L 212.862104 36.954517  L 215.953923 32.049815  L 218.427379 28.492019  L 220.900835 25.300145  L 223.37429 22.50836  L 225.229382 20.69552  L 227.084474 19.136163  L 228.939566 17.840053  L 230.794658 16.815364  L 232.64975 16.0686  L 234.504841 15.604518  L 236.359933 15.426087  L 238.215025 15.534449  L 240.070117 15.928909  L 241.925209 16.606945  L 243.780301 17.564231  L 245.635392 18.794686  L 247.490484 20.290536  L 249.345576 22.042397  L 251.819032 24.757415  L 254.292487 27.878393  L 256.765943 31.371813  L 259.857763 36.206014  L 262.949583 41.486981  L 266.659766 48.298439  L 270.988314 56.715135  L 279.645409 74.192404  L 285.829048 86.454149  L 290.157596 94.615734  L 293.86778 101.218559  L 297.577963 107.39286  L 301.288147 113.094803  L 304.379967 117.465739  L 307.471786 121.482513  L 310.563606 125.144685  L 313.655426 128.457759  L 316.747245 131.432284  L 319.839065 134.08295  L 322.930885 136.42768  L 326.022705 138.486772  L 329.114524 140.282101  L 332.206344 141.836396  L 335.298164 143.17261  L 339.008347 144.520037  L 342.718531 145.62365  L 347.047078 146.64997  L 351.375626 147.44332  L 356.322538 148.122045  L 361.887813 148.662298  L 368.689816 149.092042  L 372.4 149.250039  L 372.4 149.250039  "
           clip-path="url(#p5738f48cfd)"
           style="fill: none; stroke: #ff7f0e; stroke-width: 2; stroke-linecap: square"
           id="path4" />
      </g>
      <g
         id="line2d_3">
        <path
           d="M 2 149.686957  L 372.4 149.686957  "
           clip-path="url(#p5738f48cfd)"
           style="fill: none; stroke: #444444; stroke-width: 0.6; stroke-linecap: square"
           id="path5" />
      </g>
      <g
         id="line2d_4"
         transform="translate(0,6)">
        <path
           d="M 63.733333,149.68696 V 138.94609"
           clip-path="url(#p5738f48cfd)"
           style="fill:none;stroke:#1f77b4;stroke-linecap:square"
           id="path6" />
      </g>
      <g
         id="line2d_5"
         transform="translate(0,6)">
        <path
           d="M 88.426667,149.68696 V 138.94609"
           clip-path="url(#p5738f48cfd)"
           style="fill:none;stroke:#1f77b4;stroke-linecap:square"
           id="path7" />
      </g>
      <g
         id="line2d_6"
         transform="translate(0,4.5)">
        <path
           d="M 113.12,149.68696 V 138.94609"
           clip-path="url(#p5738f48cfd)"
           style="fill:none;stroke:#1f77b4;stroke-linecap:square"
           id="path8" />
      </g>
      <g
         id="line2d_7"
         transform="translate(0,4.5)">
        <path
           d="M 137.81333,149.68696 V 138.94609"
           clip-path="url(#p5738f48cfd)"
           style="fill:none;stroke:#1f77b4;stroke-linecap:square"
           id="path9" />
      </g>
      <g
         id="line2d_7-5"
         transform="translate(25.43667,10.80392)"
         style="stroke-linecap:butt;stroke-linejoin:round">
        <path
           d="M 137.81333,149.68696 V 138.94609"
           clip-path="url(#p5738f48cfd-9)"
           style="fill:none;stroke:#1f77b4;stroke-linecap:square;stroke-linejoin:round"
           id="path9-5"
           transform="matrix(-1,0,0,0.47245002,274.86601,73.037232)" />
        <path
           d="M 137.81333,149.68696 V 138.94609"
           clip-path="url(#p5738f48cfd-9-0)"
           style="fill:none;stroke:#1f77b4;stroke-linecap:square;stroke-linejoin:round"
           id="path9-5-6"
           transform="matrix(-1,0,0,0.47245002,299.5457,72.537586)" />
        <path
           d="M 137.81333,149.68696 V 138.94609"
           clip-path="url(#p5738f48cfd-9-0-6)"
           style="fill:none;stroke:#1f77b4;stroke-linecap:square;stroke-linejoin:round"
           id="path9-5-6-0"
           transform="matrix(-1,0,0,0.47245002,324.23072,73.298234)" />
      </g>
      <g
         id="line2d_8">
        <path
           d="M 162.506667 149.686957  L 162.506667 138.946087  "
           clip-path="url(#p5738f48cfd)"
           style="fill: none; stroke: #1f77b4; stroke-linecap: square"
           id="path10" />
      </g>
      <g
         id="line2d_9">
        <path
           d="M 187.2 149.686957  L 187.2 138.946087  "
           clip-path="url(#p5738f48cfd)"
           style="fill: none; stroke: #1f77b4; stroke-linecap: square"
           id="path11" />
      </g>
      <g
         id="line2d_10">
        <path
           d="M 211.893333 149.686957  L 211.893333 138.946087  "
           clip-path="url(#p5738f48cfd)"
           style="fill: none; stroke: #1f77b4; stroke-linecap: square"
           id="path12" />
      </g>
      <g
         id="line2d_11">
        <path
           d="M 162.506667 149.686957  L 162.506667 138.946087  "
           clip-path="url(#p5738f48cfd)"
           style="fill: none; stroke: #ff7f0e; stroke-linecap: square"
           id="path13" />
      </g>
      <g
         id="line2d_12">
        <path
           d="M 187.2 149.686957  L 187.2 138.946087  "
           clip-path="url(#p5738f48cfd)"
           style="fill: none; stroke: #ff7f0e; stroke-linecap: square"
           id="path14" />
      </g>
      <g
         id="line2d_13">
        <path
           d="M 211.893333 149.686957  L 211.893333 138.946087  "
           clip-path="url(#p5738f48cfd)"
           style="fill: none; stroke: #ff7f0e; stroke-linecap: square"
           id="path15" />
      </g>
      <g
         id="line2d_14">
        <path
           d="M 236.586667 149.686957  L 236.586667 138.946087  "
           clip-path="url(#p5738f48cfd)"
           style="fill: none; stroke: #ff7f0e; stroke-linecap: square"
           id="path16" />
      </g>
      <g
         id="line2d_15">
        <path
           d="M 261.28 149.686957  L 261.28 138.946087  "
           clip-path="url(#p5738f48cfd)"
           style="fill: none; stroke: #ff7f0e; stroke-linecap: square"
           id="path17" />
      </g>
      <g
         id="line2d_16">
        <path
           d="M 285.973333 149.686957  L 285.973333 138.946087  "
           clip-path="url(#p5738f48cfd)"
           style="fill: none; stroke: #ff7f0e; stroke-linecap: square"
           id="path18" />
      </g>
      <g
         id="line2d_17">
        <path
           d="M 310.666667 149.686957  L 310.666667 138.946087  "
           clip-path="url(#p5738f48cfd)"
           style="fill: none; stroke: #ff7f0e; stroke-linecap: square"
           id="path19" />
      </g>
      <g
         id="PathCollection_1"
         transform="translate(0,6)">
        <defs
           id="defs19">
          <path
             id="m715e352f35"
             d="M 0,2.12132 C 0.562581,2.12132 1.102195,1.897805 1.5,1.5 1.897805,1.102195 2.12132,0.562581 2.12132,0 2.12132,-0.562581 1.897805,-1.102195 1.5,-1.5 1.102195,-1.897805 0.562581,-2.12132 0,-2.12132 c -0.562581,0 -1.102195,0.223515 -1.5,0.62132 -0.397805,0.397805 -0.62132,0.937419 -0.62132,1.5 0,0.562581 0.223515,1.102195 0.62132,1.5 0.397805,0.397805 0.937419,0.62132 1.5,0.62132 z"
             style="stroke:#1f77b4" />
        </defs>
        <g
           clip-path="url(#p5738f48cfd)"
           id="g25">
          <use
             xlink:href="#m715e352f35"
             x="63.733334"
             y="149.68695"
             style="fill:#1f77b4;stroke:#1f77b4"
             id="use19" />
          <use
             xlink:href="#m715e352f35"
             x="88.426666"
             y="149.68695"
             style="fill:#1f77b4;stroke:#1f77b4"
             id="use20" />
          <use
             xlink:href="#m715e352f35"
             x="113.12"
             y="149.68695"
             style="fill:#1f77b4;stroke:#1f77b4"
             id="use21" />
          <use
             xlink:href="#m715e352f35"
             x="137.81334"
             y="149.68695"
             style="fill:#1f77b4;stroke:#1f77b4"
             id="use22" />
          <use
             xlink:href="#m715e352f35"
             x="162.50667"
             y="149.68695"
             style="fill:#1f77b4;stroke:#1f77b4"
             id="use23" />
          <use
             xlink:href="#m715e352f35"
             x="187.2"
             y="149.68695"
             style="fill:#1f77b4;stroke:#1f77b4"
             id="use24" />
          <use
             xlink:href="#m715e352f35"
             x="211.89333"
             y="149.68695"
             style="fill:#1f77b4;stroke:#1f77b4"
             id="use25" />
        </g>
      </g>
      <g
         id="PathCollection_2"
         transform="translate(0,-9)">
        <defs
           id="defs25">
          <path
             id="mdfc67516f3"
             d="M 0,2.12132 C 0.562581,2.12132 1.102195,1.897805 1.5,1.5 1.897805,1.102195 2.12132,0.562581 2.12132,0 2.12132,-0.562581 1.897805,-1.102195 1.5,-1.5 1.102195,-1.897805 0.562581,-2.12132 0,-2.12132 c -0.562581,0 -1.102195,0.223515 -1.5,0.62132 -0.397805,0.397805 -0.62132,0.937419 -0.62132,1.5 0,0.562581 0.223515,1.102195 0.62132,1.5 0.397805,0.397805 0.937419,0.62132 1.5,0.62132 z"
             style="stroke:#ff7f0e" />
        </defs>
        <g
           clip-path="url(#p5738f48cfd)"
           id="g32">
          <use
             xlink:href="#mdfc67516f3"
             x="162.50667"
             y="149.68695"
             style="fill:#ff7f0e;stroke:#ff7f0e"
             id="use26" />
          <use
             xlink:href="#mdfc67516f3"
             x="187.2"
             y="149.68695"
             style="fill:#ff7f0e;stroke:#ff7f0e"
             id="use27" />
          <use
             xlink:href="#mdfc67516f3"
             x="211.89333"
             y="149.68695"
             style="fill:#ff7f0e;stroke:#ff7f0e"
             id="use28" />
          <use
             xlink:href="#mdfc67516f3"
             x="236.58667"
             y="149.68695"
             style="fill:#ff7f0e;stroke:#ff7f0e"
             id="use29" />
          <use
             xlink:href="#mdfc67516f3"
             x="261.28"
             y="149.68695"
             style="fill:#ff7f0e;stroke:#ff7f0e"
             id="use30" />
          <use
             xlink:href="#mdfc67516f3"
             x="285.97333"
             y="149.68695"
             style="fill:#ff7f0e;stroke:#ff7f0e"
             id="use31" />
          <use
             xlink:href="#mdfc67516f3"
             x="310.66666"
             y="149.68695"
             style="fill:#ff7f0e;stroke:#ff7f0e"
             id="use32" />
        </g>
      </g>
      <g
         id="text_1"
         transform="translate(-9)">
        <!-- knot relocation -->
        <g
           style="fill:#555555"
           transform="matrix(0.08,0,0,-0.08,157.175,26.875272)"
           id="g59">
          <defs
             id="defs45">
            <path
               id="DejaVuSans-6b"
               d="m 581,4863 h 578 V 1991 l 1716,1509 h 734 L 1753,1863 3688,0 H 2938 L 1159,1709 V 0 H 581 Z"
               transform="scale(0.015625)" />
            <path
               id="DejaVuSans-6e"
               d="M 3513,2113 V 0 h -575 v 2094 q 0,497 -194,743 -194,247 -581,247 -466,0 -735,-297 -269,-296 -269,-809 V 0 H 581 v 3500 h 578 v -544 q 207,316 486,472 280,156 646,156 603,0 912,-373 310,-373 310,-1098 z"
               transform="scale(0.015625)" />
            <path
               id="DejaVuSans-6f"
               d="m 1959,3097 q -462,0 -731,-361 -269,-361 -269,-989 0,-628 267,-989 268,-361 733,-361 460,0 728,362 269,363 269,988 0,622 -269,986 -268,364 -728,364 z m 0,487 q 750,0 1178,-488 429,-487 429,-1349 Q 3566,888 3137,398 2709,-91 1959,-91 1206,-91 779,398 353,888 353,1747 q 0,862 426,1349 427,488 1180,488 z"
               transform="scale(0.015625)" />
            <path
               id="DejaVuSans-74"
               d="M 1172,4494 V 3500 H 2356 V 3053 H 1172 V 1153 q 0,-428 117,-550 117,-122 477,-122 h 590 V 0 H 1766 Q 1100,0 847,248 594,497 594,1153 V 3053 H 172 v 447 h 422 v 994 z"
               transform="scale(0.015625)" />
            <path
               id="DejaVuSans-20"
               transform="scale(0.015625)" />
            <path
               id="DejaVuSans-72"
               d="m 2631,2963 q -97,56 -211,82 -114,27 -251,27 -488,0 -749,-317 -261,-317 -261,-911 V 0 H 581 v 3500 h 578 v -544 q 182,319 472,473 291,155 707,155 59,0 131,-8 72,-7 159,-23 z"
               transform="scale(0.015625)" />
            <path
               id="DejaVuSans-65"
               d="M 3597,1894 V 1613 H 953 q 38,-594 358,-905 320,-311 892,-311 331,0 642,81 311,81 618,244 V 178 Q 3153,47 2828,-22 2503,-91 2169,-91 1331,-91 842,396 353,884 353,1716 q 0,859 464,1363 464,505 1252,505 706,0 1117,-455 411,-454 411,-1235 z m -575,169 q -6,471 -264,752 -258,282 -683,282 -481,0 -770,-272 -289,-272 -333,-766 z"
               transform="scale(0.015625)" />
            <path
               id="DejaVuSans-6c"
               d="m 603,4863 h 575 V 0 H 603 Z"
               transform="scale(0.015625)" />
            <path
               id="DejaVuSans-63"
               d="m 3122,3366 v -538 q -244,135 -489,202 -245,67 -495,67 -560,0 -870,-355 -309,-354 -309,-995 0,-641 309,-996 310,-354 870,-354 250,0 495,67 245,67 489,202 V 134 Q 2881,22 2623,-34 2366,-91 2075,-91 1284,-91 818,406 353,903 353,1747 q 0,856 470,1346 471,491 1290,491 265,0 518,-55 253,-54 491,-163 z"
               transform="scale(0.015625)" />
            <path
               id="DejaVuSans-61"
               d="m 2194,1759 q -697,0 -966,-159 -269,-159 -269,-544 0,-306 202,-486 202,-179 548,-179 479,0 768,339 289,339 289,901 v 128 z m 1147,238 V 0 H 2766 V 531 Q 2569,213 2275,61 1981,-91 1556,-91 q -537,0 -855,302 -317,302 -317,808 0,590 395,890 396,300 1180,300 h 807 v 57 q 0,397 -261,614 -261,217 -733,217 -300,0 -585,-72 -284,-72 -546,-216 v 532 q 315,122 612,182 297,61 578,61 760,0 1135,-394 375,-393 375,-1193 z"
               transform="scale(0.015625)" />
            <path
               id="DejaVuSans-69"
               d="m 603,3500 h 575 V 0 H 603 Z m 0,1363 h 575 V 4134 H 603 Z"
               transform="scale(0.015625)" />
          </defs>
          <use
             xlink:href="#DejaVuSans-6b"
             id="use45" />
          <use
             xlink:href="#DejaVuSans-6e"
             transform="translate(57.910156)"
             id="use46" />
          <use
             xlink:href="#DejaVuSans-6f"
             transform="translate(121.28906)"
             id="use47" />
          <use
             xlink:href="#DejaVuSans-74"
             transform="translate(182.4707)"
             id="use48" />
          <use
             xlink:href="#DejaVuSans-20"
             transform="translate(221.67969)"
             id="use49" />
          <use
             xlink:href="#DejaVuSans-72"
             transform="translate(253.4668)"
             id="use50" />
          <use
             xlink:href="#DejaVuSans-65"
             transform="translate(292.33008)"
             id="use51" />
          <use
             xlink:href="#DejaVuSans-6c"
             transform="translate(353.85352)"
             id="use52" />
          <use
             xlink:href="#DejaVuSans-6f"
             transform="translate(381.63672)"
             id="use53" />
          <use
             xlink:href="#DejaVuSans-63"
             transform="translate(442.81836)"
             id="use54" />
          <use
             xlink:href="#DejaVuSans-61"
             transform="translate(497.79883)"
             id="use55" />
          <use
             xlink:href="#DejaVuSans-74"
             transform="translate(559.07812)"
             id="use56" />
          <use
             xlink:href="#DejaVuSans-69"
             transform="translate(598.28711)"
             id="use57" />
          <use
             xlink:href="#DejaVuSans-6f"
             transform="translate(626.07031)"
             id="use58" />
          <use
             xlink:href="#DejaVuSans-6e"
             transform="translate(687.25195)"
             id="use59" />
        </g>
      </g>
    </g>
  </g>
  <defs
     id="defs59">
    <clipPath
       id="p5738f48cfd">
      <rect
         x="2"
         y="2"
         width="370.4"
         height="154.4"
         id="rect59" />
    </clipPath>
  </defs>
</svg>
