<?xml version="1.0" encoding="UTF-8" standalone="no"?>
<svg
   width="528.144525pt"
   height="213.948741pt"
   viewBox="23.928 8.23125 528.144525 213.94875"
   version="1.1"
   id="svg3"
   sodipodi:docname="two_gaussians_drift_minimal.svg"
   xmlns:inkscape="http://www.inkscape.org/namespaces/inkscape"
   xmlns:sodipodi="http://sodipodi.sourceforge.net/DTD/sodipodi-0.dtd"
   xmlns="http://www.w3.org/2000/svg"
   xmlns:svg="http://www.w3.org/2000/svg"
   xmlns:rdf="http://www.w3.org/1999/02/22-rdf-syntax-ns#"
   xmlns:cc="http://creativecommons.org/ns#"
   xmlns:dc="http://purl.org/dc/elements/1.1/">
  <sodipodi:namedview
     id="namedview3"
     pagecolor="#ffffff"
     bordercolor="#000000"
     borderopacity="0.25"
     inkscape:showpageshadow="2"
     inkscape:pageopacity="0.0"
     inkscape:pagecheckerboard="0"
     inkscape:deskcolor="#d1d1d1"
     inkscape:document-units="pt" />
  <metadata
     id="metadata1">
    <rdf:RDF>
      <cc:Work>
        <dc:type
           rdf:resource="http://purl.org/dc/dcmitype/StillImage" />
        <dc:date>2026-01-10T13:44:22.257130</dc:date>
        <dc:format>image/svg+xml</dc:format>
        <dc:creator>
          <cc:Agent>
            <dc:title>Matplotlib v3.7.5, https://matplotlib.org/</dc:title>
          </cc:Agent>
        </dc:creator>
      </cc:Work>
    </rdf:RDF>
  </metadata>
  <defs
     id="defs1">
    <style
       type="text/css"
       id="style1">*{stroke-linejoin: round; stroke-linecap: butt}</style>
  </defs>
  <g
     id="figure_1">
    <g
       id="patch_1">
      <path
         d="M 0,230.4 H 576 V 0 H 0 Z"
         style="fill:none"
         id="path1" />
    </g>
    <g
       id="axes_1">
      <g
         id="line2d_1">
        <path
           d="m 26.181818,219.92649 45.419668,-0.11533 12.228372,-0.24316 8.297824,-0.37439 6.550914,-0.51738 5.240734,-0.6301 4.36727,-0.7276 3.93055,-0.85763 3.93055,-1.09592 3.49382,-1.21551 3.05709,-1.28277 3.0571,-1.518 3.05709,-1.78451 2.62036,-1.76653 2.62037,-2.00769 2.62036,-2.27043 2.62037,-2.55464 2.62037,-2.85983 2.62036,-3.18509 2.62037,-3.52895 2.62036,-3.88942 2.62037,-4.26394 2.62036,-4.64933 3.0571,-5.92051 3.05709,-6.45811 3.05709,-6.98992 3.05709,-7.50542 3.49383,-9.1726 3.93054,-11.00308 4.36728,-12.93201 5.67746,-17.57264 11.35491,-35.34479 3.93055,-11.444862 3.49382,-9.478403 3.0571,-7.605887 2.62036,-5.914619 2.18364,-4.449434 2.18364,-3.974228 2.18364,-3.46568 1.74691,-2.386448 1.74691,-2.028919 1.74691,-1.660152 1.74691,-1.282134 1.31018,-0.709127 1.31018,-0.490168 1.31019,-0.269657 1.31018,-0.04829 1.31018,0.173229 1.31018,0.394198 1.31019,0.613918 1.31018,0.831698 1.31018,1.04685 1.74691,1.724696 1.74691,2.091657 1.74691,2.447048 1.74691,2.789004 2.18364,3.943859 2.18364,4.421219 2.62036,5.883881 2.62037,6.449788 3.05709,8.141801 3.49382,9.968492 4.36728,13.181312 7.42437,23.279981 6.98764,21.658077 4.36727,12.88645 3.93055,10.95092 3.49382,9.11962 3.49382,8.47877 3.0571,6.86244 3.05709,6.32829 3.05709,5.79074 3.0571,5.25888 2.62036,4.09434 2.62037,3.72577 2.62036,3.37247 2.62037,3.03674 2.62036,2.72034 2.62037,2.42447 2.62036,2.14986 2.62037,1.89682 3.05709,1.92178 3.0571,1.63993 3.05709,1.39014 3.49382,1.32163 3.49382,1.07673 3.93055,0.9657 4.36727,0.82368 4.80401,0.66728 5.67746,0.54687 6.55091,0.40235 8.73455,0.29679 12.6651,0.17864 24.45674,0.0712 137.56919,0.006 v 0"
           clip-path="url(#p5724c3c555)"
           style="fill:none;stroke:#1f77b4;stroke-width:3;stroke-linecap:square"
           id="path2" />
      </g>
      <g
         id="line2d_2">
        <path
           d="m 26.181818,219.92723 90.839332,-0.10886 17.46911,-0.24293 11.79164,-0.38061 8.73455,-0.49072 7.42437,-0.63027 6.55092,-0.77994 5.67745,-0.89531 5.24073,-1.04992 4.80401,-1.1875 4.36727,-1.29686 4.36728,-1.5329 3.93055,-1.60571 3.93055,-1.84255 3.93054,-2.10126 3.93055,-2.38126 3.49382,-2.36815 3.49382,-2.6185 3.49382,-2.88045 3.49382,-3.15219 3.49383,-3.43136 3.49382,-3.71529 3.93054,-4.52094 3.93055,-4.87912 3.93055,-5.22783 4.36728,-6.19754 4.36727,-6.5745 5.24073,-8.32292 6.11419,-10.17859 9.17128,-15.78009 9.17128,-15.63775 5.24073,-8.501098 4.36727,-6.669453 3.93055,-5.583288 3.49382,-4.564677 3.0571,-3.644441 3.05709,-3.284481 2.62036,-2.506437 2.62037,-2.203659 2.62037,-1.886037 2.18363,-1.319751 2.18364,-1.083955 2.18364,-0.842974 2.18364,-0.597944 2.18363,-0.350031 2.18364,-0.10043 2.18364,0.149659 2.18364,0.399022 2.18364,0.646461 2.18363,0.890786 2.18364,1.130834 2.18364,1.365478 2.62036,1.939094 2.62037,2.254416 2.62037,2.554575 2.62036,2.837749 3.0571,3.643685 3.05709,3.971707 3.49382,4.896813 3.93055,5.900649 4.36727,6.949638 5.67746,9.47731 10.48146,18.062 7.8611,13.34387 5.67746,9.21859 4.804,7.40329 4.36728,6.35354 4.36727,5.95534 3.93055,4.99734 3.93055,4.6416 3.93055,4.28069 3.93054,3.92053 3.49383,3.18726 3.49382,2.91445 3.49382,2.65113 3.49382,2.39922 3.93055,2.41416 3.93054,2.13179 3.93055,1.87066 3.93055,1.63132 4.36728,1.5585 4.36727,1.31952 4.804,1.20921 5.24074,1.07002 5.67745,0.91329 6.11419,0.75069 6.98764,0.62611 8.29783,0.50497 10.04473,0.37401 13.10183,0.25249 20.08947,0.14196 6.11418,0.0166 v 0"
           clip-path="url(#p5724c3c555)"
           style="fill:none;stroke:#ff7f0e;stroke-width:3;stroke-linecap:square"
           id="path3" />
      </g>
    </g>
  </g>
  <defs
     id="defs3">
    <clipPath
       id="p5724c3c555">
      <rect
         x="0"
         y="0"
         width="576"
         height="230.39999"
         id="rect3" />
    </clipPath>
  </defs>
</svg>
